<svg width="591" height="550" viewBox="0 0 591 550" fill="none" xmlns="http://www.w3.org/2000/svg">
<path d="M421.625 549.978C468.207 549.978 505.97 544.251 505.97 537.186C505.97 530.121 468.207 524.394 421.625 524.394C375.043 524.394 337.28 530.121 337.28 537.186C337.28 544.251 375.043 549.978 421.625 549.978Z" fill="#92E3A9"/>
<path opacity="0.5" d="M421.625 549.978C468.207 549.978 505.97 544.251 505.97 537.186C505.97 530.121 468.207 524.394 421.625 524.394C375.043 524.394 337.28 530.121 337.28 537.186C337.28 544.251 375.043 549.978 421.625 549.978Z" fill="white"/>
<path d="M164.526 531.373C199.546 531.373 227.934 525.646 227.934 518.581C227.934 511.516 199.546 505.789 164.526 505.789C129.507 505.789 101.118 511.516 101.118 518.581C101.118 525.646 129.507 531.373 164.526 531.373Z" fill="#92E3A9"/>
<path opacity="0.5" d="M164.526 531.373C199.546 531.373 227.934 525.646 227.934 518.581C227.934 511.516 199.546 505.789 164.526 505.789C129.507 505.789 101.118 511.516 101.118 518.581C101.118 525.646 129.507 531.373 164.526 531.373Z" fill="white"/>
<path d="M133.696 485.358L165.983 471.922C163.729 468.226 161.474 469.974 158.59 463.992C157.057 460.925 158.406 455.986 156.474 452.029C154.94 448.792 150.17 446.737 148.329 443.025C146.657 439.681 147.869 434.696 146.059 431.092C144.249 427.487 139.602 425.708 137.792 422.196C135.982 418.683 137.163 413.744 135.338 410.293C133.512 406.842 128.742 404.94 126.917 401.535C125.092 398.13 126.058 393.023 124.187 389.694C122.316 386.366 117.392 384.433 115.505 381.227C113.389 377.638 114.171 372.561 112.223 369.509C109.846 365.797 104.891 364.448 102.882 361.84C99.1089 356.932 97.0842 351.533 95.213 351.901C93.3417 352.269 94.9675 357.699 95.9952 364.171C96.5167 367.392 94.0933 371.841 95.1669 376.151C96.0259 379.617 100.259 382.501 101.425 386.458C102.453 390.001 100.397 394.679 101.609 398.498C102.821 402.318 107.085 404.756 108.327 408.483C109.569 412.211 107.622 416.858 108.879 420.524C110.137 424.19 114.554 426.751 115.827 430.356C117.101 433.96 115.306 438.822 116.594 442.381C117.883 445.939 122.408 448.639 123.681 452.121C125.107 455.97 123.343 460.756 124.601 464.115C126.135 468.195 130.629 470.68 131.81 473.763C134.371 480.496 130.767 480.374 132.884 485.773L133.696 485.358Z" fill="#2E353A"/>
<path d="M98.9248 362.776L146.933 478.103" stroke="white" stroke-width="0.360849" stroke-miterlimit="10"/>
<path d="M109.002 372.776L105.628 379.494L98.9401 375.552" stroke="white" stroke-width="0.360849" stroke-miterlimit="10"/>
<path d="M117.346 392.839L113.987 399.572L107.299 395.63" stroke="white" stroke-width="0.360849" stroke-miterlimit="10"/>
<path d="M125.214 411.72L121.855 418.453L115.153 414.511" stroke="white" stroke-width="0.360849" stroke-miterlimit="10"/>
<path d="M134.571 434.175L131.196 440.908L124.509 436.966" stroke="white" stroke-width="0.360849" stroke-miterlimit="10"/>
<path d="M144.019 456.875L140.66 463.609L133.973 459.667" stroke="white" stroke-width="0.360849" stroke-miterlimit="10"/>
<path d="M130.046 476.447L182.717 474.775C181.506 468.364 177.41 469.622 176.582 459.667C176.153 454.636 180.601 448.271 179.987 441.675C179.481 436.246 173.944 430.847 173.33 424.635C172.778 419.036 177.15 412.656 176.521 406.612C175.907 400.906 170.293 395.584 169.634 389.664C168.974 383.743 173.254 377.393 172.548 371.58C171.843 365.767 166.121 360.521 165.354 354.708C164.588 348.895 168.698 342.253 167.839 336.578C166.95 330.566 161.09 325.519 160.17 319.982C159.112 313.847 162.931 307.067 161.811 301.76C160.446 295.242 154.142 290.686 152.762 285.901C150.093 276.974 150.108 268.277 147.271 267.802C144.433 267.326 143.82 275.824 141.841 285.41C140.844 290.226 135.031 295.257 134.264 301.852C133.635 307.19 138.052 313.509 137.562 319.691C137.117 325.243 131.733 330.734 131.426 336.747C131.104 342.422 135.813 348.511 135.552 354.432C135.292 360.352 130.092 365.828 129.908 371.672C129.724 377.516 134.509 383.467 134.433 389.234C134.356 395.001 129.172 400.891 129.08 406.582C128.988 412.594 133.927 418.499 133.865 424.082C133.865 430.218 128.773 436.077 128.758 441.491C128.758 448.041 133.727 453.931 133.742 458.931C133.742 469.76 128.742 467.674 128.834 476.401L130.046 476.447Z" fill="#2E353A"/>
<path d="M146.596 285.195L152.593 473.303" stroke="white" stroke-width="0.543628" stroke-miterlimit="10"/>
<path d="M155.446 304.659L147.102 312.328L139.786 303.202" stroke="white" stroke-width="0.543628" stroke-miterlimit="10"/>
<path d="M156.489 337.391L148.145 345.075L140.829 335.949" stroke="white" stroke-width="0.543628" stroke-miterlimit="10"/>
<path d="M157.471 368.19L149.127 375.859L141.81 366.733" stroke="white" stroke-width="0.543628" stroke-miterlimit="10"/>
<path d="M158.636 404.818L150.292 412.502L142.991 403.376" stroke="white" stroke-width="0.543628" stroke-miterlimit="10"/>
<path d="M159.817 441.844L151.473 449.528L144.157 440.402" stroke="white" stroke-width="0.543628" stroke-miterlimit="10"/>
<path d="M161.765 358.128C164.465 359.984 171.735 361.196 171.75 361.196C171.766 361.196 171.106 356.165 171.03 355.843C170.079 352.208 166.121 345.75 161.934 345.52C161.236 345.499 160.542 345.624 159.896 345.889C159.25 346.154 158.667 346.552 158.185 347.057C157.704 347.562 157.334 348.163 157.099 348.82C156.865 349.478 156.772 350.177 156.826 350.873C156.949 353.864 159.449 356.533 161.765 358.128Z" fill="#2E353A"/>
<path d="M234.668 373.911C234.668 373.911 236.922 369.31 237.03 369.049C238.241 365.506 238.564 357.929 235.143 355.413C234.573 355.012 233.924 354.735 233.239 354.6C232.555 354.466 231.849 354.477 231.169 354.633C230.489 354.79 229.85 355.087 229.292 355.507C228.735 355.927 228.272 356.459 227.934 357.07C226.4 359.616 227.014 363.205 228.057 365.813C229.361 368.865 234.668 373.911 234.668 373.911Z" fill="#2E353A"/>
<path d="M261.372 351.87C257.353 350.643 251.386 355.306 249.239 358.389C249.055 358.65 246.616 363.144 246.693 363.159H246.785C245.834 363.88 244.837 364.693 243.717 365.567C241.739 367.224 239.499 369.126 237.214 371.35C234.724 373.717 232.374 376.227 230.174 378.865C227.701 381.814 225.494 384.976 223.578 388.314V388.436C223.839 387.24 224.437 383.835 224.453 383.59C224.683 379.847 222.919 372.469 219.023 370.936C218.365 370.696 217.663 370.598 216.965 370.648C216.266 370.699 215.586 370.896 214.969 371.228C214.352 371.559 213.812 372.018 213.384 372.573C212.957 373.128 212.652 373.767 212.489 374.448C211.691 377.301 213.24 380.583 214.927 382.838C216.845 385.353 222.873 388.605 223.363 388.866C221.497 392.333 219.863 395.92 218.471 399.603C217.658 401.735 216.937 403.897 216.155 406.091C216.339 405.048 216.507 404.097 216.507 403.974C216.737 400.231 214.974 392.854 211.093 391.32C210.437 391.083 209.738 390.986 209.042 391.037C208.346 391.087 207.668 391.284 207.053 391.614C206.438 391.944 205.9 392.4 205.473 392.952C205.045 393.503 204.739 394.139 204.574 394.817C203.761 397.67 205.31 400.952 206.998 403.207C208.685 405.462 213.808 408.345 215.173 409.082L214.345 411.612C213.041 415.646 211.768 419.696 210.403 423.622C209.912 425.003 209.39 426.352 208.869 427.687C209.022 426.767 209.16 425.969 209.176 425.862C209.406 422.104 207.642 414.741 203.746 413.208C203.09 412.968 202.39 412.869 201.694 412.919C200.997 412.968 200.318 413.165 199.703 413.495C199.087 413.825 198.548 414.282 198.122 414.835C197.695 415.388 197.39 416.025 197.227 416.705C196.43 419.558 197.963 422.84 199.666 425.095C201.369 427.349 205.985 429.957 207.581 430.846C207.013 432.196 206.43 433.577 205.817 434.865C205.372 435.739 205.004 436.614 204.513 437.473C204.022 438.332 203.577 439.175 203.117 440.003C202.166 441.537 201.184 443.224 200.218 444.758C199.559 445.817 198.914 446.814 198.255 447.826C198.746 446.445 199.666 443.746 199.789 443.516C200.367 440.267 200.103 436.924 199.022 433.807C199.11 433.445 199.162 433.075 199.175 432.702C199.221 432.006 199.12 431.308 198.878 430.653C198.636 429.999 198.259 429.402 197.771 428.903C197.284 428.404 196.696 428.013 196.048 427.756C195.399 427.499 194.703 427.381 194.006 427.411C189.819 427.702 185.923 434.206 185.033 437.841C185.033 438.055 184.665 440.448 184.481 441.967C184.481 441.062 184.481 440.187 184.389 439.252C184.389 437.411 184.174 435.571 184.052 433.592C183.944 432.641 183.852 431.675 183.745 430.708C183.638 429.742 183.469 428.73 183.331 427.733C182.963 425.417 182.472 423.131 181.92 420.769C183.546 420.769 189.267 420.371 191.782 419.113C194.298 417.855 197.135 415.57 197.687 412.655C197.838 411.974 197.843 411.268 197.703 410.585C197.563 409.901 197.281 409.255 196.874 408.687C196.467 408.12 195.946 407.645 195.343 407.293C194.741 406.94 194.071 406.719 193.377 406.643C189.19 406.29 184.374 412.134 182.932 415.585C182.84 415.815 182.088 418.407 181.69 419.849C181.352 418.453 181.03 417.057 180.647 415.646C179.527 411.612 178.269 407.548 177.027 403.483L175.922 399.756C176.49 399.756 183.316 399.495 186.138 398.084C188.638 396.842 191.491 394.541 192.028 391.627C192.181 390.946 192.188 390.241 192.05 389.557C191.912 388.874 191.631 388.227 191.226 387.659C190.82 387.092 190.3 386.616 189.698 386.264C189.096 385.911 188.426 385.69 187.733 385.614C183.546 385.261 178.714 391.105 177.272 394.572C177.165 394.832 176.076 398.575 175.846 399.541C175.048 396.796 174.312 394.066 173.606 391.335C172.691 387.656 172.02 383.921 171.597 380.154C171.858 380.154 178.975 379.924 181.874 378.482C184.374 377.24 187.227 374.939 187.764 372.025C187.917 371.344 187.924 370.639 187.786 369.955C187.648 369.272 187.367 368.625 186.962 368.057C186.556 367.49 186.036 367.014 185.434 366.662C184.832 366.309 184.162 366.088 183.469 366.012C179.282 365.659 174.45 371.503 173.008 374.954C172.916 375.184 172.088 378.022 171.72 379.402H171.49C171.152 375.601 171.152 371.777 171.49 367.975C171.658 365.889 171.935 363.895 172.241 361.963C173.576 362.055 179.665 362.423 182.411 361.411C185.156 360.398 188.116 358.481 188.975 355.643C189.201 354.982 189.285 354.281 189.222 353.586C189.159 352.89 188.949 352.215 188.608 351.606C188.266 350.997 187.8 350.466 187.24 350.049C186.679 349.632 186.037 349.338 185.355 349.186C181.229 348.373 175.8 353.649 173.99 356.932C173.883 357.116 173.085 359.033 172.456 360.444C172.609 359.585 172.747 358.68 172.916 357.852C173.53 354.784 174.281 351.916 174.972 349.431C175.37 348.02 175.754 346.747 176.137 345.566C177.487 344.968 182.917 342.499 184.849 340.413C186.782 338.327 188.561 335.182 188.024 332.253C187.918 331.569 187.669 330.915 187.295 330.333C186.921 329.751 186.429 329.253 185.852 328.872C185.274 328.491 184.623 328.234 183.941 328.119C183.259 328.004 182.56 328.033 181.889 328.203C177.87 329.384 175.478 336.563 175.37 340.321C175.37 340.643 175.815 345.72 175.892 345.689C175.508 346.824 175.094 348.036 174.695 349.385C173.944 351.855 173.162 354.662 172.456 357.791C171.683 361.138 171.109 364.529 170.738 367.945C170.292 371.767 170.194 375.623 170.447 379.464C170.439 379.509 170.439 379.556 170.447 379.602C169.987 378.467 168.622 375.307 168.483 375.077C166.628 371.825 161.09 366.626 156.995 367.5C156.317 367.665 155.681 367.971 155.129 368.398C154.577 368.825 154.12 369.363 153.789 369.978C153.458 370.592 153.26 371.27 153.207 371.966C153.154 372.662 153.248 373.361 153.483 374.019C154.388 376.841 157.501 378.758 160.139 379.678C163.13 380.721 169.956 380.108 170.493 380.046C170.837 383.954 171.447 387.833 172.318 391.657C172.793 393.881 173.361 396.121 173.959 398.345C173.53 397.363 173.146 396.504 173.085 396.382C171.214 393.13 165.692 387.946 161.581 388.82C160.902 388.983 160.265 389.288 159.711 389.714C159.157 390.141 158.7 390.679 158.368 391.294C158.037 391.91 157.839 392.588 157.787 393.285C157.736 393.981 157.832 394.681 158.069 395.339C158.974 398.161 162.087 400.063 164.741 400.998C167.394 401.934 173.254 401.52 174.787 401.397C175.033 402.241 175.248 403.1 175.493 403.943C176.643 408.039 177.809 412.119 178.821 416.137C179.19 417.564 179.481 418.975 179.788 420.386C179.42 419.527 179.097 418.852 179.036 418.683C177.165 415.432 171.643 410.247 167.533 411.122C166.854 411.287 166.219 411.593 165.666 412.02C165.114 412.447 164.657 412.985 164.326 413.6C163.995 414.214 163.797 414.891 163.744 415.587C163.691 416.284 163.785 416.983 164.02 417.64C164.925 420.463 168.039 422.38 170.692 423.3C173.346 424.22 178.637 423.868 180.463 423.714C180.739 425.171 181.015 426.628 181.199 428.055C181.322 429.021 181.49 429.957 181.552 430.939C181.613 431.92 181.705 432.871 181.782 433.837C181.874 435.678 181.966 437.58 181.996 439.375C181.996 440.632 181.996 441.829 181.996 443.025C181.659 441.614 180.938 438.853 180.846 438.623C179.496 435.126 174.818 429.159 170.631 429.42C169.936 429.481 169.261 429.686 168.65 430.024C168.04 430.362 167.507 430.824 167.086 431.38C166.666 431.937 166.366 432.576 166.208 433.255C166.05 433.935 166.036 434.64 166.167 435.325C166.643 438.255 169.419 440.617 171.904 441.936C174.619 443.378 181.199 443.823 182.012 443.869C182.012 445.863 182.012 447.795 182.012 449.62C181.92 455.357 181.644 460.204 181.383 463.793L184.159 464.345C184.343 460.664 184.527 455.618 184.512 449.636C184.512 447.611 184.512 445.464 184.389 443.24C186.464 442.854 188.512 442.341 190.524 441.706C192.196 444.405 197.089 448.133 197.718 448.608C196.629 450.28 195.555 451.891 194.528 453.394C191.307 458.072 188.392 461.922 186.23 464.775L189.297 465.357C191.337 462.566 193.899 458.992 196.614 454.774C197.733 453.087 198.884 451.262 200.049 449.375C200.801 449.682 206.89 452.213 209.973 452.121C212.78 452.029 216.323 451.139 218.041 448.715C218.462 448.161 218.762 447.524 218.921 446.846C219.081 446.169 219.096 445.465 218.966 444.781C218.835 444.097 218.563 443.448 218.166 442.876C217.769 442.304 217.256 441.822 216.661 441.461C212.995 439.39 206.169 442.672 203.409 445.203C203.24 445.356 201.66 447.182 200.678 448.271C201.154 447.488 201.614 446.737 202.089 445.939C203.056 444.405 203.961 442.764 204.942 441.046L206.277 438.47C206.752 437.626 207.136 436.66 207.565 435.755C208.531 433.623 209.406 431.414 210.234 429.175C211.63 430.018 216.584 432.902 219.437 433.239C222.29 433.577 225.864 433.239 227.919 431.107C228.422 430.623 228.817 430.039 229.078 429.392C229.34 428.745 229.463 428.05 229.438 427.353C229.414 426.655 229.242 425.971 228.936 425.344C228.629 424.717 228.194 424.162 227.658 423.714C224.36 421.107 217.106 423.315 213.992 425.417C213.808 425.539 211.737 427.288 210.617 428.27C211.108 426.92 211.599 425.586 212.059 424.19C213.348 420.202 214.544 416.122 215.756 412.057C216.124 410.815 216.507 409.572 216.891 408.345C217.382 408.637 223.195 412.195 226.324 412.579C229.115 412.916 232.75 412.579 234.806 410.447C235.308 409.963 235.704 409.378 235.965 408.731C236.227 408.084 236.35 407.389 236.325 406.692C236.3 405.995 236.129 405.31 235.822 404.683C235.516 404.056 235.081 403.501 234.545 403.054C231.247 400.446 223.992 402.655 220.879 404.756C220.649 404.91 217.673 407.44 216.952 408.115C217.78 405.385 218.639 402.67 219.606 400.032C220.871 396.462 222.367 392.978 224.084 389.602C224.314 389.74 230.373 393.483 233.579 393.866C236.37 394.219 240.005 393.866 242.061 391.734C242.563 391.25 242.958 390.666 243.22 390.019C243.482 389.372 243.605 388.677 243.58 387.979C243.555 387.282 243.384 386.598 243.077 385.971C242.771 385.344 242.336 384.789 241.8 384.341C238.502 381.749 231.247 383.958 228.134 386.044C227.934 386.182 225.664 388.099 224.606 389.111L224.422 388.958C226.248 385.607 228.367 382.424 230.757 379.448C232.045 377.807 233.379 376.289 234.698 374.847C235.757 375.644 240.634 379.31 243.487 379.985C246.34 380.66 249.868 380.675 252.153 378.789C252.705 378.362 253.161 377.823 253.491 377.208C253.82 376.593 254.017 375.916 254.068 375.22C254.118 374.524 254.022 373.825 253.785 373.169C253.547 372.512 253.174 371.914 252.69 371.411C249.699 368.466 242.26 369.877 238.886 371.595C238.702 371.702 236.968 372.853 235.726 373.727C236.324 373.083 236.938 372.408 237.536 371.81C239.775 369.555 241.953 367.607 243.901 365.92C245.006 364.954 246.033 364.11 246.969 363.343C248.426 363.589 254.301 364.54 257.077 363.849C259.853 363.159 263.074 361.533 264.224 358.803C264.54 358.167 264.716 357.471 264.741 356.762C264.766 356.053 264.639 355.346 264.369 354.69C264.099 354.034 263.692 353.443 263.175 352.956C262.658 352.47 262.043 352.1 261.372 351.87Z" fill="#2E353A"/>
<path d="M223.425 463.164H109.263V478.272H223.425V463.164Z" fill="#2E353A"/>
<path d="M205.479 521.71H127.193L117.407 476.6H215.265L205.479 521.71Z" fill="#2E353A"/>
<path d="M110.229 234.564L109.079 343.373C109.079 343.373 104.477 345.689 91.7159 345.689C78.9545 345.689 74.353 343.373 74.353 343.373L78.9545 299.383C78.9545 299.383 62.7727 295.917 62.7727 291.315C62.7727 286.714 98.6487 159.407 98.6487 159.407C98.6487 159.407 117.177 191.724 110.229 234.564Z" fill="#92E3A9" stroke="#2E353A" stroke-miterlimit="10"/>
<path d="M78.9698 299.368L93.9706 230.039" stroke="#2E353A" stroke-miterlimit="10"/>
<path d="M84.7677 159.315C84.7677 159.315 105.597 187.092 107.913 198.672C110.229 210.253 110.229 234.564 110.229 234.564C117.022 217.526 121.31 199.593 122.96 181.325C125.276 152.382 102.131 137.335 102.131 137.335L84.7677 159.315Z" fill="#2E353A" stroke="#2E353A" stroke-miterlimit="10"/>
<path d="M476.183 234.564L477.333 343.373C477.333 343.373 481.935 345.689 494.696 345.689C507.457 345.689 512.059 343.373 512.059 343.373L507.457 299.383C507.457 299.383 523.639 295.917 523.639 291.315C523.639 286.714 487.748 159.407 487.748 159.407C487.748 159.407 469.235 191.724 476.183 234.564Z" fill="#92E3A9" stroke="#2E353A" stroke-miterlimit="10"/>
<path d="M507.427 299.368L493.515 218.75" stroke="#2E353A" stroke-miterlimit="10"/>
<path d="M501.644 159.315C501.644 159.315 480.8 187.092 478.484 198.672C476.167 210.253 476.183 234.548 476.183 234.548C469.381 217.512 465.088 199.579 463.437 181.31C461.121 152.366 484.281 137.32 484.281 137.32L501.644 159.315Z" fill="#2E353A" stroke="#2E353A" stroke-miterlimit="10"/>
<path d="M501.475 159.315C438.381 122 366.424 102.314 293.122 102.314C219.819 102.314 147.862 122 84.7677 159.315L48.2321 97.5324C45.6093 93.1457 48.0787 86.7957 53.8305 83.636C126.954 42.7577 209.332 21.295 293.106 21.295C376.881 21.295 459.258 42.7577 532.382 83.636C538.118 86.8417 540.603 93.1457 537.98 97.5324L501.475 159.315Z" fill="#92E3A9"/>
<path d="M501.475 159.315C438.381 122 366.424 102.314 293.122 102.314C219.819 102.314 147.862 122 84.7677 159.315L48.2321 97.5324C45.6093 93.1457 48.0787 86.7957 53.8305 83.636C126.954 42.7577 209.332 21.295 293.106 21.295C376.881 21.295 459.258 42.7577 532.382 83.636C538.118 86.8417 540.603 93.1457 537.98 97.5324L501.475 159.315Z" stroke="#2E353A" stroke-miterlimit="10"/>
<path d="M145.363 55.143C145.359 54.7456 145.469 54.4189 145.694 54.1629C145.909 53.879 146.184 53.6836 146.518 53.5766C146.963 53.434 147.384 53.4529 147.779 53.6331C148.193 53.7765 148.471 54.0709 148.614 54.516C148.676 54.7108 148.706 54.9468 148.702 55.2239L147.785 84.8309C147.771 85.265 147.633 85.6468 147.37 85.9763C147.099 86.278 146.754 86.4957 146.337 86.6294C145.947 86.7542 145.554 86.7726 145.158 86.6848C144.753 86.5692 144.418 86.3389 144.154 85.9939L128.568 65.4922L127.71 91.2608C127.696 91.6949 127.558 92.0767 127.295 92.4062C127.024 92.708 126.693 92.9212 126.303 93.046C125.914 93.1707 125.521 93.1892 125.125 93.1014C124.72 92.9857 124.385 92.7554 124.121 92.4104L106.132 68.8591C105.977 68.6633 105.868 68.4679 105.806 68.2732C105.663 67.828 105.715 67.4128 105.959 67.0276C106.232 66.6335 106.591 66.3652 107.036 66.2226C107.37 66.1157 107.707 66.115 108.048 66.2207C108.407 66.2896 108.701 66.4871 108.928 66.8131L124.743 87.8857L125.577 61.7565C125.583 61.2946 125.707 60.9172 125.951 60.6244C126.186 60.3038 126.484 60.0856 126.846 59.9697C127.207 59.8539 127.577 59.8582 127.954 59.9828C128.332 60.1073 128.657 60.356 128.929 60.7288L144.678 81.5927L145.363 55.143Z" fill="#2E353A"/>
<path d="M188.637 74.0462C188.093 74.1628 187.616 74.1004 187.205 73.8591C186.822 73.6116 186.576 73.2302 186.465 72.7148L180.713 45.8723C180.603 45.3569 180.671 44.908 180.919 44.5255C181.195 44.1369 181.605 43.8844 182.149 43.7678L198.212 40.3258C198.727 40.2154 199.155 40.2583 199.497 40.4547C199.839 40.651 200.058 40.9782 200.157 41.4363C200.255 41.8944 200.188 42.283 199.957 42.6021C199.726 42.9211 199.353 43.1358 198.837 43.2463L184.45 46.3293L186.705 56.8516L200.233 53.9526C200.749 53.8422 201.177 53.8851 201.519 54.0815C201.86 54.2778 202.08 54.605 202.178 55.0631C202.276 55.5213 202.21 55.9098 201.979 56.2289C201.748 56.5479 201.374 56.7627 200.859 56.8731L187.33 59.7721L189.686 70.7668L204.074 67.6837C204.589 67.5733 205.018 67.6162 205.359 67.8126C205.695 67.9803 205.915 68.3075 206.019 68.7942C206.117 69.2524 206.051 69.6409 205.82 69.96C205.588 70.279 205.215 70.4938 204.7 70.6042L188.637 74.0462Z" fill="#2E353A"/>
<path d="M229.698 65.9885C229.207 66.0531 228.768 65.9635 228.383 65.7198C228.023 65.4435 227.811 65.0594 227.746 64.5677L224.157 37.2343C224.085 36.6848 224.187 36.23 224.463 35.8701C224.736 35.4812 225.147 35.2507 225.697 35.1785C226.246 35.1064 226.703 35.2229 227.067 35.5282C227.427 35.8046 227.643 36.2176 227.715 36.7672L231.122 62.7122L245.135 60.872C245.656 60.8036 246.078 60.8806 246.402 61.1029C246.725 61.3253 246.919 61.6823 246.984 62.174C247.048 62.6657 246.953 63.0607 246.698 63.359C246.443 63.6573 246.055 63.8407 245.534 63.909L229.698 65.9885Z" fill="#2E353A"/>
<path d="M280.879 60.8675C277.96 60.972 275.412 60.4346 273.235 59.2554C271.058 58.047 269.343 56.2812 268.09 53.958C266.866 51.6046 266.196 48.8074 266.08 45.5664C265.965 42.3547 266.434 39.5459 267.488 37.1402C268.57 34.7041 270.155 32.8202 272.241 31.4885C274.327 30.1275 276.829 29.3947 279.749 29.2902C281.705 29.2202 283.556 29.4755 285.302 30.0562C287.076 30.6066 288.626 31.4428 289.952 32.5647C290.435 32.986 290.687 33.4886 290.708 34.0725C290.723 34.4813 290.619 34.8505 290.397 35.18C290.174 35.4803 289.902 35.6362 289.58 35.6477C289.23 35.6603 288.801 35.5149 288.293 35.2114C286.762 34.0968 285.375 33.3279 284.132 32.9046C282.918 32.4803 281.523 32.2964 279.946 32.3528C276.56 32.4741 273.986 33.6771 272.226 35.962C270.494 38.2166 269.701 41.3731 269.846 45.4316C269.992 49.5193 271.01 52.6402 272.9 54.7945C274.818 56.9184 277.47 57.9198 280.857 57.7986C282.405 57.7432 283.783 57.46 284.993 56.9489C286.202 56.4379 287.531 55.5717 288.978 54.3505C289.463 54.0116 289.881 53.8358 290.231 53.8233C290.552 53.8118 290.835 53.9479 291.079 54.2315C291.323 54.5151 291.453 54.8759 291.468 55.3138C291.489 55.8978 291.274 56.4171 290.822 56.8718C289.58 58.0857 288.094 59.0452 286.365 59.7502C284.664 60.425 282.836 60.7975 280.879 60.8675Z" fill="#2E353A"/>
<path d="M328.195 60.8548C325.332 60.5972 322.892 59.7296 320.875 58.2521C318.887 56.7773 317.43 54.8053 316.503 52.3362C315.577 49.8672 315.258 47.0257 315.547 43.8119C315.839 40.5689 316.647 37.8141 317.97 35.5475C319.325 33.2543 321.111 31.5742 323.327 30.5072C325.576 29.4136 328.146 28.997 331.039 29.2573C333.931 29.5177 336.371 30.3852 338.359 31.8601C340.379 33.3083 341.836 35.2803 342.731 37.776C343.657 40.245 343.976 43.0865 343.687 46.3003C343.397 49.5141 342.575 52.2676 341.22 54.5608C339.868 56.8247 338.067 58.5035 335.819 59.5971C333.599 60.6933 331.058 61.1125 328.195 60.8548ZM328.471 57.7871C331.743 58.0816 334.384 57.2148 336.392 55.1866C338.433 53.1318 339.637 50.0592 340.005 45.969C340.373 41.8787 339.75 38.6564 338.136 36.3021C336.522 33.9479 334.064 32.6222 330.763 32.3251C327.49 32.0306 324.834 32.9107 322.794 34.9655C320.785 36.9937 319.598 40.0383 319.232 44.0994C318.867 48.1605 319.49 51.3827 321.102 53.7662C322.742 56.1523 325.199 57.4926 328.471 57.7871Z" fill="#2E353A"/>
<path d="M404.416 41.2865C404.955 41.4169 405.326 41.6867 405.528 42.0961C405.764 42.484 405.818 42.9477 405.687 43.4873L399.174 70.4527C399.05 70.9639 398.809 71.3414 398.449 71.5852C398.09 71.829 397.655 71.8891 397.143 71.7656C396.632 71.6421 396.287 71.3933 396.106 71.0192C395.926 70.6451 395.898 70.2024 396.021 69.6912L401.28 47.9229L387.755 63.4113C387.158 64.1389 386.477 64.41 385.71 64.2248C384.972 64.0464 384.489 63.494 384.262 62.5675L379.204 42.8159L373.998 64.3712C373.874 64.8824 373.633 65.2599 373.273 65.5037C372.942 65.7543 372.521 65.8179 372.01 65.6944C371.499 65.571 371.139 65.3187 370.93 64.9377C370.722 64.5567 370.679 64.1106 370.803 63.5995L377.316 36.6341C377.447 36.0945 377.706 35.7062 378.094 35.4693C378.488 35.2039 378.955 35.1364 379.495 35.2668C380.205 35.4383 380.674 35.9873 380.901 36.9138L386.71 60.2733L402.413 42.1103C402.75 41.7108 403.067 41.4567 403.364 41.348C403.696 41.2178 404.046 41.1973 404.416 41.2865Z" fill="#2E353A"/>
<path d="M437.349 82.92C436.831 82.7196 436.467 82.4063 436.256 81.98C436.072 81.5643 436.075 81.1112 436.265 80.6208L446.153 55.0772C446.342 54.5868 446.645 54.2497 447.061 54.066C447.504 53.8929 447.984 53.9065 448.502 54.1069L463.787 60.0233C464.278 60.2132 464.612 60.4834 464.789 60.8341C464.967 61.1848 464.971 61.5781 464.802 62.0141C464.634 62.45 464.365 62.7379 463.998 62.8776C463.631 63.0174 463.202 62.9923 462.711 62.8025L449.02 57.503L445.144 67.516L458.018 72.4992C458.509 72.689 458.843 72.9593 459.02 73.31C459.198 73.6606 459.202 74.054 459.033 74.4899C458.865 74.9258 458.597 75.2137 458.229 75.3534C457.862 75.4932 457.433 75.4682 456.942 75.2783L444.069 70.2952L440.019 80.7578L453.71 86.0574C454.201 86.2472 454.535 86.5175 454.712 86.8681C454.9 87.1916 454.905 87.5849 454.725 88.0481C454.557 88.484 454.288 88.7719 453.921 88.9116C453.554 89.0514 453.125 89.0263 452.634 88.8365L437.349 82.92Z" fill="#2E353A"/>
<path d="M425.966 230.883C425.966 230.883 406.455 216.465 397.084 209.409C387.712 202.354 371.653 182.107 367.634 173.211C365.646 168.631 363.414 164.161 360.947 159.821C360.947 159.821 362.803 150.879 362.803 148.67C362.803 146.461 361.008 143.547 359.873 141.676C359.306 140.74 355.272 135.387 355.272 139.467C355.272 142.657 357.189 144.253 357.189 146.17C354.607 144.743 352.48 142.617 351.054 140.035C348.814 135.893 347.864 134.283 346.575 135.249C344.29 136.967 347.219 141.384 347.219 141.384C347.219 141.384 346.575 135.249 343.385 136.261C341.544 136.814 344.029 142.013 345.302 144.253C346.575 146.492 344.658 142.719 344.98 146.492C345.21 149.299 348.416 156.201 351.376 159.591C352.45 160.833 354.95 160.45 355.21 160.879C356.161 162.413 366.392 186.126 373.417 197.952C380.442 209.777 384.614 213.29 390.366 219.042C396.117 224.793 403.787 234.702 410.489 239.487C417.192 244.273 420.72 242.371 424.554 239.165C428.389 235.96 428.956 234.134 425.966 230.883Z" fill="white" stroke="#2E353A" stroke-linecap="round" stroke-linejoin="round"/>
<path d="M357.082 146.154C357.082 146.154 354.198 151.6 355.548 153.824" stroke="#2E353A" stroke-linecap="round" stroke-linejoin="round"/>
<path d="M347.173 141.369L349.735 146.154" stroke="#2E353A" stroke-linecap="round" stroke-linejoin="round"/>
<path d="M350.042 157.029C347.84 154.236 345.914 151.236 344.29 148.072C343.017 144.881 343.983 137.857 345.9 139.13C347.818 140.403 347.173 147.443 347.173 147.443L351.008 151.906" fill="white"/>
<path d="M350.042 157.029C347.84 154.236 345.914 151.236 344.29 148.072C343.017 144.881 343.983 137.857 345.9 139.13C347.818 140.403 347.173 147.443 347.173 147.443L351.008 151.906" stroke="#2E353A" stroke-linecap="round" stroke-linejoin="round"/>
<path d="M430.092 191.034C430.092 191.034 420.291 187.46 422.07 174.975C423.849 162.49 434.555 168.732 434.555 168.732C434.555 168.732 423.818 154.452 445.706 151.339C467.593 148.225 483.637 167.843 488.99 189.684C494.343 211.526 460.431 213.765 465.339 230.284C470.247 246.804 489.435 265.562 486.306 288.278C483.177 310.994 451.964 323.556 437.684 311.469C423.404 299.383 417.606 280.701 425.69 263.706C433.773 246.712 438.175 226.68 440.399 217.692C442.623 208.704 430.092 191.034 430.092 191.034Z" fill="#2E353A" stroke="#2E353A" stroke-linecap="round" stroke-linejoin="round"/>
<path d="M465.185 207.722C451.764 202.354 444.862 180.497 444.862 168.226C444.862 155.956 462.118 162.091 462.118 162.091C462.118 162.091 445.246 165.158 453.682 181.647C462.118 198.136 477.072 203.12 484.742 198.136" stroke="white" stroke-width="0.75" stroke-linecap="round" stroke-linejoin="round"/>
<path d="M462.501 219.609C462.501 219.609 450.614 223.444 454.065 238.398C457.516 253.353 483.975 272.142 476.306 291.315C468.636 310.488 455.216 318.157 439.11 312.405" stroke="white" stroke-width="0.75" stroke-linecap="round" stroke-linejoin="round"/>
<path d="M456.749 222.677C456.749 222.677 443.712 228.045 442.178 247.218C440.644 266.39 456.366 282.879 449.08 292.465C441.795 302.052 429.908 300.901 426.073 295.15" stroke="white" stroke-width="0.75" stroke-linecap="round" stroke-linejoin="round"/>
<path d="M426.978 212.001C426.978 212.001 428.312 216.91 423.91 224.502C419.508 232.094 417.223 233.858 417.223 233.858L433.282 232.524L443.543 213.781C443.543 213.781 427.868 215.13 426.978 212.001Z" fill="white" stroke="#2E353A" stroke-linecap="round" stroke-linejoin="round"/>
<path d="M443.037 170.511C443.037 170.511 427.423 184.791 424.294 197.277C421.165 209.762 425.183 217.799 430.997 217.799C436.81 217.799 448.835 212.891 448.835 212.891C448.835 212.891 452.409 215.959 455.967 214.241C456.986 213.748 457.854 212.992 458.483 212.05C459.111 211.109 459.476 210.017 459.541 208.888C459.541 208.888 435 184.791 443.037 170.511Z" fill="white" stroke="#2E353A" stroke-linecap="round" stroke-linejoin="round"/>
<path d="M436.426 191.939C435.353 193.304 434.064 194.071 433.527 193.657C432.991 193.243 433.42 191.801 434.494 190.436C435.567 189.071 436.856 188.304 437.377 188.718C437.899 189.132 437.485 190.574 436.426 191.939Z" fill="#2E353A"/>
<path d="M443.85 199.715C442.792 201.096 441.488 201.863 440.951 201.449C440.414 201.034 440.859 199.593 441.917 198.228C442.976 196.862 444.279 196.08 444.816 196.494C445.353 196.908 444.908 198.35 443.85 199.715Z" fill="#2E353A"/>
<path d="M435.721 194.853C433.9 195.495 432.148 196.317 430.49 197.307C429.095 198.35 431.533 199.746 431.533 199.746" stroke="#2E353A" stroke-width="0.75" stroke-linecap="round" stroke-linejoin="round"/>
<path d="M427.346 203.228C427.597 204.362 428.21 205.384 429.092 206.14C429.975 206.895 431.079 207.343 432.239 207.415C434.431 207.743 436.666 207.246 438.512 206.019" stroke="#2E353A" stroke-width="0.75" stroke-linecap="round" stroke-linejoin="round"/>
<path d="M436.073 182.997C437.183 182.823 438.316 183.093 439.228 183.747C440.141 184.401 440.759 185.388 440.951 186.494" stroke="#2E353A" stroke-width="0.75" stroke-linecap="round" stroke-linejoin="round"/>
<path d="M444.095 191.724C444.095 191.724 450.016 193.81 448.283 198.35" stroke="#2E353A" stroke-width="0.75" stroke-linecap="round" stroke-linejoin="round"/>
<path d="M385.565 517.078C385.565 517.078 377.313 522.584 374.552 523.949C371.791 525.314 360.119 527.385 359.766 530.483C359.413 533.582 365.61 535.3 372.497 535.3C379.384 535.3 387.62 535.3 391.746 535.99C395.872 536.68 398.633 538.045 400.351 533.582C402.069 529.118 399.308 517.415 399.308 517.415C399.308 517.415 392.099 520.176 385.565 517.078Z" fill="#92E3A9" stroke="#2E353A" stroke-linecap="round" stroke-linejoin="round"/>
<path d="M388.648 394.664C388.648 394.664 383.847 417.011 383.847 424.236C383.847 431.46 386.593 478.226 387.283 491.279C387.617 499.915 387.041 508.562 385.565 517.078C385.565 517.078 391.409 519.823 393.817 519.823C396.225 519.823 399.308 517.415 399.308 517.415C399.308 517.415 406.195 487.153 406.195 471.002C406.195 454.851 407.56 445.556 406.195 435.233C404.83 424.911 400.059 406.014 401.716 399.127C403.373 392.24 393.817 384.341 388.648 394.664Z" fill="#2E353A" stroke="#2E353A" stroke-linecap="round" stroke-linejoin="round"/>
<path d="M388.602 295.916C388.602 295.916 382.743 335.581 382.743 365.015C382.743 394.449 395.243 429.711 398.357 434.62C401.47 439.528 428.696 488.595 434.938 498.856C439.356 506.636 443.013 514.824 445.859 523.305C448.037 523.975 450.278 524.422 452.547 524.64C454.786 524.64 457.9 521.971 457.9 521.971C457.9 521.971 443.42 465.388 437.623 450.679C431.825 435.969 419.83 424.358 416.717 418.622C413.603 412.885 412.253 390.507 412.253 390.507C412.253 390.507 430.536 361.518 433.727 345.904C436.917 330.289 428.312 312.788 424.739 306.653C422.403 302.471 420.318 298.153 418.496 293.723C418.496 293.723 399.768 304.797 388.602 295.916Z" fill="#2E353A" stroke="#2E353A" stroke-linecap="round" stroke-linejoin="round"/>
<path d="M422.515 279.811C422.515 279.811 433.665 245.469 436.319 237.432C438.972 229.395 434.969 226.281 422.929 227.616C410.888 228.95 389.921 238.352 389.031 248.583C388.142 258.813 392.099 264.642 392.099 269.55C392.099 274.458 385.043 295.917 390.412 300.334C395.78 304.751 412.713 303.402 417.622 297.266C422.53 291.131 422.515 279.811 422.515 279.811Z" fill="#92E3A9" stroke="#2E353A" stroke-linecap="round" stroke-linejoin="round"/>
<path d="M425.966 230.883C426.612 236.494 425.23 242.152 422.07 246.834C416.717 255.301 404.676 252.187 405.566 242.816C406.455 233.444 417.806 225.668 425.966 230.883Z" fill="white" stroke="#2E353A" stroke-linecap="round" stroke-linejoin="round"/>
<path d="M418.358 244.165C419.809 243.934 421.19 243.381 422.401 242.548C423.611 241.715 424.621 240.623 425.355 239.35C426.09 238.078 426.532 236.657 426.648 235.192C426.764 233.727 426.552 232.255 426.027 230.883C425.695 229.936 425.118 229.094 424.356 228.443C423.594 227.791 422.673 227.352 421.686 227.171C414.017 225.836 380.641 228.505 372.159 227.616C363.677 226.726 331.574 207.093 323.077 199.516C314.58 191.939 311.481 187.92 311.481 184.791C311.481 181.662 309.242 174.53 307.463 172.306C305.684 170.082 302.555 165.603 302.555 165.603C302.555 165.603 299.487 165.603 299.886 167.398C300.612 169.401 301.505 171.341 302.555 173.196C302.555 173.196 293.628 167.843 291.404 165.527C291.18 165.218 290.895 164.96 290.566 164.768C290.237 164.577 289.871 164.456 289.493 164.414C289.114 164.373 288.731 164.41 288.368 164.525C288.005 164.64 287.671 164.83 287.385 165.082L292.293 170.435C292.293 170.435 291.849 174.009 295.361 179.806C298.018 183.767 301.339 187.238 305.177 190.068C305.177 190.068 323.016 211.035 336.406 222.631C349.796 234.226 362.266 241.374 373.432 243.153C383.279 244.81 398.648 247.77 418.358 244.165Z" fill="white" stroke="#2E353A" stroke-linecap="round" stroke-linejoin="round"/>
<path d="M445.921 523.305C445.921 523.305 438.865 530.836 434.049 533.919C429.233 537.002 423.036 539.088 424.079 541.834C425.122 544.579 437.883 544.242 444.019 543.889C450.154 543.536 462.578 537.754 464.649 536.327C466.719 534.901 457.961 521.971 457.961 521.971C457.961 521.971 451.258 525.744 445.921 523.305Z" fill="#92E3A9" stroke="#2E353A" stroke-linecap="round" stroke-linejoin="round"/>
<path d="M444.095 543.889C450.231 543.552 462.655 537.754 464.725 536.327C465.293 535.944 465.017 534.655 464.342 533.014C457.357 536.477 449.983 539.093 442.378 540.806C432.316 542.953 426.61 541.941 424.048 541.128C424.04 541.368 424.077 541.607 424.156 541.834C425.107 544.579 437.822 544.242 444.095 543.889Z" fill="#2E353A" stroke="#2E353A" stroke-linecap="round" stroke-linejoin="round"/>
<path d="M400.351 533.658C400.658 532.748 400.828 531.797 400.857 530.836C398.127 533.045 396.148 532.002 391.746 532.278C386.24 532.631 384.184 532.631 372.834 532.631C368.391 532.741 363.967 532.007 359.797 530.468C359.803 530.498 359.803 530.53 359.797 530.56C359.459 533.628 365.641 535.376 372.527 535.376C379.414 535.376 387.651 535.376 391.777 536.067C395.903 536.757 398.633 538.045 400.351 533.658Z" fill="#2E353A" stroke="#2E353A" stroke-linecap="round" stroke-linejoin="round"/>
<path d="M412.253 390.446C412.253 390.446 413.526 369.218 415.873 365.015C418.22 360.812 423.803 355.214 427.53 351.947" stroke="white" stroke-width="0.75" stroke-linecap="round" stroke-linejoin="round"/>
</svg>
