<svg width="580" height="589" viewBox="0 0 580 589" fill="none" xmlns="http://www.w3.org/2000/svg">
<path d="M91.0318 156.147H500.754C503.738 156.147 506.599 157.333 508.709 159.442C510.819 161.552 512.004 164.413 512.004 167.397V452.321H79.7821V167.415C79.7798 165.936 80.0691 164.471 80.6334 163.104C81.1977 161.737 82.026 160.495 83.0709 159.449C84.1157 158.402 85.3567 157.572 86.7227 157.005C88.0887 156.439 89.553 156.147 91.0318 156.147Z" fill="#263238"/>
<path d="M512.897 453.197H78.9059V167.415C78.9059 164.197 80.1829 161.111 82.4564 158.834C84.73 156.557 87.8142 155.276 91.0318 155.271H500.754C503.973 155.276 507.059 156.557 509.336 158.833C511.612 161.109 512.893 164.195 512.897 167.415V453.197ZM80.6582 451.445H511.145V167.415C511.141 164.66 510.044 162.02 508.097 160.072C506.149 158.124 503.509 157.028 500.754 157.024H91.0318C88.279 157.028 85.6404 158.125 83.6955 160.073C81.7506 162.021 80.6582 164.662 80.6582 167.415V451.445Z" fill="#263238"/>
<path d="M563.994 588.124H27.7914C21.8686 588.124 16.8745 579.625 19.503 574.316L79.782 457.21H512.021L572.616 573.913C575.262 579.205 570.005 588.124 563.994 588.124Z" fill="#263238"/>
<path d="M563.995 589H27.7914C26.1304 588.895 24.5235 588.368 23.1224 587.47C21.7212 586.572 20.5721 585.331 19.7834 583.866C18.7893 582.431 18.1678 580.772 17.9751 579.038C17.7823 577.303 18.0244 575.548 18.6795 573.93L79.2039 456.333H512.547L512.792 456.789L573.387 573.51C574.038 575.164 574.267 576.955 574.053 578.72C573.839 580.485 573.188 582.169 572.16 583.62C571.351 585.123 570.181 586.402 568.756 587.341C567.331 588.279 565.695 588.85 563.995 589ZM80.3604 458.086L20.2741 574.754C19.7552 576.103 19.5781 577.559 19.7585 578.993C19.9389 580.427 20.4712 581.794 21.3079 582.972C21.9456 584.172 22.8722 585.195 24.0042 585.948C25.1362 586.7 26.4378 587.159 27.7914 587.283H563.995C565.397 587.133 566.74 586.638 567.905 585.843C569.07 585.048 570.02 583.978 570.671 582.727C571.534 581.528 572.091 580.137 572.293 578.674C572.495 577.211 572.335 575.72 571.827 574.333L511.478 458.086H80.3604Z" fill="#263238"/>
<path d="M563.995 583.235H27.7914C26.4344 583.236 25.0996 582.89 23.9134 582.231C22.7272 581.572 21.7289 580.621 21.013 579.468C20.2971 578.315 19.8873 576.999 19.8224 575.643C19.7574 574.288 20.0396 572.938 20.642 571.722L79.7821 452.321H512.021L571.144 571.722C571.746 572.938 572.028 574.288 571.964 575.643C571.899 576.999 571.489 578.315 570.773 579.468C570.057 580.621 569.059 581.572 567.872 582.231C566.686 582.89 565.352 583.236 563.995 583.235Z" fill="white"/>
<path d="M563.994 584.111H27.7914C26.2795 584.124 24.7895 583.75 23.4635 583.024C22.1374 582.297 21.0195 581.243 20.2165 579.962C19.4134 578.681 18.952 577.216 18.8762 575.706C18.8004 574.196 19.1127 572.692 19.7834 571.337L78.9234 451.935C78.9922 451.785 79.1036 451.659 79.2438 451.571C79.3841 451.484 79.5469 451.44 79.7119 451.445H512.021C512.184 451.441 512.344 451.486 512.481 451.573C512.618 451.661 512.727 451.787 512.792 451.935L571.932 571.337C572.6 572.687 572.913 574.184 572.84 575.689C572.768 577.193 572.312 578.653 571.518 579.933C570.723 581.212 569.615 582.267 568.298 582.998C566.982 583.729 565.5 584.112 563.994 584.111ZM80.3603 453.197L21.4305 572.108C20.8936 573.19 20.6418 574.392 20.6991 575.598C20.7563 576.805 21.1207 577.977 21.7577 579.004C22.3947 580.03 23.2832 580.877 24.3391 581.464C25.395 582.052 26.5832 582.359 27.7914 582.359H563.994C565.203 582.359 566.391 582.052 567.447 581.464C568.503 580.877 569.391 580.03 570.028 579.004C570.665 577.977 571.029 576.805 571.087 575.598C571.144 574.392 570.892 573.19 570.355 572.108L511.478 453.197H80.3603Z" fill="#263238"/>
<path d="M485.842 179.593H105.961V428.857H485.842V179.593Z" fill="white"/>
<path d="M486.701 429.734H105.085V178.734H486.701V429.734ZM106.838 427.981H484.948V180.487H106.838V427.981Z" fill="#263238"/>
<path d="M477.361 293.195H115.827V419.886H477.361V293.195Z" fill="#92E3A9"/>
<path opacity="0.46" d="M162.035 369.384V366.23C162.035 365.766 161.85 365.32 161.522 364.991C161.193 364.663 160.747 364.478 160.283 364.478H157.864C157.497 362.871 156.863 361.337 155.989 359.94L157.742 358.187C158.047 357.862 158.217 357.433 158.217 356.987C158.217 356.541 158.047 356.112 157.742 355.787L155.481 353.526C155.155 353.215 154.722 353.042 154.272 353.042C153.822 353.042 153.389 353.215 153.063 353.526L151.311 355.278C149.908 354.402 148.368 353.768 146.755 353.403V350.933C146.755 350.468 146.57 350.022 146.242 349.694C145.913 349.365 145.467 349.18 145.003 349.18H141.813C141.349 349.18 140.903 349.365 140.574 349.694C140.246 350.022 140.061 350.468 140.061 350.933V353.403C138.454 353.771 136.92 354.405 135.523 355.278L133.77 353.526C133.445 353.221 133.016 353.05 132.57 353.05C132.124 353.05 131.695 353.221 131.37 353.526L129.197 355.717C128.891 356.041 128.721 356.471 128.721 356.917C128.721 357.363 128.891 357.792 129.197 358.117L130.949 359.869C130.076 361.267 129.442 362.801 129.074 364.408H126.674C126.209 364.408 125.763 364.593 125.434 364.921C125.106 365.25 124.921 365.695 124.921 366.16V369.349C124.921 369.814 125.106 370.26 125.434 370.588C125.763 370.917 126.209 371.102 126.674 371.102H129.144C129.509 372.715 130.143 374.255 131.019 375.658L129.267 377.41C128.961 377.735 128.791 378.164 128.791 378.61C128.791 379.056 128.961 379.486 129.267 379.811L131.527 382.071C131.852 382.377 132.282 382.547 132.728 382.547C133.174 382.547 133.603 382.377 133.928 382.071L135.68 380.319C137.078 381.192 138.612 381.826 140.219 382.194V384.664C140.219 385.129 140.403 385.575 140.732 385.904C141.061 386.232 141.506 386.417 141.971 386.417H145.16C145.625 386.417 146.071 386.232 146.399 385.904C146.728 385.575 146.913 385.129 146.913 384.664V382.194C148.526 381.829 150.066 381.195 151.469 380.319L153.221 382.071C153.547 382.382 153.98 382.555 154.43 382.555C154.88 382.555 155.313 382.382 155.639 382.071L157.9 379.811C158.205 379.486 158.375 379.056 158.375 378.61C158.375 378.164 158.205 377.735 157.9 377.41L156.147 375.658C157.024 374.255 157.658 372.715 158.022 371.102H160.493C160.914 371.051 161.303 370.849 161.587 370.533C161.87 370.217 162.029 369.809 162.035 369.384ZM144.197 374.992C142.7 375.143 141.193 374.828 139.882 374.089C138.572 373.35 137.522 372.224 136.877 370.865C136.232 369.506 136.023 367.98 136.279 366.498C136.536 365.015 137.244 363.649 138.308 362.585C139.372 361.521 140.739 360.812 142.221 360.556C143.704 360.3 145.229 360.509 146.588 361.154C147.947 361.799 149.073 362.849 149.812 364.159C150.551 365.469 150.867 366.976 150.715 368.473C150.546 370.144 149.805 371.706 148.617 372.894C147.429 374.082 145.868 374.823 144.197 374.992Z" fill="white"/>
<path opacity="0.46" d="M192.122 391.726V388.537C192.122 388.072 191.937 387.627 191.609 387.298C191.28 386.969 190.834 386.785 190.37 386.785H188.004C187.633 385.171 186.994 383.63 186.112 382.229L187.864 380.476C188.174 380.151 188.348 379.718 188.348 379.267C188.348 378.817 188.174 378.384 187.864 378.058L185.603 375.798C185.277 375.487 184.844 375.314 184.394 375.314C183.944 375.314 183.511 375.487 183.185 375.798L181.433 377.55C180.029 376.677 178.489 376.043 176.877 375.675V373.239C176.877 372.775 176.692 372.329 176.364 372C176.035 371.672 175.589 371.487 175.125 371.487H171.918C171.453 371.487 171.007 371.672 170.679 372C170.35 372.329 170.166 372.775 170.166 373.239V375.71C168.553 376.078 167.014 376.712 165.61 377.585L163.857 375.833C163.531 375.522 163.098 375.349 162.648 375.349C162.198 375.349 161.765 375.522 161.439 375.833L159.179 378.093C158.868 378.419 158.695 378.852 158.695 379.302C158.695 379.753 158.868 380.186 159.179 380.512L160.931 382.264C160.042 383.662 159.401 385.203 159.039 386.82H156.585C156.121 386.82 155.675 387.004 155.346 387.333C155.018 387.662 154.833 388.107 154.833 388.572V391.761C154.833 392.226 155.018 392.672 155.346 393C155.675 393.329 156.121 393.514 156.585 393.514H159.039C159.402 395.125 160.042 396.66 160.931 398.052L159.179 399.804C158.868 400.13 158.695 400.563 158.695 401.013C158.695 401.464 158.868 401.897 159.179 402.222L161.439 404.465C161.765 404.776 162.198 404.949 162.648 404.949C163.098 404.949 163.531 404.776 163.857 404.465L165.61 402.713C167.014 403.587 168.553 404.22 170.166 404.588V407.059C170.166 407.524 170.35 407.969 170.679 408.298C171.007 408.627 171.453 408.811 171.918 408.811H175.125C175.589 408.811 176.035 408.627 176.364 408.298C176.692 407.969 176.877 407.524 176.877 407.059V404.588C178.489 404.22 180.029 403.587 181.433 402.713L183.185 404.465C183.511 404.776 183.944 404.949 184.394 404.949C184.844 404.949 185.277 404.776 185.603 404.465L187.864 402.222C188.174 401.897 188.348 401.464 188.348 401.013C188.348 400.563 188.174 400.13 187.864 399.804L186.112 398.052C186.994 396.657 187.633 395.122 188.004 393.514H190.457C190.913 393.491 191.341 393.291 191.652 392.958C191.963 392.624 192.132 392.182 192.122 391.726ZM174.283 397.404C172.782 397.559 171.27 397.245 169.954 396.505C168.638 395.766 167.584 394.637 166.935 393.275C166.287 391.912 166.076 390.382 166.333 388.894C166.589 387.407 167.299 386.035 168.367 384.968C169.434 383.901 170.805 383.191 172.293 382.934C173.78 382.678 175.31 382.888 176.673 383.537C178.036 384.185 179.165 385.24 179.904 386.556C180.643 387.871 180.957 389.384 180.802 390.885C180.63 392.555 179.888 394.115 178.7 395.302C177.513 396.489 175.954 397.231 174.283 397.404Z" fill="white"/>
<path d="M195.539 305.391H130.003C129.803 305.391 129.611 305.311 129.47 305.17C129.329 305.029 129.249 304.837 129.249 304.637C129.249 304.436 129.328 304.242 129.469 304.098C129.61 303.954 129.801 303.871 130.003 303.866H195.539C195.743 303.866 195.939 303.947 196.084 304.092C196.229 304.237 196.31 304.433 196.31 304.637C196.305 304.839 196.222 305.03 196.078 305.171C195.934 305.312 195.74 305.391 195.539 305.391Z" fill="#263238"/>
<path d="M195.539 314.853H130.003C129.801 314.848 129.61 314.765 129.469 314.621C129.328 314.477 129.249 314.283 129.249 314.082C129.249 313.882 129.329 313.69 129.47 313.549C129.611 313.408 129.803 313.328 130.003 313.328H195.539C195.74 313.328 195.934 313.407 196.078 313.548C196.222 313.689 196.305 313.881 196.31 314.082C196.31 314.286 196.229 314.483 196.084 314.627C195.939 314.772 195.743 314.853 195.539 314.853Z" fill="#263238"/>
<path d="M195.539 324.298H130.003C129.803 324.298 129.611 324.219 129.47 324.077C129.329 323.936 129.249 323.744 129.249 323.544C129.249 323.343 129.328 323.149 129.469 323.005C129.61 322.861 129.801 322.778 130.003 322.773H195.539C195.743 322.773 195.939 322.855 196.084 322.999C196.229 323.144 196.31 323.34 196.31 323.544C196.305 323.746 196.222 323.937 196.078 324.078C195.934 324.219 195.74 324.298 195.539 324.298Z" fill="#263238"/>
<path d="M195.539 333.76H130.003C129.801 333.756 129.61 333.673 129.469 333.528C129.328 333.384 129.249 333.191 129.249 332.989C129.249 332.789 129.329 332.598 129.47 332.457C129.611 332.315 129.803 332.236 130.003 332.236H195.539C195.74 332.236 195.934 332.315 196.078 332.455C196.222 332.596 196.305 332.788 196.31 332.989C196.31 333.194 196.229 333.39 196.084 333.535C195.939 333.679 195.743 333.76 195.539 333.76Z" fill="#263238"/>
<path d="M470.422 191.351H122.766C118.934 191.351 115.827 194.458 115.827 198.29V199.079C115.827 202.911 118.934 206.018 122.766 206.018H470.422C474.254 206.018 477.361 202.911 477.361 199.079V198.29C477.361 194.458 474.254 191.351 470.422 191.351Z" fill="#92E3A9"/>
<path d="M470.422 239.714H122.766C118.934 239.714 115.827 242.821 115.827 246.654V247.442C115.827 251.274 118.934 254.381 122.766 254.381H470.422C474.254 254.381 477.361 251.274 477.361 247.442V246.654C477.361 242.821 474.254 239.714 470.422 239.714Z" fill="#92E3A9"/>
<path d="M277.862 493.763L278.615 477.799H255.783L254.258 493.763H277.862Z" fill="#263238"/>
<path d="M278.703 494.639H253.295L255.047 476.923H279.579L278.703 494.639ZM255.222 492.886H277.021L277.704 478.675H256.571L255.222 492.886Z" fill="white"/>
<path d="M325.069 493.763L324.298 477.799H301.448L301.465 493.763H325.069Z" fill="#263238"/>
<path d="M325.997 494.639H300.589V476.923H325.121L325.997 494.639ZM302.341 492.886H324.14L323.457 478.675H302.324L302.341 492.886Z" fill="white"/>
<path d="M447.992 510.812H472.419L466.689 493.763H443.086L447.992 510.812Z" fill="#263238"/>
<path d="M473.628 511.671H447.344L441.912 492.869H467.32L473.628 511.671ZM448.658 509.919H471.193L466.059 494.621H444.242L448.658 509.919Z" fill="white"/>
<path d="M254.258 493.763L255.783 477.799H232.933L230.655 493.763H254.258Z" fill="#263238"/>
<path d="M255.064 494.639H229.656L232.179 476.923H256.712L255.064 494.639ZM231.671 492.886H253.47L254.819 478.675H233.791L231.671 492.886Z" fill="white"/>
<path d="M207.051 493.763L210.1 477.799H187.251L183.448 493.763H207.051Z" fill="#263238"/>
<path d="M207.787 494.639H182.344L186.567 476.923H211.099L207.787 494.639ZM184.569 492.886H206.333L209.032 478.675H188.004L184.569 492.886Z" fill="white"/>
<path d="M419.483 493.763L415.645 477.799H392.813L395.879 493.763H419.483Z" fill="#263238"/>
<path d="M420.586 494.639H395.143L391.744 476.923H416.276L420.586 494.639ZM396.597 492.886H418.361L414.962 478.675H393.934L396.597 492.886Z" fill="white"/>
<path d="M443.086 493.763L438.477 477.799H415.645L419.482 493.763H443.086Z" fill="#263238"/>
<path d="M444.242 494.639H418.782L414.541 476.923H439.073L444.242 494.639ZM420.166 492.886H441.912L437.829 478.675H416.801L420.166 492.886Z" fill="white"/>
<path d="M183.448 493.763L187.251 477.799H164.418L159.845 493.763H183.448Z" fill="#263238"/>
<path d="M184.149 494.639H158.688L163.752 476.923H188.372L184.149 494.639ZM161.019 492.886H182.747L186.129 478.675H165.101L161.019 492.886Z" fill="white"/>
<path d="M348.672 493.763L347.13 477.799H324.298L325.069 493.763H348.672Z" fill="#263238"/>
<path d="M349.636 494.639H324.228L323.369 476.923H347.901L349.636 494.639ZM325.91 492.886H347.708L346.342 478.675H325.209L325.91 492.886Z" fill="white"/>
<path d="M466.689 493.763L461.327 477.799H438.477L443.086 493.763H466.689Z" fill="#263238"/>
<path d="M467.899 494.639H442.42L437.321 476.923H461.958L467.899 494.639ZM443.734 492.886H465.463L460.697 478.675H439.669L443.734 492.886Z" fill="white"/>
<path d="M395.879 493.763L392.813 477.799H369.963L372.276 493.763H395.879Z" fill="#263238"/>
<path d="M396.93 494.639H371.522L368.964 476.923H393.496L396.93 494.639ZM373.029 492.886H394.775L392.042 478.675H371.014L373.029 492.886Z" fill="white"/>
<path d="M372.276 493.763L369.963 477.799H347.13L348.672 493.763H372.276Z" fill="#263238"/>
<path d="M373.292 494.639H347.884L346.131 476.923H370.664L373.292 494.639ZM349.461 492.886H371.259L369.209 478.675H348.094L349.461 492.886Z" fill="white"/>
<path d="M301.465 493.763L301.448 477.799H278.615L277.862 493.763H301.465Z" fill="#263238"/>
<path d="M302.341 494.639H276.951L277.774 476.923H302.306L302.341 494.639ZM278.79 492.886H300.589V478.675H279.456L278.79 492.886Z" fill="white"/>
<path d="M136.259 493.763H112.655L106.137 510.812H130.546L136.259 493.763Z" fill="#263238"/>
<path d="M131.177 511.671H104.893L112.077 492.869H137.503L131.177 511.671ZM107.398 509.919H129.915L135.032 494.621H113.251L107.398 509.919Z" fill="white"/>
<path d="M141.586 477.799H118.736L112.655 493.763H136.259L141.586 477.799Z" fill="#263238"/>
<path d="M136.872 494.639H111.376L118.14 476.923H142.795L136.872 494.639ZM113.917 492.886H135.61L140.359 478.675H119.331L113.917 492.886Z" fill="white"/>
<path d="M159.845 493.763L164.418 477.799H141.586L136.259 493.763H159.845Z" fill="#263238"/>
<path d="M160.51 494.639H135.032L140.955 476.923H165.487L160.51 494.639ZM137.468 492.886H159.196L163.262 478.675H142.234L137.468 492.886Z" fill="white"/>
<path d="M99.1449 529.089L91.6451 548.732H117.877L124.448 529.089H99.1449Z" fill="#263238"/>
<path d="M118.508 549.608H90.366L98.6368 528.213H125.745L118.508 549.608ZM92.9068 547.856H117.246L123.169 529.965H99.7583L92.9068 547.856Z" fill="white"/>
<path d="M130.546 510.812H106.137L99.145 529.089H124.448L130.546 510.812Z" fill="#263238"/>
<path d="M125.079 529.965H97.8658L105.523 509.919H131.808L125.079 529.965ZM100.424 528.213H123.817L129.337 511.689H106.732L100.424 528.213Z" fill="white"/>
<path d="M124.448 529.089L117.877 548.732H144.109L149.734 529.089H124.448Z" fill="#263238"/>
<path d="M144.775 549.608H116.738L123.887 528.213H150.96L144.775 549.608ZM119.086 547.856H143.443L148.577 529.965H125.079L119.086 547.856Z" fill="white"/>
<path d="M230.655 493.763L232.933 477.799H210.101L207.052 493.763H230.655Z" fill="#263238"/>
<path d="M231.426 494.639H206L209.364 476.923H233.897L231.426 494.639ZM208.12 492.886H229.901L231.917 478.675H210.784L208.12 492.886Z" fill="white"/>
<path d="M228.219 510.812L230.655 493.763H207.051L203.81 510.812H228.219Z" fill="#263238"/>
<path d="M228.99 511.671H202.706L206.298 492.869H231.636L228.99 511.671ZM204.861 509.919H227.466L229.656 494.621H207.787L204.861 509.919Z" fill="white"/>
<path d="M203.81 510.812L207.051 493.763H183.448L179.383 510.812H203.81Z" fill="#263238"/>
<path d="M204.528 511.671H178.244L182.747 492.886H208.103L204.528 511.671ZM180.504 509.919H203.074L206 494.621H184.149L180.504 509.919Z" fill="white"/>
<path d="M252.646 510.812L254.258 493.763H230.655L228.219 510.812H252.646Z" fill="#263238"/>
<path d="M253.435 511.671H227.15L229.831 492.869H255.152L253.435 511.671ZM229.236 509.919H251.84L253.295 494.621H231.426L229.236 509.919Z" fill="white"/>
<path d="M159.845 493.763H136.259L130.546 510.812H154.973L159.845 493.763Z" fill="#263238"/>
<path d="M155.621 511.671H129.337L135.61 492.869H161.019L155.621 511.671ZM131.773 509.919H154.307L158.688 494.621H136.872L131.773 509.919Z" fill="white"/>
<path d="M453.267 529.089H478.553L472.419 510.812H447.992L453.267 529.089Z" fill="#263238"/>
<path d="M479.779 529.965H452.601L446.836 509.919H473.12L479.779 529.965ZM453.915 528.213H477.343L471.876 511.671H449.096L453.915 528.213Z" fill="white"/>
<path d="M179.383 510.812L183.448 493.763H159.845L154.973 510.812H179.383Z" fill="#263238"/>
<path d="M180.084 511.671H153.799L159.196 492.869H184.499L180.084 511.671ZM156.13 509.919H178.699L182.344 494.621H160.51L156.13 509.919Z" fill="white"/>
<path d="M130.546 510.812L124.448 529.089H149.734L154.973 510.812H130.546Z" fill="#263238"/>
<path d="M150.4 529.965H123.169L129.915 509.919H156.2L150.4 529.965ZM125.657 528.213H149.068L153.799 511.689H131.177L125.657 528.213Z" fill="white"/>
<path d="M399.156 510.812L395.879 493.763H372.276L374.746 510.812H399.156Z" fill="#263238"/>
<path d="M400.225 511.671H373.94L371.224 492.869H396.527L400.225 511.671ZM375.5 509.919H398.104L395.143 494.621H373.292L375.5 509.919Z" fill="white"/>
<path d="M374.746 510.812L372.276 493.763H348.672L350.319 510.812H374.746Z" fill="#263238"/>
<path d="M375.745 511.671H349.461L347.708 492.869H373.029L375.745 511.671ZM351.108 509.919H373.748L371.54 494.621H349.636L351.108 509.919Z" fill="white"/>
<path d="M447.992 510.812L443.086 493.763H419.483L423.583 510.812H447.992Z" fill="#263238"/>
<path d="M449.096 511.671H422.812L418.291 492.869H443.664L449.096 511.671ZM424.196 509.919H446.766L442.35 494.621H420.586L424.196 509.919Z" fill="white"/>
<path d="M301.483 510.812L301.465 493.763H277.862L277.056 510.812H301.483Z" fill="#263238"/>
<path d="M302.359 511.671H276.074L276.951 492.869H302.271L302.359 511.671ZM277.984 509.919H300.607V494.621H278.703L277.984 509.919Z" fill="white"/>
<path d="M350.319 510.812L348.672 493.763H325.069L325.892 510.812H350.319Z" fill="#263238"/>
<path d="M351.283 511.671H324.999L324.07 492.869H349.391L351.283 511.671ZM326.751 509.919H349.373L347.901 494.621H325.997L326.751 509.919Z" fill="white"/>
<path d="M325.892 510.812L325.069 493.763H301.465L301.483 510.812H325.892Z" fill="#263238"/>
<path d="M326.821 511.671H300.537V492.886H325.91L326.821 511.671ZM302.289 509.919H324.911L324.158 494.621H302.341L302.289 509.919Z" fill="white"/>
<path d="M277.056 510.812L277.862 493.763H254.258L252.646 510.812H277.056Z" fill="#263238"/>
<path d="M277.897 511.671H251.612L253.365 492.869H278.685L277.897 511.671ZM253.61 509.919H276.232L276.951 494.621H255.064L253.61 509.919Z" fill="white"/>
<path d="M350.319 510.812L352.089 529.089H377.375L374.746 510.812H350.319Z" fill="#263238"/>
<path d="M378.391 529.965H351.283L349.356 509.919H375.5L378.391 529.965ZM352.878 528.213H376.376L373.975 511.671H351.283L352.878 528.213Z" fill="white"/>
<path d="M374.746 510.812L377.375 529.089H402.678L399.156 510.812H374.746Z" fill="#263238"/>
<path d="M403.729 529.965H376.621L373.748 509.919H399.892L403.729 529.965ZM378.146 528.213H401.609L398.437 511.671H375.745L378.146 528.213Z" fill="white"/>
<path d="M154.973 510.812L149.734 529.089H175.019L179.383 510.812H154.973Z" fill="#263238"/>
<path d="M175.738 529.965H148.577L154.307 509.919H180.504L175.738 529.965ZM150.908 528.213H174.336L178.279 511.689H155.622L150.908 528.213Z" fill="white"/>
<path d="M399.156 510.812L402.678 529.089H427.964L423.583 510.812H399.156Z" fill="#263238"/>
<path d="M429.085 529.965H401.96L398.104 509.919H424.266L429.085 529.965ZM403.396 528.213H426.86L422.812 511.671H400.225L403.396 528.213Z" fill="white"/>
<path d="M301.483 510.812L301.5 529.089H326.786L325.892 510.812H301.483Z" fill="#263238"/>
<path d="M327.715 529.965H300.624V509.919H326.751L327.715 529.965ZM302.376 528.213H325.875L325.069 511.689H302.289L302.376 528.213Z" fill="white"/>
<path d="M423.583 510.812L427.964 529.089H453.267L447.992 510.812H423.583Z" fill="#263238"/>
<path d="M454.353 529.965H427.28L422.461 509.919H448.658L454.353 529.965ZM428.594 528.213H452.023L447.344 511.671H424.687L428.594 528.213Z" fill="white"/>
<path d="M325.892 510.812L326.786 529.089H352.089L350.319 510.812H325.892Z" fill="#263238"/>
<path d="M353.053 529.965H325.962L324.981 509.919H351.108L353.053 529.965ZM327.627 528.213H351.125L349.531 511.689H326.751L327.627 528.213Z" fill="white"/>
<path d="M203.81 510.812L200.323 529.089H225.626L228.219 510.812H203.81Z" fill="#263238"/>
<path d="M226.379 529.965H199.271L203.074 509.919H229.235L226.379 529.965ZM201.374 528.213H224.802L227.168 511.689H204.528L201.374 528.213Z" fill="white"/>
<path d="M179.383 510.812L175.019 529.089H200.323L203.81 510.812H179.383Z" fill="#263238"/>
<path d="M201.041 529.965H173.986L178.699 509.919H204.861L201.041 529.965ZM176.141 528.213H199.604L202.741 511.689H180.084L176.141 528.213Z" fill="white"/>
<path d="M277.056 510.812L276.215 529.089H301.5L301.483 510.812H277.056Z" fill="#263238"/>
<path d="M302.376 529.965H275.286L276.232 509.936H302.359L302.376 529.965ZM277.126 528.213H300.624V511.671H277.844L277.126 528.213Z" fill="white"/>
<path d="M252.646 510.812L250.911 529.089H276.215L277.056 510.812H252.646Z" fill="#263238"/>
<path d="M277.038 529.965H249.948L251.84 509.919H277.984L277.038 529.965ZM251.875 528.213H275.374L276.145 511.689H253.365L251.875 528.213Z" fill="white"/>
<path d="M228.219 510.812L225.626 529.089H250.911L252.646 510.812H228.219Z" fill="#263238"/>
<path d="M251.7 529.965H224.609L227.466 509.919H253.61L251.7 529.965ZM226.625 528.213H250.105L251.682 511.689H228.903L226.625 528.213Z" fill="white"/>
<path d="M423.583 510.812L419.483 493.763H395.879L399.156 510.812H423.583Z" fill="#263238"/>
<path d="M424.687 511.671H398.402L394.775 492.886H420.131L424.687 511.671ZM399.874 509.919H422.461L418.782 494.621H396.93L399.874 509.919Z" fill="white"/>
<path d="M141.586 477.799L147.035 461.468H124.974L118.736 477.799H141.586Z" fill="#263238"/>
<path d="M142.216 478.675H117.474L124.378 460.592H148.262L142.216 478.675ZM120.015 476.923H141.042L145.914 462.344H125.587L120.015 476.923Z" fill="white"/>
<path d="M118.736 477.799H97.6555L90.8566 493.763H112.655L118.736 477.799Z" fill="#263238"/>
<path d="M113.251 494.639H89.5424L97.0773 476.923H120.015L113.251 494.639ZM92.2234 492.886H112.077L117.509 478.675H98.2338L92.2234 492.886Z" fill="white"/>
<path d="M124.974 461.468H104.612L97.6555 477.799H118.736L124.974 461.468Z" fill="#263238"/>
<path d="M119.349 478.675H96.3413L104.034 460.592H126.253L119.349 478.675ZM98.9873 476.923H118.14L123.712 462.344H105.208L98.9873 476.923Z" fill="white"/>
<path d="M112.655 493.763H90.8566L83.5846 510.812H106.137L112.655 493.763Z" fill="#263238"/>
<path d="M106.732 511.671H82.2003L90.2083 492.869H113.847L106.732 511.671ZM84.9163 509.919H105.523L111.376 494.621H91.4349L84.9163 509.919Z" fill="white"/>
<path d="M106.137 510.812H83.5846L75.8044 529.089H99.145L106.137 510.812Z" fill="#263238"/>
<path d="M99.7583 529.965H74.4726L83.0063 509.919H107.398L99.7583 529.965ZM77.1186 528.213H98.6368L104.945 511.689H84.1628L77.1186 528.213Z" fill="white"/>
<path d="M99.145 529.089H75.8044L67.4284 548.732H91.6451L99.145 529.089Z" fill="#263238"/>
<path d="M92.2409 549.608H66.0966L75.2261 528.213H100.389L92.2409 549.608ZM68.7601 547.856H91.0318L97.8658 529.965H76.3826L68.7601 547.856Z" fill="white"/>
<path d="M490.293 493.763L496.829 510.812H518.435L511.163 493.763H490.293Z" fill="#263238"/>
<path d="M519.766 511.671H496.233L489.014 492.869H511.794L519.766 511.671ZM497.442 509.919H517.103L510.584 494.621H491.554L497.442 509.919Z" fill="white"/>
<path d="M503.856 529.089H526.233L518.435 510.812H496.829L503.856 529.089Z" fill="#263238"/>
<path d="M527.547 529.965H503.242L495.567 509.919H519.013L527.547 529.965ZM504.451 528.213H524.901L517.892 511.689H498.161L504.451 528.213Z" fill="white"/>
<path d="M511.391 548.732H534.591L526.233 529.089H503.856L511.391 548.732Z" fill="#263238"/>
<path d="M535.923 549.608H510.795L502.576 528.213H526.811L535.923 549.608ZM511.986 547.856H533.207L525.584 529.965H505.17L511.986 547.856Z" fill="white"/>
<path d="M324.298 477.799L323.492 461.468H301.43L301.448 477.799H324.298Z" fill="#263238"/>
<path d="M325.209 478.675H300.572V460.592H324.333L325.209 478.675ZM302.324 476.923H323.351L322.633 462.344H302.306L302.324 476.923Z" fill="white"/>
<path d="M490.293 493.763H511.163L504.364 477.799H484.16L490.293 493.763Z" fill="#263238"/>
<path d="M512.494 494.639H489.715L482.916 476.923H504.977L512.494 494.639ZM490.889 492.886H509.831L503.785 478.675H485.439L490.889 492.886Z" fill="white"/>
<path d="M478.552 529.089H503.856L496.829 510.812H472.419L478.552 529.089Z" fill="#263238"/>
<path d="M505.17 529.965H477.922L471.193 509.919H497.477L505.17 529.965ZM479.218 528.213H502.612L496.233 511.671H473.629L479.218 528.213Z" fill="white"/>
<path d="M164.418 477.799L169.097 461.468H147.035L141.586 477.799H164.418Z" fill="#263238"/>
<path d="M165.084 478.675H140.359L146.404 460.592H170.253L165.084 478.675ZM142.795 476.923H163.822L168.01 462.344H147.701L142.795 476.923Z" fill="white"/>
<path d="M461.327 477.799L466.689 493.763H490.293L484.16 477.799H461.327Z" fill="#263238"/>
<path d="M491.555 494.639H466.059L460.101 476.923H484.756L491.555 494.639ZM467.32 492.886H489.014L483.564 478.675H462.536L467.32 492.886Z" fill="white"/>
<path d="M504.364 477.799L497.407 461.468H477.887L484.16 477.799H504.364Z" fill="#263238"/>
<path d="M505.696 478.675H483.564L476.555 460.592H497.985L505.696 478.675ZM484.756 476.923H503.032L496.829 462.344H479.166L484.756 476.923Z" fill="white"/>
<path d="M484.16 477.799L477.887 461.468H455.843L461.327 477.799H484.16Z" fill="#263238"/>
<path d="M485.439 478.675H460.697L454.616 460.592H478.5L485.439 478.675ZM461.958 476.923H482.881L477.291 462.344H457.052L461.958 476.923Z" fill="white"/>
<path d="M402.678 529.089L406.463 548.732H432.695L427.964 529.089H402.678Z" fill="#263238"/>
<path d="M433.799 549.608H405.762L401.644 528.213H428.7L433.799 549.608ZM407.181 547.856H431.573L427.28 529.965H403.729L407.181 547.856Z" fill="white"/>
<path d="M485.159 548.732H511.39L503.856 529.089H478.552L485.159 548.732Z" fill="#263238"/>
<path d="M512.67 549.608H484.528L477.343 528.213H504.451L512.67 549.608ZM485.79 547.856H510.111L503.242 529.965H479.779L485.79 547.856Z" fill="white"/>
<path d="M461.327 477.799L455.843 461.468H433.781L438.477 477.799H461.327Z" fill="#263238"/>
<path d="M462.536 478.675H437.829L432.572 460.592H456.438L462.536 478.675ZM439.143 476.923H460.171L455.282 462.344H434.938L439.143 476.923Z" fill="white"/>
<path d="M453.267 529.089L458.927 548.732H485.159L478.552 529.089H453.267Z" fill="#263238"/>
<path d="M486.368 549.608H458.331L452.163 528.213H479.253L486.368 549.608ZM459.575 547.856H483.932L477.922 529.965H454.353L459.575 547.856Z" fill="white"/>
<path d="M427.964 529.089L432.695 548.732H458.927L453.267 529.089H427.964Z" fill="#263238"/>
<path d="M460.083 549.608H432.046L426.912 528.213H453.968L460.083 549.608ZM433.378 547.856H457.753L452.601 529.965H429.085L433.378 547.856Z" fill="white"/>
<path d="M472.419 510.812H496.829L490.293 493.763H466.689L472.419 510.812Z" fill="#263238"/>
<path d="M498.161 511.671H471.876L465.55 492.869H490.976L498.161 511.671ZM473.103 509.919H495.62L489.732 494.621H467.899L473.103 509.919Z" fill="white"/>
<path d="M255.783 477.799L257.325 461.468H235.263L232.933 477.799H255.783Z" fill="#263238"/>
<path d="M256.571 478.675H231.917L234.51 460.592H258.289L256.571 478.675ZM233.949 476.923H254.977L256.361 462.344H236.034L233.949 476.923Z" fill="white"/>
<path d="M438.477 477.799L433.781 461.468H411.72L415.645 477.799H438.477Z" fill="#263238"/>
<path d="M439.651 478.675H414.962L410.546 460.592H434.36L439.651 478.675ZM416.328 476.923H437.356L433.15 462.344H412.841L416.328 476.923Z" fill="white"/>
<path d="M232.933 477.799L235.263 461.468H213.202L210.1 477.799H232.933Z" fill="#263238"/>
<path d="M233.704 478.675H209.032L212.536 460.592H236.332L233.704 478.675ZM211.152 476.923H232.179L234.265 462.344H213.938L211.152 476.923Z" fill="white"/>
<path d="M301.448 477.799L301.43 461.468H279.386L278.615 477.799H301.448Z" fill="#263238"/>
<path d="M302.324 478.675H277.704L278.545 460.592H302.306L302.324 478.675ZM279.544 476.923H300.572V462.344H280.21L279.544 476.923Z" fill="white"/>
<path d="M210.1 477.799L213.202 461.468H191.158L187.25 477.799H210.1Z" fill="#263238"/>
<path d="M210.784 478.675H186.146L190.457 460.592H214.288L210.784 478.675ZM188.337 476.923H209.364L212.151 462.344H191.841L188.337 476.923Z" fill="white"/>
<path d="M187.251 477.799L191.158 461.468H169.097L164.418 477.799H187.251Z" fill="#263238"/>
<path d="M188.004 478.675H163.262L168.518 460.592H192.35L188.004 478.675ZM165.627 476.923H186.655L190.159 462.344H169.763L165.627 476.923Z" fill="white"/>
<path d="M278.615 477.799L279.386 461.468H257.325L255.783 477.799H278.615Z" fill="#263238"/>
<path d="M279.456 478.675H254.819L256.571 460.592H280.35L279.456 478.675ZM256.677 476.923H277.704L278.388 462.344H258.096L256.677 476.923Z" fill="white"/>
<path d="M415.645 477.799L411.72 461.468H389.658L392.813 477.799H415.645Z" fill="#263238"/>
<path d="M416.749 478.675H392.077L388.572 460.592H412.386L416.749 478.675ZM393.531 476.923H414.559L411.054 462.344H390.727L393.531 476.923Z" fill="white"/>
<path d="M392.813 477.799L389.658 461.468H367.615L369.963 477.799H392.813Z" fill="#263238"/>
<path d="M393.864 478.675H369.209L366.598 460.592H390.394L393.864 478.675ZM370.734 476.923H391.761L388.957 462.344H368.631L370.734 476.923Z" fill="white"/>
<path d="M347.13 477.799L345.553 461.468H323.492L324.298 477.799H347.13Z" fill="#263238"/>
<path d="M348.094 478.675H323.457L322.58 460.592H346.342L348.094 478.675ZM325.121 476.923H346.149L344.729 462.344H324.403L325.121 476.923Z" fill="white"/>
<path d="M402.678 529.089H377.375H352.089H326.786H301.5H276.215H250.911H225.626H200.323H175.019H149.734L144.109 548.732H170.341H196.573H222.822H249.054H275.286H301.518H327.75H353.982H380.213H406.463L402.678 529.089Z" fill="#263238"/>
<path d="M407.514 549.608H142.917L149.033 528.213H403.396L407.514 549.608ZM145.265 547.856H405.394L401.889 529.965H150.4L145.265 547.856Z" fill="white"/>
<path d="M369.963 477.799L367.614 461.468H345.553L347.13 477.799H369.963Z" fill="#263238"/>
<path d="M370.979 478.675H346.342L344.589 460.592H368.368L370.979 478.675ZM347.919 476.923H368.946L366.826 462.344H346.499L347.919 476.923Z" fill="white"/>
<path d="M330.15 322.738C355.961 322.738 376.884 296.104 376.884 263.248C376.884 230.392 355.961 203.757 330.15 203.757C304.34 203.757 283.417 230.392 283.417 263.248C283.417 296.104 304.34 322.738 330.15 322.738Z" fill="#263238"/>
<path d="M330.15 323.597C303.866 323.597 282.523 296.524 282.523 263.248C282.523 229.972 303.883 202.881 330.15 202.881C356.417 202.881 377.76 229.954 377.76 263.248C377.76 296.542 356.4 323.597 330.15 323.597ZM330.15 204.634C304.847 204.634 284.275 230.918 284.275 263.248C284.275 295.578 304.847 321.845 330.15 321.845C355.454 321.845 376.008 295.56 376.008 263.248C376.008 230.936 355.436 204.634 330.15 204.634Z" fill="#263238"/>
<path d="M224.802 414.752C220.509 414.752 215.638 410.949 213.044 408.601C209.4 405.289 205.632 400.646 205.632 398.578C205.632 395.616 240.678 289.935 244.726 277.932C244.771 277.792 244.851 277.665 244.958 277.564C245.066 277.463 245.197 277.391 245.339 277.354C245.479 277.319 245.626 277.318 245.766 277.351C245.906 277.385 246.036 277.452 246.145 277.547L259.41 289.655C259.514 289.749 259.593 289.867 259.642 289.998C259.691 290.129 259.707 290.27 259.691 290.408L246.618 405.219C246.602 405.352 246.556 405.48 246.483 405.592C246.411 405.704 246.313 405.799 246.198 405.867C245.655 406.2 232.863 413.981 225.486 414.717L224.802 414.752ZM245.97 279.825C234.931 313.118 207.682 395.476 207.419 398.683C207.419 399.682 210.083 403.589 214.253 407.357C218.424 411.124 222.577 413.297 225.345 413.034C231.671 412.403 242.868 405.937 244.954 404.658L257.938 290.759L245.97 279.825Z" fill="#263238"/>
<path d="M323.019 262.687L245.497 278.195L257.903 430.925H409.091L429.243 271.992L336.967 261.916L323.019 262.687Z" fill="#92E3A9"/>
<path d="M409.091 431.801H257.903C257.684 431.802 257.473 431.719 257.314 431.569C257.154 431.419 257.058 431.214 257.045 430.995L244.621 278.265C244.604 278.051 244.666 277.839 244.795 277.668C244.924 277.496 245.111 277.379 245.322 277.336L322.931 261.829L336.949 261.04L429.348 271.133C429.58 271.158 429.793 271.271 429.944 271.449C430.016 271.543 430.068 271.65 430.098 271.764C430.128 271.878 430.135 271.997 430.119 272.115L409.968 431.065C409.934 431.273 409.827 431.461 409.666 431.596C409.505 431.731 409.301 431.804 409.091 431.801ZM258.727 430.049H408.32L428.261 272.78L336.949 262.845L323.194 263.616L246.496 278.966L258.727 430.049Z" fill="#263238"/>
<path opacity="0.3" d="M257.903 430.925H409.091L412.894 401.014L412.614 399.559L376.131 407.515L392.042 340.542L304.497 379.005L283.276 400.225H296.541L257.5 425.914L257.903 430.925Z" fill="black"/>
<path d="M314.783 254.083C314.783 254.083 302.201 260.97 299.012 267.156C295.823 273.341 282.628 319.286 282.628 319.286L304.339 323.948L283.417 334.023L315.081 424.722L365.477 421.621L398.28 326.261L378.111 317.744L395.949 309.982C395.949 309.982 378.899 277.424 369.665 263.476C360.43 249.527 314.783 254.083 314.783 254.083Z" fill="#92E3A9"/>
<path d="M315.151 425.598C314.971 425.598 314.795 425.543 314.648 425.439C314.5 425.336 314.388 425.189 314.327 425.02L282.628 334.304C282.56 334.101 282.569 333.88 282.653 333.683C282.737 333.486 282.89 333.326 283.084 333.235L301.711 324.263L282.435 320.145C282.317 320.12 282.205 320.071 282.106 320.002C282.006 319.933 281.922 319.844 281.857 319.742C281.796 319.637 281.756 319.521 281.741 319.401C281.726 319.28 281.736 319.158 281.769 319.041C282.313 317.166 295.122 272.973 298.224 266.77C301.325 260.567 313.749 253.61 314.275 253.312C314.377 253.257 314.491 253.227 314.608 253.225C316.482 253.032 360.693 248.756 370.173 262.985C379.407 276.811 396.457 309.263 396.58 309.579C396.632 309.688 396.658 309.808 396.658 309.929C396.658 310.05 396.632 310.17 396.58 310.28C396.544 310.394 396.483 310.499 396.401 310.587C396.319 310.675 396.219 310.744 396.107 310.788L380.143 317.797L398.42 325.525C398.625 325.614 398.789 325.777 398.88 325.981C398.971 326.186 398.982 326.417 398.91 326.629L366.23 421.989C366.172 422.15 366.068 422.29 365.931 422.393C365.794 422.496 365.63 422.556 365.459 422.567L315.063 425.668L315.151 425.598ZM284.556 334.479L315.764 423.846L364.828 420.832L397.053 326.786L377.655 318.586C377.495 318.52 377.358 318.408 377.262 318.265C377.165 318.121 377.113 317.952 377.112 317.779C377.114 317.609 377.164 317.442 377.257 317.3C377.35 317.157 377.482 317.044 377.638 316.973L394.617 309.596C391.884 304.339 377.094 276.513 368.736 264.036C360.115 251.105 318.077 254.749 314.975 255.03C313.539 255.836 302.569 262.039 299.801 267.646C297.032 273.254 285.625 312.26 283.732 318.726L304.532 323.177C304.71 323.215 304.872 323.309 304.994 323.444C305.117 323.579 305.194 323.749 305.215 323.93C305.232 324.111 305.194 324.293 305.107 324.452C305.019 324.611 304.886 324.741 304.725 324.824L284.556 334.479Z" fill="#263238"/>
<path d="M312.82 432.485L312.172 272.78L354.034 268.89L366.318 430.925L312.82 432.485Z" fill="white"/>
<path d="M312.82 433.361C312.592 433.359 312.373 433.271 312.207 433.116C312.042 432.946 311.948 432.721 311.944 432.485L311.296 272.78C311.29 272.561 311.369 272.348 311.516 272.186C311.662 272.023 311.866 271.922 312.084 271.904L353.947 268.102C354.062 268.085 354.18 268.094 354.292 268.127C354.404 268.16 354.507 268.217 354.595 268.294C354.776 268.45 354.89 268.67 354.91 268.908L367.176 430.943C367.183 431.06 367.166 431.178 367.127 431.29C367.088 431.401 367.028 431.503 366.949 431.591C366.869 431.68 366.772 431.751 366.663 431.799C366.555 431.847 366.437 431.872 366.318 431.871L312.838 433.431L312.82 433.361ZM313.048 273.569L313.696 431.574L365.372 430.084L353.228 269.854L313.048 273.569Z" fill="#263238"/>
<path d="M305.969 230.901C305.969 230.901 311.383 261.145 312.172 268.89C312.96 276.635 332.972 331.71 338.964 322.721C345.5 312.926 353.263 282.085 354.735 275.093C356.207 268.102 356.295 237.892 356.295 237.892C356.295 237.892 336.196 251.84 305.969 230.901Z" fill="white"/>
<path d="M337.387 324.596C337.163 324.591 336.939 324.562 336.721 324.508C328.486 322.458 312.049 276.46 311.296 268.978C310.542 261.496 305.163 231.374 305.092 231.058C305.061 230.887 305.08 230.71 305.15 230.55C305.219 230.39 305.334 230.254 305.481 230.16C305.628 230.066 305.799 230.018 305.973 230.022C306.148 230.026 306.317 230.081 306.459 230.182C335.863 250.544 355.664 237.296 355.857 237.191C355.994 237.109 356.152 237.066 356.312 237.066C356.472 237.066 356.63 237.109 356.768 237.191C356.909 237.269 357.028 237.383 357.111 237.521C357.194 237.66 357.239 237.818 357.241 237.98C357.241 239.206 357.241 268.382 355.664 275.374C353.911 282.979 346.324 313.364 339.7 323.299C339.455 323.693 339.115 324.018 338.71 324.244C338.306 324.471 337.851 324.592 337.387 324.596ZM307.16 232.793C308.387 239.802 312.417 262.196 312.995 268.803C313.749 276.355 330.361 321.126 337.107 322.808C337.422 322.808 337.79 322.808 338.211 322.248C344.607 312.628 352.352 281.945 353.982 274.936C355.296 269.03 355.489 245.637 355.506 239.434C350.459 242.01 332.236 249.247 307.16 232.793Z" fill="#263238"/>
<path d="M356.049 257.991C356.365 248.073 356.365 237.892 356.365 237.892C356.365 237.892 336.196 251.911 305.969 230.883C305.969 230.883 308.194 243.342 309.999 254.311C314.134 259.568 322.002 267.927 331.71 269.486C341.681 271.098 349.741 265.806 356.049 257.991Z" fill="#92E3A9"/>
<path opacity="0.5" d="M356.049 257.991C356.365 248.073 356.365 237.892 356.365 237.892C356.365 237.892 336.196 251.911 305.969 230.883C305.969 230.883 308.194 243.342 309.999 254.311C314.134 259.568 322.002 267.927 331.71 269.486C341.681 271.098 349.741 265.806 356.049 257.991Z" fill="white"/>
<path d="M372.644 200.673C372.644 200.673 381.16 189.809 381.16 202.215C381.16 214.622 372.644 216.234 372.644 216.234V200.673Z" fill="white"/>
<path d="M372.644 217.057C372.437 217.06 372.237 216.985 372.083 216.847C371.981 216.769 371.899 216.668 371.845 216.552C371.79 216.436 371.763 216.309 371.767 216.181V200.673C371.764 200.478 371.825 200.287 371.943 200.13C372.696 199.184 376.551 194.523 379.495 195.539C381.247 196.135 382.036 198.325 382.036 202.215C382.036 215.2 372.889 217.022 372.801 217.04L372.644 217.057ZM373.52 200.971V214.99C375.64 214.148 380.284 211.257 380.284 202.215C380.284 198.115 379.337 197.344 378.934 197.204C377.638 196.766 375.027 199.131 373.52 200.971Z" fill="#263238"/>
<path d="M288.13 175.09C288.13 175.09 298.206 220.772 298.206 227.028C298.206 240.188 323.019 254.942 333.865 258.044C344.712 261.145 371.084 237.104 372.644 230.901C374.203 224.697 374.957 170.429 371.855 159.582C368.754 148.735 350.968 141.744 339.297 141.744C327.627 141.744 293.562 147.947 288.13 175.09Z" fill="white"/>
<path d="M336.003 259.2C335.204 259.208 334.407 259.102 333.637 258.885C323.124 255.871 297.33 240.976 297.33 227.028C297.33 220.947 287.377 175.738 287.272 175.283C287.254 175.161 287.254 175.037 287.272 174.915C292.826 147.123 327.575 140.867 339.297 140.867C351.02 140.867 369.437 147.877 372.696 159.337C375.955 170.797 375.009 225.03 373.485 231.181C372.346 235.754 359.571 248.388 348.076 255.03C343.205 257.781 339.157 259.2 336.003 259.2ZM289.024 175.09C289.812 178.682 299.082 220.912 299.082 227.045C299.082 239.592 323.422 254.153 334.128 257.22C337.019 258.044 341.54 256.747 347.218 253.47C358.608 246.899 370.856 234.475 371.75 230.69C373.204 224.855 374.081 170.657 370.979 159.827C367.983 149.314 350.197 142.62 339.262 142.62C327.96 142.62 294.474 148.595 289.024 175.072V175.09Z" fill="#263238"/>
<path d="M339.297 141.744C327.68 141.744 293.562 147.947 288.13 175.037C288.13 175.037 294.158 202.373 296.892 217.653C296.892 210.644 298.118 197.221 305.653 191.369C316.062 183.273 333.427 182.099 343.258 177.473C353.088 172.847 355.401 160.704 355.401 160.704C355.401 160.704 355.979 182.099 360.658 187.321C365.337 192.543 369.928 196.082 370.506 205.247C371.084 214.411 372.819 223.751 368.193 231.286C363.567 238.821 344.467 253.26 335.793 256.151C334.461 256.607 333.164 256.992 331.938 257.36C332.621 257.606 333.287 257.833 333.9 258.009C344.765 261.11 371.119 237.069 372.679 230.866C374.238 224.662 374.992 170.394 371.89 159.547C368.789 148.7 350.968 141.744 339.297 141.744Z" fill="#92E3A9"/>
<path d="M323.194 253.453C318.971 249.195 307.423 237.402 302.166 231.321C300.647 229.589 299.287 227.724 298.101 225.749C298.101 226.257 298.101 226.713 298.101 227.028C298.206 236.753 311.734 247.337 323.194 253.453Z" fill="#92E3A9"/>
<g opacity="0.5">
<path opacity="0.5" d="M339.297 141.744C327.68 141.744 293.562 147.947 288.13 175.037C288.13 175.037 294.158 202.373 296.892 217.653C296.892 210.644 298.118 197.221 305.653 191.369C316.062 183.273 333.427 182.099 343.258 177.473C353.088 172.847 355.401 160.704 355.401 160.704C355.401 160.704 355.979 182.099 360.658 187.321C365.337 192.543 369.928 196.082 370.506 205.247C371.084 214.411 372.819 223.751 368.193 231.286C363.567 238.821 344.467 253.26 335.793 256.151C334.461 256.607 333.164 256.992 331.938 257.36C332.621 257.606 333.287 257.833 333.9 258.009C344.765 261.11 371.119 237.069 372.679 230.866C374.238 224.662 374.992 170.394 371.89 159.547C368.789 148.7 350.968 141.744 339.297 141.744Z" fill="white"/>
<path opacity="0.5" d="M323.194 253.453C318.971 249.195 307.423 237.402 302.166 231.321C300.647 229.589 299.287 227.724 298.101 225.749C298.101 226.257 298.101 226.713 298.101 227.028C298.206 236.753 311.734 247.337 323.194 253.453Z" fill="white"/>
</g>
<path d="M328.275 203.144C328.275 205.317 327.312 207.069 326.103 207.069C324.893 207.069 323.912 205.317 323.912 203.144C323.912 200.971 324.893 199.219 326.103 199.219C327.312 199.219 328.275 200.971 328.275 203.144Z" fill="#263238"/>
<path d="M353.806 203.144C353.806 205.317 352.825 207.069 351.616 207.069C350.407 207.069 349.426 205.317 349.426 203.144C349.426 200.971 350.407 199.219 351.616 199.219C352.825 199.219 353.806 200.971 353.806 203.144Z" fill="#263238"/>
<path d="M341.943 219.738C341.767 219.741 341.595 219.688 341.45 219.588C341.305 219.487 341.196 219.344 341.137 219.178C341.05 218.964 341.051 218.724 341.14 218.511C341.228 218.297 341.397 218.128 341.61 218.039C345.115 216.672 350.057 213.973 350.372 212.291C350.512 211.643 350.249 211.415 348.024 210.924C346.407 210.704 344.884 210.036 343.626 208.997C341.015 206.386 343.152 199.061 343.415 198.238C343.483 198.005 343.64 197.809 343.852 197.693C343.956 197.635 344.072 197.598 344.191 197.585C344.31 197.572 344.43 197.582 344.546 197.616C344.661 197.649 344.768 197.705 344.861 197.779C344.955 197.854 345.033 197.947 345.091 198.052C345.148 198.157 345.185 198.272 345.198 198.391C345.211 198.51 345.201 198.631 345.168 198.746C344.326 201.479 343.52 206.351 344.94 207.77C345.965 208.542 347.172 209.037 348.444 209.207C350.197 209.61 352.632 210.153 352.124 212.712C351.493 215.936 343.818 219.143 342.294 219.721C342.18 219.752 342.06 219.758 341.943 219.738Z" fill="#263238"/>
<path d="M334.181 231.409C332.382 231.514 330.586 231.155 328.966 230.366C327.346 229.578 325.956 228.386 324.929 226.905C324.863 226.81 324.818 226.703 324.795 226.591C324.772 226.478 324.772 226.362 324.795 226.249C324.818 226.136 324.863 226.029 324.928 225.934C324.993 225.839 325.077 225.758 325.174 225.696C325.367 225.569 325.602 225.524 325.829 225.57C326.055 225.616 326.255 225.749 326.383 225.942C330.589 232.267 340.401 228.552 340.401 228.517C340.617 228.431 340.859 228.435 341.072 228.527C341.286 228.619 341.454 228.792 341.54 229.008C341.626 229.224 341.623 229.466 341.531 229.679C341.439 229.893 341.266 230.061 341.05 230.147C338.845 230.943 336.524 231.369 334.181 231.409Z" fill="#263238"/>
<path d="M318.095 197.046C317.99 197.063 317.884 197.063 317.779 197.046C317.67 197.005 317.571 196.943 317.487 196.864C317.402 196.784 317.334 196.689 317.287 196.583C317.24 196.477 317.214 196.363 317.211 196.247C317.208 196.131 317.229 196.015 317.271 195.907C318.179 193.762 319.853 192.032 321.967 191.053C323.263 190.551 324.646 190.317 326.035 190.365C327.423 190.413 328.788 190.743 330.045 191.334C330.261 191.42 330.434 191.588 330.526 191.802C330.618 192.015 330.622 192.257 330.536 192.473C330.45 192.689 330.282 192.862 330.068 192.954C329.854 193.046 329.613 193.049 329.397 192.963C328.354 192.46 327.221 192.172 326.065 192.118C324.908 192.064 323.753 192.244 322.668 192.648C320.987 193.452 319.65 194.832 318.901 196.538C318.833 196.694 318.72 196.826 318.576 196.917C318.433 197.008 318.265 197.053 318.095 197.046Z" fill="#263238"/>
<path d="M355.541 194.172C355.407 194.171 355.275 194.14 355.154 194.083C355.033 194.025 354.926 193.942 354.84 193.839C353.088 191.649 351.493 190.58 349.916 190.65C349.154 190.78 348.428 191.068 347.785 191.497C347.142 191.925 346.596 192.485 346.184 193.138C346.058 193.333 345.862 193.47 345.636 193.523C345.41 193.575 345.173 193.538 344.975 193.419C344.875 193.36 344.788 193.281 344.72 193.187C344.651 193.094 344.602 192.987 344.576 192.874C344.55 192.761 344.547 192.644 344.567 192.53C344.588 192.416 344.631 192.307 344.695 192.21C345.252 191.316 345.999 190.555 346.883 189.983C347.768 189.41 348.767 189.04 349.811 188.898C352.054 188.775 354.174 190.089 356.225 192.77C356.366 192.954 356.429 193.186 356.399 193.416C356.37 193.646 356.25 193.855 356.067 193.997C355.916 194.112 355.731 194.174 355.541 194.172Z" fill="#263238"/>
<path d="M375.745 147.947C368.07 139.185 359.975 139.711 355.138 141.603C348.585 130.564 326.926 121.802 299.065 132.439C266.507 144.845 270.38 178.191 271.939 184.395C273.499 190.598 284.345 206.877 291.32 207.648C291.32 207.648 297.523 202.215 297.523 196.801C297.523 191.386 312.259 180.522 326.979 175.861C336.248 172.935 346.429 167.555 352.317 160.686C352.208 165.196 353.368 169.647 355.664 173.53C360.325 180.54 367.299 184.395 367.299 186.725C367.299 189.056 371.172 197.572 374.308 197.572C377.445 197.572 377.41 185.166 378.181 179.733C378.952 174.301 386.592 160.353 375.745 147.947Z" fill="#263238"/>
<path d="M291.232 208.524H291.127C283.504 207.665 272.57 190.843 270.993 184.605C270.905 184.219 262.336 145.476 298.679 131.633C325.507 121.399 347.743 128.531 355.506 140.534C359.466 139.203 368.123 137.906 376.394 147.368C385.453 157.725 382.018 169.097 379.898 175.913C379.47 177.204 379.125 178.521 378.864 179.856C378.672 181.17 378.531 182.94 378.374 184.798C377.708 193.051 377.042 198.448 374.116 198.448C370.26 198.448 366.265 189.196 366.265 186.725C366.265 185.989 364.513 184.342 362.761 182.765C359.759 180.182 357.087 177.239 354.805 174.003C352.698 170.639 351.492 166.789 351.301 162.824C345.728 168.484 336.844 173.583 327.014 176.684C312.154 181.381 298.171 191.982 298.171 196.783C298.171 202.531 291.933 208.051 291.67 208.296C291.549 208.412 291.397 208.491 291.232 208.524ZM323.369 128.531C315.123 128.631 306.963 130.235 299.292 133.262C264.369 146.58 272.605 183.799 272.693 184.184C274.235 190.352 284.538 205.457 290.951 206.719C292.143 205.597 296.559 201.111 296.559 196.801C296.559 190.72 311.734 179.733 326.628 175.02C337.054 171.743 346.377 166.153 351.563 160.108C351.683 159.972 351.841 159.877 352.016 159.833C352.191 159.789 352.376 159.799 352.545 159.862C352.711 159.926 352.853 160.04 352.954 160.187C353.054 160.334 353.107 160.508 353.105 160.686C352.995 165.029 354.106 169.315 356.312 173.057C358.52 176.167 361.103 178.993 364.005 181.468C366.458 183.729 368.088 185.218 368.088 186.725C368.088 188.986 371.873 196.696 374.186 196.696C375.728 196.696 376.411 188.267 376.709 184.657C376.849 182.765 377.007 180.978 377.2 179.611C377.468 178.186 377.831 176.781 378.286 175.405C380.354 168.536 383.543 158.145 375.079 148.525C367.299 139.641 359.449 140.885 355.454 142.427C355.259 142.5 355.044 142.502 354.848 142.431C354.652 142.36 354.488 142.222 354.385 142.041C350.267 135.137 339.07 128.531 323.369 128.531Z" fill="#263238"/>
<path d="M284.713 188.285H284.556C284.328 188.242 284.127 188.111 283.996 187.921C283.864 187.731 283.814 187.496 283.855 187.268C284.363 184.552 286.273 182.239 289.707 180.154C289.907 180.04 290.143 180.009 290.365 180.068C290.587 180.127 290.778 180.271 290.895 180.468C291.012 180.666 291.047 180.902 290.992 181.125C290.937 181.348 290.797 181.54 290.601 181.661C287.64 183.413 285.992 185.393 285.572 187.601C285.531 187.797 285.423 187.973 285.266 188.098C285.109 188.223 284.914 188.289 284.713 188.285Z" fill="white"/>
<path d="M295.805 179.085C295.628 179.084 295.455 179.03 295.308 178.93C295.161 178.83 295.048 178.689 294.982 178.524C294.902 178.308 294.911 178.069 295.006 177.859C295.101 177.649 295.275 177.485 295.49 177.403C301.572 175.246 307.788 173.49 314.099 172.146C318.795 171.06 323.246 170.008 326.944 168.834C340.822 164.418 348.602 152.328 348.69 152.222C348.749 152.123 348.828 152.036 348.921 151.967C349.015 151.899 349.121 151.85 349.234 151.824C349.347 151.798 349.464 151.795 349.579 151.815C349.693 151.835 349.802 151.878 349.899 151.942C350.094 152.068 350.231 152.266 350.28 152.492C350.329 152.719 350.287 152.956 350.162 153.151C344.633 161.238 336.644 167.328 327.382 170.516C323.632 171.708 319.146 172.759 314.415 173.863C308.184 175.159 302.044 176.857 296.033 178.945C295.964 179.002 295.887 179.049 295.805 179.085Z" fill="white"/>
<path d="M282.102 163.455C281.926 163.456 281.754 163.401 281.612 163.297C281.42 163.168 281.286 162.969 281.24 162.743C281.194 162.516 281.24 162.281 281.366 162.088C283.119 159.372 287.85 159.564 294.912 159.845C300.638 160.166 306.379 160.131 312.102 159.74C328.03 158.461 342.259 148.875 342.399 148.77C342.592 148.644 342.828 148.598 343.054 148.644C343.28 148.69 343.48 148.824 343.608 149.016C343.674 149.109 343.72 149.216 343.745 149.328C343.769 149.44 343.771 149.556 343.749 149.668C343.728 149.781 343.684 149.888 343.621 149.984C343.558 150.079 343.476 150.161 343.38 150.225C342.785 150.628 328.626 160.178 312.242 161.492C306.45 161.892 300.638 161.927 294.842 161.597C288.603 161.352 284.1 161.159 282.821 163.069C282.742 163.188 282.636 163.285 282.51 163.353C282.385 163.42 282.245 163.455 282.102 163.455Z" fill="white"/>
<path d="M376.236 172.602C376.121 172.597 376.008 172.57 375.903 172.522C375.798 172.473 375.704 172.405 375.626 172.32C375.548 172.236 375.488 172.137 375.448 172.028C375.408 171.92 375.39 171.805 375.395 171.69C375.474 169.524 375.315 167.356 374.922 165.224C374.896 165.111 374.894 164.995 374.914 164.881C374.935 164.767 374.979 164.658 375.043 164.562C375.107 164.465 375.189 164.382 375.286 164.319C375.383 164.255 375.491 164.211 375.605 164.191C375.719 164.168 375.836 164.168 375.95 164.191C376.064 164.214 376.172 164.259 376.269 164.324C376.365 164.39 376.447 164.473 376.511 164.571C376.574 164.668 376.618 164.777 376.639 164.891C377.053 167.156 377.223 169.459 377.147 171.76C377.142 171.876 377.115 171.989 377.067 172.093C377.019 172.198 376.95 172.292 376.866 172.37C376.781 172.448 376.682 172.509 376.574 172.548C376.466 172.588 376.351 172.606 376.236 172.602Z" fill="white"/>
<path d="M374.799 162.421C374.616 162.422 374.438 162.365 374.29 162.258C374.141 162.151 374.031 161.999 373.975 161.825C372.844 158.707 371.029 155.882 368.664 153.557C366.299 151.231 363.444 149.464 360.307 148.385C360.084 148.319 359.894 148.169 359.78 147.966C359.665 147.763 359.635 147.524 359.694 147.298C359.726 147.188 359.78 147.085 359.852 146.995C359.924 146.906 360.013 146.831 360.114 146.776C360.215 146.72 360.326 146.685 360.44 146.673C360.554 146.66 360.67 146.67 360.781 146.703C364.2 147.834 367.316 149.733 369.888 152.254C372.461 154.774 374.422 157.851 375.623 161.247C375.661 161.356 375.678 161.472 375.671 161.588C375.665 161.703 375.636 161.817 375.585 161.921C375.535 162.025 375.464 162.118 375.377 162.195C375.29 162.272 375.189 162.331 375.079 162.368C374.99 162.403 374.895 162.42 374.799 162.421Z" fill="white"/>
<path d="M318.445 241.957C316.165 242.046 313.897 241.577 311.839 240.591C305.163 237.086 293.3 221.315 292.809 220.579C292.67 220.394 292.61 220.16 292.643 219.93C292.675 219.7 292.798 219.492 292.984 219.353C293.17 219.213 293.404 219.154 293.634 219.186C293.864 219.219 294.071 219.342 294.211 219.528C294.333 219.686 306.319 235.702 312.663 239.049C319.006 242.396 330.904 237.734 331.027 237.682C331.135 237.64 331.25 237.621 331.366 237.624C331.482 237.627 331.596 237.653 331.701 237.7C331.807 237.747 331.903 237.815 331.982 237.899C332.062 237.983 332.124 238.082 332.166 238.19C332.207 238.298 332.227 238.413 332.224 238.529C332.22 238.645 332.195 238.759 332.147 238.865C332.1 238.971 332.033 239.066 331.949 239.146C331.864 239.225 331.766 239.288 331.657 239.329C327.419 240.895 322.96 241.782 318.445 241.957Z" fill="#263238"/>
<path d="M335.688 238.646C335.688 240.24 333.725 241.554 331.324 241.554C328.924 241.554 326.961 240.24 326.961 238.646C326.961 237.051 328.906 235.737 331.324 235.737C333.743 235.737 335.688 237.034 335.688 238.646Z" fill="#263238"/>
<path d="M286.676 197.87C286.676 197.87 272.289 160.616 286.676 138.397C286.676 138.397 264.439 161.264 284.065 203.109L286.676 197.87Z" fill="white"/>
<path d="M296.646 209.943C297.961 218.705 295.578 226.274 291.302 226.923C287.026 227.571 282.54 221 281.209 212.256C279.877 203.512 282.295 195.925 286.553 195.276C290.811 194.628 295.402 201.199 296.646 209.943Z" fill="white"/>
<path d="M290.776 227.799C286.203 227.799 281.734 221.263 280.403 212.361C279.719 208.387 279.929 204.311 281.016 200.428C282.12 196.923 284.065 194.733 286.483 194.383C291.284 193.664 296.173 200.411 297.575 209.768C298.25 213.742 298.04 217.817 296.962 221.701C295.84 225.206 293.913 227.396 291.495 227.746C291.257 227.781 291.017 227.799 290.776 227.799ZM287.272 196.082C287.114 196.065 286.956 196.065 286.799 196.082C285.046 196.328 283.644 198.098 282.751 200.919C281.748 204.548 281.563 208.354 282.208 212.063C283.417 220.159 287.57 226.555 291.302 225.977C293.054 225.731 294.474 223.961 295.367 221.14C296.361 217.51 296.546 213.705 295.91 209.996C294.666 202.285 290.794 196.117 287.202 196.117L287.272 196.082Z" fill="#263238"/>
<path d="M288.917 226.661C292.707 226.091 294.714 218.546 293.4 209.809C292.087 201.071 287.95 194.45 284.16 195.02C280.37 195.59 278.363 203.135 279.677 211.872C280.99 220.61 285.127 227.231 288.917 226.661Z" fill="white"/>
<path d="M288.428 227.589C286.431 227.589 284.38 226.064 282.611 223.243C280.602 219.797 279.303 215.984 278.79 212.028C277.371 202.653 279.684 194.821 284.047 194.172C288.411 193.524 292.809 200.34 294.298 209.698C294.963 213.631 294.844 217.656 293.948 221.543C293.002 225.048 291.267 227.221 289.059 227.554L288.428 227.589ZM284.573 195.872H284.275C281.436 196.293 279.194 202.881 280.525 211.643C280.992 215.343 282.183 218.916 284.03 222.156C285.572 224.592 287.254 225.871 288.708 225.661C290.163 225.451 291.425 223.716 292.213 220.93C293.053 217.278 293.16 213.496 292.528 209.803C291.249 201.514 287.394 195.872 284.573 195.872Z" fill="#263238"/>
<path d="M429.243 271.992L449.447 431.714L409.091 430.925L429.243 271.992Z" fill="#92E3A9"/>
<path d="M449.447 432.59L409.144 431.801C409.021 431.8 408.9 431.773 408.788 431.721C408.676 431.67 408.577 431.596 408.496 431.504C408.418 431.409 408.36 431.3 408.327 431.182C408.294 431.065 408.286 430.941 408.303 430.82L428.437 271.887C428.463 271.673 428.566 271.476 428.728 271.334C428.889 271.192 429.098 271.114 429.313 271.116C429.525 271.118 429.729 271.198 429.887 271.34C430.045 271.482 430.146 271.676 430.172 271.887L450.376 431.591C450.396 431.716 450.387 431.844 450.351 431.966C450.314 432.087 450.251 432.199 450.165 432.292C450.076 432.394 449.966 432.473 449.841 432.525C449.716 432.577 449.581 432.599 449.447 432.59ZM410.09 430.067L448.448 430.82L429.173 278.966L410.09 430.067Z" fill="#263238"/>
<path opacity="0.3" d="M440.247 359.099L419.237 371.715L419.588 348.112L409.091 430.925L449.447 431.714L446.135 405.622L428.524 406.2L444.155 389.957L444.032 388.888L422.549 396.247L441.982 372.714L440.247 359.099Z" fill="black"/>
<path d="M284.871 224.89C284.871 224.89 290.829 222.805 292.126 225.1C293.422 227.396 294.929 237.367 294.894 238.786C294.859 240.205 294.368 241.502 291.67 240.538C288.971 239.574 284.661 230.795 284.661 230.795L284.871 224.89Z" fill="white"/>
<path d="M293.265 241.817C292.616 241.8 291.976 241.669 291.372 241.432C288.498 240.363 284.643 232.775 283.907 231.251C283.881 231.118 283.881 230.981 283.907 230.848L284.082 224.96C284.086 224.783 284.143 224.611 284.247 224.467C284.35 224.324 284.494 224.214 284.661 224.154C285.782 223.769 291.39 221.964 292.967 224.767C294.351 227.203 295.911 237.437 295.858 238.908C295.883 239.382 295.798 239.854 295.609 240.289C295.421 240.724 295.134 241.109 294.771 241.414C294.324 241.703 293.797 241.844 293.265 241.817ZM285.572 230.673C287.202 233.949 290.286 239.154 291.968 239.785C293.177 240.223 293.597 240.03 293.72 239.96C293.843 239.89 294.036 239.452 294.053 238.856C294.053 237.647 292.599 227.781 291.39 225.626C290.811 224.575 287.885 224.978 285.765 225.626L285.572 230.673Z" fill="#263238"/>
<path d="M258.797 256.502C258.797 256.502 264.317 221.017 264.439 217.162C264.562 213.307 269.696 210.153 272.149 209.207C274.603 208.261 288.621 208.716 290.11 208.769C291.6 208.822 297.593 208.506 297.54 210.521C297.488 212.536 296.962 213.395 291.95 214.201C286.939 215.007 274.953 215.638 274.953 215.638L271.816 220.369L286.693 223.208C286.693 223.208 290.198 224.75 289.567 227.151C288.936 229.551 287.202 240.083 287.166 241.519C287.131 242.956 285.589 243.885 282.032 246.198C279.909 247.572 277.521 248.485 275.023 248.879C275.023 248.879 275.303 256.116 273.271 257.01L268.207 259.27L267.506 300.677L244.638 298.084L258.797 256.502Z" fill="white"/>
<path d="M267.488 301.395H267.383L244.603 298.802C244.472 298.787 244.346 298.743 244.234 298.673C244.122 298.604 244.026 298.51 243.955 298.399C243.899 298.281 243.87 298.153 243.87 298.022C243.87 297.892 243.899 297.763 243.955 297.645L258.113 256.221C258.394 254.469 263.616 220.737 263.721 217.075C263.843 212.659 269.468 209.207 272.009 208.313C274.55 207.42 285.607 207.683 290.286 207.823H291.074C293.983 207.823 296.909 207.91 298.083 209.102C298.25 209.27 298.381 209.47 298.468 209.689C298.556 209.909 298.598 210.145 298.591 210.381C298.591 213.15 297.155 214.113 292.266 214.92C287.745 215.655 277.862 216.216 275.619 216.339L273.464 219.598L287.044 222.192H287.237C287.394 222.192 291.337 224.067 290.601 227.133C289.988 229.709 288.253 240.065 288.218 241.344C288.218 243.096 286.588 244.2 283.154 246.426L282.698 246.724C280.669 248.019 278.417 248.928 276.057 249.405C276.057 251.788 275.882 256.659 273.779 257.605L269.24 259.638L268.54 300.484C268.536 300.607 268.508 300.727 268.457 300.839C268.406 300.95 268.332 301.05 268.242 301.133C268.146 301.233 268.028 301.309 267.897 301.355C267.766 301.4 267.626 301.414 267.488 301.395ZM245.83 297.26L266.63 299.643L267.313 259.2C267.319 259.035 267.372 258.875 267.465 258.739C267.558 258.602 267.687 258.495 267.839 258.429L272.885 256.169C273.761 255.766 274.235 251.998 274.112 248.862C274.101 248.64 274.175 248.423 274.318 248.254C274.461 248.085 274.663 247.977 274.883 247.95C277.262 247.582 279.537 246.716 281.559 245.41L282.032 245.112C285.029 243.149 286.255 242.325 286.29 241.449C286.29 239.837 288.2 229.183 288.726 226.888C289.076 225.416 286.974 224.224 286.431 223.996L271.659 221.175C271.516 221.147 271.382 221.084 271.269 220.993C271.156 220.901 271.067 220.783 271.01 220.65C270.946 220.522 270.912 220.381 270.912 220.238C270.912 220.095 270.946 219.954 271.01 219.826L274.129 215.095C274.21 214.982 274.315 214.889 274.436 214.823C274.558 214.756 274.692 214.717 274.83 214.709C274.935 214.709 286.816 214.096 291.722 213.29C296.629 212.484 296.541 211.73 296.576 210.434C296.419 210.171 295.472 209.68 290.934 209.68H289.988C282.979 209.47 274.094 209.452 272.36 210.066C269.994 210.907 265.35 213.956 265.228 217.233C265.105 221.088 259.813 255.222 259.585 256.677C259.585 256.677 259.585 256.782 259.585 256.817L245.83 297.26Z" fill="#263238"/>
<path d="M288.376 229.954H288.218L270.169 226.713C269.937 226.671 269.731 226.538 269.596 226.344C269.461 226.151 269.409 225.911 269.451 225.679C269.493 225.446 269.625 225.24 269.819 225.105C270.013 224.971 270.252 224.918 270.485 224.96L288.533 228.22C288.766 228.24 288.98 228.353 289.13 228.532C289.279 228.711 289.352 228.942 289.331 229.175C289.31 229.407 289.197 229.621 289.018 229.771C288.839 229.92 288.608 229.993 288.376 229.972V229.954Z" fill="#263238"/>
<path d="M286.325 238.05H286.133L271.273 234.44C271.041 234.387 270.839 234.243 270.713 234.041C270.586 233.839 270.545 233.595 270.599 233.362C270.652 233.13 270.796 232.928 270.998 232.802C271.2 232.675 271.444 232.634 271.676 232.688L286.553 236.298C286.666 236.322 286.772 236.369 286.865 236.436C286.958 236.503 287.037 236.588 287.096 236.687C287.155 236.785 287.193 236.895 287.209 237.009C287.224 237.123 287.215 237.238 287.184 237.349C287.147 237.548 287.04 237.728 286.883 237.856C286.726 237.985 286.528 238.053 286.325 238.05Z" fill="#263238"/>
<path d="M274.988 249.668C274.841 249.671 274.695 249.635 274.566 249.564C274.437 249.494 274.329 249.39 274.252 249.265C273.621 248.283 272.202 245.883 272.675 244.568C272.749 244.359 272.872 244.171 273.034 244.018C273.195 243.866 273.391 243.754 273.604 243.692C274.988 243.272 278.212 242.448 278.212 242.448L278.65 244.2C278.65 244.2 275.777 244.936 274.322 245.357C274.613 246.435 275.087 247.454 275.724 248.371C275.849 248.566 275.892 248.803 275.843 249.03C275.793 249.256 275.656 249.454 275.461 249.58C275.313 249.648 275.151 249.678 274.988 249.668Z" fill="#263238"/>
<path d="M246.688 276.635L271.396 285.958C271.396 285.958 254.188 393.969 250.053 402.45C245.917 410.932 236.245 420.779 223.768 421.971C211.292 423.163 202.268 409.705 201.9 395.564C201.532 381.423 246.688 276.635 246.688 276.635Z" fill="#92E3A9"/>
<path d="M222.174 422.917C217.864 422.875 213.723 421.232 210.556 418.309C204.879 413.262 201.199 404.571 200.971 395.529C200.586 381.423 244.043 280.508 245.882 276.215C245.975 276.009 246.143 275.847 246.352 275.762C246.561 275.677 246.794 275.676 247.004 275.759L271.711 285.064C271.901 285.131 272.061 285.263 272.163 285.436C272.266 285.608 272.304 285.812 272.272 286.01C271.571 290.426 254.994 394.267 250.824 402.748C246.373 411.86 236.28 421.585 223.786 422.777C223.26 422.9 222.717 422.917 222.174 422.917ZM247.162 277.757C243.061 287.324 202.373 382.457 202.723 395.546C202.934 404.045 206.386 412.263 211.73 416.994C213.312 418.479 215.19 419.612 217.24 420.318C219.291 421.025 221.468 421.29 223.628 421.095C235.439 419.973 245.006 410.721 249.264 402.065C253.137 394.162 268.925 295.876 270.432 286.518L247.162 277.757Z" fill="#263238"/>
<path opacity="0.3" d="M226.239 367.072C220.212 370.145 213.919 372.667 207.437 374.606C205.212 381.072 203.512 386.557 202.601 390.482L214.288 389.01C222.616 388.051 230.831 386.29 238.821 383.753C238.821 383.753 219.545 395.687 202.355 397.684H201.952C203.091 410.967 211.783 423.163 223.698 422.024C236.227 420.832 245.882 410.967 249.983 402.503C252.015 398.333 257.202 370.191 261.951 342.627C250.943 352.012 238.972 360.206 226.239 367.072Z" fill="black"/>
<path d="M490.678 91.1197V86.3184C490.678 85.6399 490.409 84.9892 489.929 84.5094C489.449 84.0296 488.798 83.76 488.12 83.76H484.423C483.861 81.3408 482.901 79.0315 481.584 76.9261L484.195 74.2976C484.673 73.8152 484.942 73.1634 484.942 72.484C484.942 71.8046 484.673 71.1528 484.195 70.6704L480.813 67.2884C480.33 66.8101 479.679 66.5417 478.999 66.5417C478.32 66.5417 477.668 66.8101 477.186 67.2884L474.557 69.8994C472.452 68.5818 470.142 67.6226 467.723 67.0606V63.3633C467.723 62.6848 467.454 62.034 466.974 61.5543C466.494 61.0745 465.843 60.8049 465.165 60.8049H460.364C459.685 60.8049 459.034 61.0745 458.555 61.5543C458.075 62.034 457.805 62.6848 457.805 63.3633V67.0606C455.386 67.6226 453.077 68.5818 450.971 69.8994L448.343 67.2884C447.86 66.8101 447.209 66.5417 446.529 66.5417C445.85 66.5417 445.198 66.8101 444.716 67.2884L441.334 70.6704C440.855 71.1528 440.587 71.8046 440.587 72.484C440.587 73.1634 440.855 73.8152 441.334 74.2976L443.945 76.9261C442.626 79.0287 441.672 81.3393 441.123 83.76H437.408C436.73 83.76 436.079 84.0296 435.599 84.5094C435.12 84.9892 434.85 85.6399 434.85 86.3184V91.1197C434.85 91.7982 435.12 92.4489 435.599 92.9287C436.079 93.4085 436.73 93.6781 437.408 93.6781H441.123C441.672 96.0988 442.626 98.4094 443.945 100.512L441.334 103.14C440.855 103.623 440.587 104.275 440.587 104.954C440.587 105.633 440.855 106.285 441.334 106.768L444.716 110.15C445.198 110.628 445.85 110.896 446.529 110.896C447.209 110.896 447.86 110.628 448.343 110.15L450.971 107.539C453.088 108.875 455.417 109.841 457.858 110.395V114.11C457.858 114.788 458.127 115.439 458.607 115.919C459.087 116.399 459.738 116.668 460.416 116.668H465.217C465.896 116.668 466.547 116.399 467.026 115.919C467.506 115.439 467.776 114.788 467.776 114.11V110.395C470.197 109.847 472.507 108.893 474.61 107.574L477.238 110.185C477.721 110.663 478.372 110.931 479.052 110.931C479.731 110.931 480.383 110.663 480.865 110.185L484.142 106.89C484.621 106.408 484.889 105.756 484.889 105.077C484.889 104.397 484.621 103.746 484.142 103.263L481.531 100.635C482.849 98.5292 483.808 96.2199 484.37 93.8007H488.067C488.418 93.8083 488.767 93.7436 489.092 93.6107C489.417 93.4777 489.711 93.2793 489.956 93.0279C490.201 92.7764 490.391 92.4772 490.516 92.1489C490.64 91.8207 490.695 91.4703 490.678 91.1197ZM463.886 99.6359C461.63 99.8768 459.354 99.4121 457.373 98.3058C455.392 97.1996 453.803 95.5062 452.824 93.4591C451.846 91.4119 451.526 89.1117 451.909 86.8753C452.293 84.6389 453.36 82.5764 454.965 80.9719C456.569 79.3675 458.632 78.3001 460.868 77.9168C463.104 77.5334 465.405 77.853 467.452 78.8316C469.499 79.8101 471.192 81.3994 472.298 83.3804C473.405 85.3615 473.869 87.6369 473.628 89.8931C473.37 92.3941 472.262 94.731 470.489 96.5137C468.716 98.2964 466.385 99.417 463.886 99.6884V99.6359Z" fill="#263238"/>
<path d="M42.0902 300.449V296.839C42.0902 296.323 41.8853 295.829 41.5205 295.464C41.1557 295.099 40.661 294.894 40.1451 294.894H37.3064C36.8845 293.07 36.1621 291.329 35.1686 289.743L37.1487 287.78C37.3288 287.601 37.4718 287.388 37.5693 287.153C37.6669 286.919 37.7171 286.667 37.7171 286.413C37.7171 286.159 37.6669 285.908 37.5693 285.673C37.4718 285.438 37.3288 285.226 37.1487 285.046L34.5904 282.488C34.4112 282.308 34.1983 282.165 33.9637 282.067C33.7291 281.97 33.4776 281.92 33.2236 281.92C32.9695 281.92 32.718 281.97 32.4834 282.067C32.2489 282.165 32.0359 282.308 31.8568 282.488L29.8767 284.451C28.2921 283.457 26.55 282.74 24.7249 282.33V279.527C24.7249 279.015 24.5218 278.525 24.1604 278.164C23.7989 277.802 23.3086 277.599 22.7974 277.599H19.2402C18.7274 277.599 18.2353 277.802 17.871 278.163C17.5068 278.524 17.2998 279.014 17.2952 279.527V282.33C15.4701 282.74 13.728 283.457 12.1434 284.451L10.1633 282.488C9.9842 282.308 9.77124 282.165 9.53667 282.067C9.30211 281.97 9.05058 281.92 8.79654 281.92C8.5425 281.92 8.29096 281.97 8.05639 282.067C7.82183 282.165 7.60886 282.308 7.42974 282.488L4.88891 285.046C4.70664 285.224 4.5618 285.437 4.46291 285.672C4.36402 285.906 4.31307 286.158 4.31307 286.413C4.31307 286.668 4.36402 286.92 4.46291 287.155C4.5618 287.389 4.70664 287.602 4.88891 287.78L6.85149 289.743C5.85805 291.329 5.13558 293.07 4.71368 294.894H1.92752C1.41471 294.899 0.924475 295.106 0.563489 295.47C0.202502 295.834 -2.08103e-05 296.327 1.60387e-09 296.839V300.449C1.60387e-09 300.96 0.203077 301.451 0.564558 301.812C0.92604 302.174 1.41631 302.377 1.92752 302.377H4.71368C5.12922 304.203 5.85212 305.945 6.85149 307.528L4.88891 309.508C4.70664 309.686 4.5618 309.899 4.46291 310.134C4.36402 310.368 4.31307 310.621 4.31307 310.875C4.31307 311.13 4.36402 311.382 4.46291 311.617C4.5618 311.852 4.70664 312.064 4.88891 312.242L7.51736 314.8C7.69648 314.981 7.90945 315.123 8.14402 315.221C8.37858 315.319 8.63011 315.369 8.88415 315.369C9.13819 315.369 9.38972 315.319 9.62428 315.221C9.85884 315.123 10.0718 314.981 10.2509 314.8L12.231 312.82C13.8148 313.82 15.5568 314.543 17.3828 314.958V317.744C17.3828 318.26 17.5877 318.755 17.9525 319.12C18.3172 319.484 18.812 319.689 19.3278 319.689H22.9376C23.4504 319.685 23.9406 319.478 24.3016 319.113C24.6626 318.749 24.8651 318.257 24.8651 317.744V314.958C26.6911 314.543 28.4331 313.82 30.0169 312.82L31.997 314.8C32.1761 314.981 32.389 315.123 32.6236 315.221C32.8582 315.319 33.1097 315.369 33.3637 315.369C33.6178 315.369 33.8693 315.319 34.1039 315.221C34.3384 315.123 34.5514 314.981 34.7305 314.8L37.2889 312.242C37.469 312.063 37.612 311.85 37.7095 311.615C37.8071 311.381 37.8573 311.129 37.8573 310.875C37.8573 310.621 37.8071 310.37 37.7095 310.135C37.612 309.901 37.469 309.688 37.2889 309.508L35.3088 307.528C36.3082 305.945 37.0311 304.203 37.4466 302.377H40.2327C40.7303 302.354 41.2002 302.142 41.5458 301.783C41.8913 301.425 42.0862 300.947 42.0902 300.449ZM21.8862 306.862C20.1868 307.038 18.4748 306.683 16.9854 305.846C15.4959 305.01 14.3021 303.732 13.568 302.189C12.8339 300.647 12.5955 298.915 12.8855 297.231C13.1756 295.548 13.9799 293.995 15.1879 292.787C16.396 291.579 17.9484 290.775 19.632 290.485C21.3156 290.195 23.0477 290.433 24.5903 291.167C26.133 291.901 27.4104 293.095 28.2472 294.584C29.0839 296.074 29.4389 297.786 29.2634 299.485C29.0681 301.375 28.2282 303.14 26.8847 304.484C25.5412 305.827 23.7761 306.667 21.8862 306.862Z" fill="#263238"/>
<path d="M579.327 252.331V248.721C579.327 248.205 579.122 247.711 578.757 247.346C578.393 246.981 577.898 246.776 577.382 246.776H574.596C574.18 244.95 573.457 243.208 572.458 241.625L574.438 239.662C574.618 239.483 574.761 239.27 574.859 239.035C574.956 238.801 575.007 238.549 575.007 238.295C575.007 238.041 574.956 237.79 574.859 237.555C574.761 237.32 574.618 237.108 574.438 236.928L571.88 234.37C571.701 234.19 571.488 234.047 571.253 233.949C571.019 233.852 570.767 233.802 570.513 233.802C570.259 233.802 570.007 233.852 569.773 233.949C569.538 234.047 569.325 234.19 569.146 234.37L567.166 236.333C565.579 235.34 563.838 234.618 562.014 234.195V231.304C562.014 231.05 561.965 230.8 561.868 230.566C561.771 230.332 561.629 230.12 561.45 229.941C561.271 229.762 561.058 229.62 560.824 229.523C560.591 229.426 560.34 229.376 560.087 229.376H556.46C555.948 229.376 555.458 229.579 555.097 229.941C554.735 230.302 554.532 230.792 554.532 231.304V234.09C552.709 234.513 550.968 235.235 549.38 236.227L547.4 234.265C547.221 234.085 547.008 233.942 546.774 233.844C546.539 233.747 546.287 233.697 546.033 233.697C545.779 233.697 545.528 233.747 545.293 233.844C545.059 233.942 544.846 234.085 544.667 234.265L542.126 236.823C541.944 237.001 541.799 237.214 541.7 237.448C541.601 237.683 541.55 237.935 541.55 238.19C541.55 238.445 541.601 238.697 541.7 238.932C541.799 239.166 541.944 239.379 542.126 239.557L544.088 241.519C543.089 243.103 542.366 244.845 541.951 246.671H539.164C538.652 246.676 538.161 246.883 537.8 247.247C537.439 247.611 537.237 248.103 537.237 248.616V252.331C537.237 252.842 537.44 253.333 537.801 253.694C538.163 254.056 538.653 254.259 539.164 254.259H541.968C542.384 256.085 543.107 257.827 544.106 259.41L542.143 261.39C541.961 261.568 541.816 261.781 541.717 262.016C541.618 262.25 541.568 262.503 541.568 262.757C541.568 263.012 541.618 263.264 541.717 263.499C541.816 263.734 541.961 263.946 542.143 264.124L544.684 266.682C544.863 266.863 545.076 267.006 545.311 267.103C545.545 267.201 545.797 267.251 546.051 267.251C546.305 267.251 546.557 267.201 546.791 267.103C547.026 267.006 547.239 266.863 547.418 266.682L549.398 264.702C550.982 265.702 552.724 266.425 554.55 266.84V269.626C554.55 270.139 554.752 270.631 555.113 270.995C555.474 271.36 555.964 271.567 556.477 271.571H560.104C560.617 271.567 561.107 271.36 561.468 270.995C561.829 270.631 562.032 270.139 562.032 269.626V266.84C563.858 266.425 565.6 265.702 567.184 264.702L569.164 266.682C569.343 266.863 569.556 267.006 569.79 267.103C570.025 267.201 570.276 267.251 570.531 267.251C570.785 267.251 571.036 267.201 571.271 267.103C571.505 267.006 571.718 266.863 571.897 266.682L574.456 264.124C574.636 263.945 574.779 263.732 574.876 263.497C574.974 263.263 575.024 263.011 575.024 262.757C575.024 262.503 574.974 262.252 574.876 262.017C574.779 261.783 574.636 261.57 574.456 261.39L572.458 259.34C573.457 257.757 574.18 256.014 574.596 254.189H577.382C577.883 254.189 578.365 253.996 578.727 253.65C579.09 253.304 579.305 252.832 579.327 252.331ZM559.123 258.744C557.424 258.92 555.712 258.565 554.222 257.728C552.733 256.892 551.539 255.614 550.805 254.071C550.071 252.529 549.832 250.797 550.122 249.113C550.412 247.43 551.217 245.877 552.425 244.669C553.633 243.461 555.185 242.657 556.869 242.367C558.552 242.077 560.285 242.315 561.827 243.049C563.37 243.783 564.647 244.977 565.484 246.466C566.321 247.956 566.676 249.668 566.5 251.367C566.297 253.251 565.454 255.008 564.111 256.344C562.769 257.681 561.008 258.516 559.123 258.709V258.744Z" fill="#263238"/>
<path d="M284.012 17.1728V15.3153C284.012 15.185 283.986 15.0559 283.936 14.9357C283.886 14.8155 283.812 14.7065 283.719 14.6152C283.626 14.5238 283.516 14.4519 283.394 14.4036C283.273 14.3554 283.144 14.3317 283.014 14.334H281.594C281.374 13.3974 281.001 12.5034 280.49 11.6881L281.507 10.6892C281.691 10.5024 281.794 10.2506 281.794 9.98832C281.794 9.72603 281.691 9.47428 281.507 9.28742L280.192 7.97319C280.008 7.79021 279.76 7.68748 279.5 7.68748C279.241 7.68748 278.992 7.79021 278.808 7.97319L277.792 8.98952C276.976 8.47874 276.082 8.10577 275.146 7.88557V6.46622C275.146 6.20432 275.043 5.95289 274.859 5.76607C274.676 5.57925 274.426 5.472 274.164 5.46741H272.307C272.045 5.472 271.796 5.57925 271.612 5.76607C271.428 5.95289 271.326 6.20432 271.326 6.46622V7.88557C270.388 8.10361 269.494 8.47672 268.68 8.98952L267.663 7.97319C267.477 7.78913 267.225 7.68595 266.962 7.68595C266.7 7.68595 266.448 7.78913 266.262 7.97319L264.965 9.28742C264.781 9.47428 264.678 9.72603 264.678 9.98832C264.678 10.2506 264.781 10.5024 264.965 10.6892L265.964 11.6881C265.459 12.5046 265.092 13.3985 264.877 14.334H263.44C263.18 14.334 262.931 14.4374 262.747 14.6214C262.562 14.8055 262.459 15.0551 262.459 15.3153V17.1728C262.459 17.4346 262.562 17.6861 262.745 17.8729C262.929 18.0597 263.179 18.167 263.44 18.1716H264.877C265.089 19.1025 265.456 19.9911 265.964 20.8L264.965 21.8163C264.781 22.0032 264.678 22.255 264.678 22.5173C264.678 22.7795 264.781 23.0313 264.965 23.2182L266.262 24.5324C266.448 24.7165 266.7 24.8196 266.962 24.8196C267.225 24.8196 267.477 24.7165 267.663 24.5324L268.68 23.5161C269.491 24.0307 270.387 24.3985 271.326 24.6025V26.0394C271.326 26.2996 271.429 26.5492 271.613 26.7333C271.797 26.9173 272.047 27.0207 272.307 27.0207H274.164C274.425 27.0207 274.674 26.9173 274.858 26.7333C275.042 26.5492 275.146 26.2996 275.146 26.0394V24.5324C276.084 24.325 276.979 23.9575 277.792 23.446L278.808 24.4623C278.992 24.6453 279.241 24.748 279.5 24.748C279.76 24.748 280.008 24.6453 280.192 24.4623L281.507 23.1481C281.691 22.9612 281.794 22.7095 281.794 22.4472C281.794 22.1849 281.691 21.9331 281.507 21.7463L280.49 20.7299C281.003 19.9219 281.376 19.0333 281.594 18.1015H283.014C283.267 18.1021 283.511 18.0065 283.696 17.8341C283.882 17.6617 283.995 17.4253 284.012 17.1728ZM273.674 20.4671C272.801 20.5753 271.917 20.4097 271.143 19.9932C270.369 19.5767 269.743 18.93 269.352 18.1424C268.962 17.3547 268.826 16.4652 268.963 15.5969C269.1 14.7286 269.504 13.9244 270.118 13.2956C270.733 12.6667 271.527 12.2443 272.392 12.0868C273.257 11.9293 274.149 12.0445 274.946 12.4164C275.742 12.7884 276.404 13.3986 276.838 14.1629C277.273 14.9271 277.459 15.8074 277.371 16.6821C277.272 17.6375 276.853 18.5314 276.182 19.2186C275.51 19.9057 274.627 20.3457 273.674 20.4671Z" fill="#263238"/>
<path d="M58.5969 139.869H46.6813V151.784H58.5969V139.869ZM49.0995 142.287H56.1086V149.384H49.0995V142.287Z" fill="#263238"/>
<path d="M539.918 372.731H527.95V384.647H539.865L539.918 372.731ZM530.403 375.15H537.5V382.246H530.403V375.15Z" fill="#263238"/>
<path d="M361.149 31.4014H349.215V43.317H361.131L361.149 31.4014ZM351.634 33.802H358.73V40.8112H351.634V33.802Z" fill="#263238"/>
<path d="M51.5877 330.151H39.6721V342.084H51.5877V330.151ZM42.0727 332.569H49.0819V339.578H42.0727V332.569Z" fill="#263238"/>
<path opacity="0.9" d="M399.506 113.9C398.088 113.896 396.701 114.313 395.52 115.099C394.339 115.884 393.418 117.002 392.873 118.312C392.327 119.621 392.183 121.062 392.458 122.454C392.732 123.845 393.413 125.124 394.415 126.128C395.417 127.132 396.694 127.816 398.084 128.094C399.475 128.372 400.917 128.231 402.227 127.689C403.538 127.148 404.658 126.229 405.447 125.05C406.235 123.871 406.656 122.485 406.656 121.066C406.656 119.169 405.903 117.348 404.563 116.005C403.223 114.661 401.404 113.904 399.506 113.9ZM399.506 125.36C398.657 125.36 397.827 125.108 397.121 124.636C396.415 124.164 395.865 123.494 395.54 122.709C395.215 121.925 395.13 121.062 395.296 120.229C395.461 119.396 395.87 118.631 396.471 118.031C397.071 117.43 397.836 117.021 398.669 116.856C399.502 116.69 400.365 116.775 401.149 117.1C401.934 117.425 402.604 117.975 403.076 118.681C403.548 119.387 403.8 120.217 403.8 121.066C403.781 122.193 403.321 123.267 402.518 124.057C401.714 124.847 400.633 125.29 399.506 125.289V125.36Z" fill="#263238"/>
<path d="M272.114 147.509L256.063 125.289C259.007 125.28 261.827 124.107 263.909 122.025C265.99 119.944 267.164 117.124 267.173 114.18V53.6906C267.159 50.7484 265.984 47.9307 263.904 45.8502C261.823 43.7698 259.005 42.5949 256.063 42.5811H116.58C113.637 42.5903 110.816 43.7637 108.735 45.8452C106.653 47.9266 105.48 50.747 105.471 53.6906V114.18C105.475 117.125 106.647 119.948 108.73 122.03C110.812 124.113 113.635 125.285 116.58 125.289H237.191L272.114 147.509Z" fill="#263238"/>
<path d="M151.819 81.4646C151.819 80.1199 151.42 78.8054 150.673 77.6873C149.926 76.5692 148.864 75.6978 147.622 75.1832C146.38 74.6686 145.013 74.534 143.694 74.7963C142.375 75.0586 141.163 75.7062 140.213 76.657C139.262 77.6079 138.614 78.8193 138.352 80.1382C138.09 81.457 138.224 82.8241 138.739 84.0664C139.253 85.3087 140.125 86.3706 141.243 87.1176C142.361 87.8647 143.675 88.2635 145.02 88.2635C145.913 88.2635 146.797 88.0876 147.622 87.7459C148.447 87.4043 149.196 86.9035 149.828 86.2721C150.459 85.6408 150.96 84.8913 151.302 84.0664C151.643 83.2415 151.819 82.3574 151.819 81.4646Z" fill="#92E3A9"/>
<path d="M191.929 81.4645C191.929 80.1191 191.53 78.8039 190.782 77.6855C190.034 76.567 188.971 75.6956 187.728 75.1815C186.485 74.6674 185.117 74.5338 183.797 74.7976C182.478 75.0613 181.267 75.7106 180.317 76.6632C179.366 77.6158 178.72 78.8289 178.46 80.1489C178.2 81.4689 178.337 82.8365 178.854 84.0785C179.371 85.3206 180.245 86.3812 181.366 87.1261C182.486 87.8711 183.802 88.2669 185.148 88.2634C186.04 88.2634 186.923 88.0875 187.747 87.7456C188.571 87.4037 189.319 86.9026 189.949 86.271C190.579 85.6395 191.078 84.8898 191.418 84.065C191.758 83.2403 191.931 82.3566 191.929 81.4645Z" fill="#92E3A9"/>
<path d="M232.057 81.4646C232.057 80.1199 231.658 78.8054 230.911 77.6873C230.164 76.5692 229.102 75.6978 227.86 75.1832C226.617 74.6686 225.25 74.534 223.931 74.7963C222.613 75.0586 221.401 75.7062 220.45 76.657C219.499 77.6079 218.852 78.8193 218.59 80.1382C218.327 81.457 218.462 82.8241 218.976 84.0664C219.491 85.3087 220.362 86.3706 221.481 87.1176C222.599 87.8647 223.913 88.2635 225.258 88.2635C226.151 88.2635 227.035 88.0876 227.86 87.7459C228.685 87.4043 229.434 86.9035 230.065 86.2721C230.697 85.6408 231.197 84.8913 231.539 84.0664C231.881 83.2415 232.057 82.3574 232.057 81.4646Z" fill="#92E3A9"/>
</svg>
