<svg width="562" height="545" viewBox="0 0 562 545" fill="none" xmlns="http://www.w3.org/2000/svg">
<path d="M242.142 544.728C360.214 544.728 455.931 538.765 455.931 531.409C455.931 524.053 360.214 518.091 242.142 518.091C124.069 518.091 28.352 524.053 28.352 531.409C28.352 538.765 124.069 544.728 242.142 544.728Z" fill="#92E3A9"/>
<path opacity="0.8" d="M242.142 544.728C360.214 544.728 455.931 538.765 455.931 531.409C455.931 524.053 360.214 518.091 242.142 518.091C124.069 518.091 28.352 524.053 28.352 531.409C28.352 538.765 124.069 544.728 242.142 544.728Z" fill="white"/>
<path d="M402.795 24.9554H187.83C172.989 24.9554 160.957 36.9866 160.957 51.8278V505.657C160.957 520.498 172.989 532.53 187.83 532.53H402.795C417.636 532.53 429.667 520.498 429.667 505.657V51.8278C429.667 36.9866 417.636 24.9554 402.795 24.9554Z" fill="#263238"/>
<path d="M417.718 80.6917H172.893V476.793H417.718V80.6917Z" fill="white" stroke="#263238" stroke-width="1.33739" stroke-miterlimit="10"/>
<path d="M332.836 241.085C353.56 220.361 353.56 186.761 332.836 166.037C312.112 145.313 278.512 145.313 257.788 166.037C237.064 186.761 237.064 220.361 257.788 241.085C278.512 261.809 312.112 261.809 332.836 241.085Z" fill="#92E3A9"/>
<path d="M364.983 451.885H225.656C225.342 451.886 225.031 451.826 224.741 451.708C224.451 451.589 224.187 451.414 223.965 451.193C223.742 450.972 223.566 450.709 223.446 450.419C223.325 450.13 223.263 449.819 223.263 449.506C223.261 449.191 223.322 448.879 223.442 448.588C223.561 448.297 223.737 448.032 223.96 447.81C224.182 447.587 224.447 447.411 224.738 447.292C225.029 447.172 225.341 447.111 225.656 447.113H364.983C365.296 447.113 365.607 447.175 365.896 447.296C366.186 447.416 366.449 447.592 366.67 447.815C366.891 448.037 367.066 448.301 367.185 448.591C367.303 448.881 367.364 449.192 367.362 449.506C367.362 450.137 367.111 450.742 366.665 451.188C366.219 451.634 365.614 451.885 364.983 451.885Z" fill="#92E3A9"/>
<path d="M369.519 286.46H221.106C218.043 286.46 215.56 288.943 215.56 292.006V309.501C215.56 312.564 218.043 315.047 221.106 315.047H369.519C372.582 315.047 375.065 312.564 375.065 309.501V292.006C375.065 288.943 372.582 286.46 369.519 286.46Z" fill="#92E3A9"/>
<path d="M369.519 339.928H221.106C218.043 339.928 215.56 342.411 215.56 345.474V362.969C215.56 366.032 218.043 368.515 221.106 368.515H369.519C372.582 368.515 375.065 366.032 375.065 362.969V345.474C375.065 342.411 372.582 339.928 369.519 339.928Z" fill="#92E3A9"/>
<path d="M321.735 230.032L306.121 221.042V213.615C308.382 210.88 310.02 207.685 310.92 204.252C311.457 204.443 312.023 204.541 312.593 204.543C314.53 204.543 315.761 198.54 315.968 194.253C318.222 189.481 315.152 186.688 315.152 186.688C315.152 186.688 316.424 185.415 317.268 180.312C318.112 175.208 314.295 177.338 311.321 172.664C308.348 167.989 306.218 162.899 296.453 162.899C293.763 162.811 291.108 163.534 288.834 164.974C286.56 166.415 284.772 168.506 283.702 170.976C281.271 170.985 278.85 171.268 276.482 171.82C273.495 172.664 272.651 182.442 275.196 186.273C276.335 188.366 276.943 190.708 276.966 193.091C276.289 192.261 275.583 192.04 275.196 193.921C274.353 198.167 277.755 204.114 277.755 204.114L279.511 203.616C280.396 207.284 282.103 210.704 284.504 213.615V221.042L268.89 230.032C267.066 231.085 265.552 232.599 264.498 234.422C263.444 236.245 262.889 238.313 262.887 240.418V245.563C272.174 252.737 283.577 256.629 295.312 256.629C307.047 256.629 318.451 252.737 327.738 245.563V240.418C327.739 238.312 327.184 236.243 326.131 234.42C325.077 232.596 323.561 231.083 321.735 230.032Z" fill="#263238"/>
<path d="M235.766 361.406C235.408 361.401 235.066 361.258 234.812 361.005C234.675 360.884 234.567 360.734 234.493 360.567C234.419 360.401 234.381 360.22 234.383 360.037C234.387 359.788 234.459 359.544 234.59 359.332L237.08 355.349L232.225 355.501C232.042 355.512 231.859 355.485 231.687 355.421C231.516 355.356 231.36 355.256 231.229 355.127C231.004 354.874 230.879 354.547 230.879 354.208C230.879 353.869 231.004 353.541 231.229 353.288C231.357 353.154 231.512 353.05 231.684 352.984C231.856 352.917 232.041 352.888 232.225 352.901L237.011 353.081L234.549 349.111C234.415 348.895 234.343 348.646 234.341 348.392C234.34 348.21 234.378 348.029 234.451 347.862C234.525 347.695 234.634 347.546 234.77 347.424C235.024 347.172 235.366 347.028 235.724 347.023C235.96 347.024 236.19 347.093 236.389 347.22C236.587 347.347 236.745 347.528 236.845 347.742L239.21 352.016L241.547 347.77C241.658 347.543 241.829 347.351 242.041 347.215C242.253 347.078 242.498 347.002 242.75 346.995C242.925 346.996 243.098 347.034 243.257 347.105C243.417 347.177 243.56 347.28 243.677 347.41C243.931 347.673 244.07 348.026 244.064 348.392C244.063 348.63 244.001 348.863 243.884 349.07L241.381 353.081L246.235 352.901C246.42 352.888 246.604 352.917 246.776 352.984C246.949 353.05 247.104 353.154 247.231 353.288C247.467 353.533 247.596 353.861 247.591 354.201C247.59 354.544 247.462 354.874 247.231 355.127C247.101 355.256 246.945 355.356 246.773 355.421C246.602 355.485 246.418 355.512 246.235 355.501L241.353 355.349L243.787 359.29C243.924 359.511 243.996 359.765 243.995 360.023C243.995 360.39 243.849 360.742 243.59 361.001C243.33 361.261 242.979 361.406 242.612 361.406C242.375 361.403 242.144 361.331 241.947 361.198C241.751 361.066 241.597 360.878 241.505 360.66L239.196 356.511L236.9 360.66C236.798 360.877 236.638 361.061 236.438 361.193C236.238 361.325 236.005 361.399 235.766 361.406Z" fill="#263238"/>
<path d="M258.199 361.406C257.841 361.401 257.499 361.258 257.244 361.005C257.108 360.884 257 360.734 256.926 360.568C256.852 360.401 256.814 360.22 256.816 360.037C256.82 359.788 256.892 359.544 257.023 359.332L259.513 355.349L254.672 355.501C254.487 355.509 254.303 355.481 254.129 355.416C253.956 355.352 253.797 355.254 253.662 355.128C253.479 354.938 253.356 354.698 253.311 354.438C253.266 354.178 253.3 353.911 253.409 353.67C253.518 353.43 253.697 353.228 253.922 353.091C254.147 352.954 254.409 352.888 254.672 352.901L259.443 353.081L256.982 349.111C256.848 348.895 256.776 348.646 256.774 348.392C256.773 348.21 256.81 348.029 256.884 347.862C256.958 347.695 257.067 347.546 257.203 347.424C257.457 347.172 257.799 347.028 258.157 347.023C258.393 347.024 258.623 347.093 258.822 347.22C259.02 347.347 259.178 347.528 259.277 347.742L261.642 352.016L263.98 347.77C264.091 347.543 264.261 347.351 264.473 347.215C264.686 347.078 264.931 347.002 265.183 346.995C265.358 346.995 265.531 347.031 265.691 347.103C265.851 347.174 265.994 347.279 266.11 347.41C266.238 347.539 266.339 347.693 266.408 347.861C266.477 348.03 266.512 348.21 266.511 348.392C266.506 348.631 266.439 348.864 266.317 349.07L263.814 353.081L268.682 352.928C268.864 352.916 269.047 352.945 269.217 353.012C269.387 353.078 269.539 353.182 269.664 353.316C269.9 353.561 270.029 353.889 270.024 354.229C270.023 354.571 269.895 354.902 269.664 355.155C269.536 355.284 269.383 355.384 269.213 355.448C269.044 355.512 268.863 355.54 268.682 355.529L263.786 355.376L266.22 359.318C266.357 359.538 266.429 359.792 266.428 360.051C266.428 360.418 266.282 360.77 266.023 361.029C265.763 361.288 265.412 361.434 265.045 361.434C264.808 361.431 264.577 361.359 264.38 361.226C264.183 361.093 264.03 360.906 263.938 360.687L261.629 356.538L259.333 360.687C259.227 360.899 259.066 361.078 258.866 361.205C258.666 361.331 258.435 361.401 258.199 361.406Z" fill="#263238"/>
<path d="M280.645 361.406C280.283 361.405 279.935 361.261 279.677 361.005C279.541 360.884 279.433 360.734 279.359 360.568C279.285 360.401 279.247 360.22 279.248 360.037C279.253 359.788 279.324 359.544 279.456 359.332L281.945 355.349L277.105 355.501C276.844 355.511 276.586 355.444 276.364 355.307C276.142 355.171 275.965 354.971 275.857 354.733C275.749 354.496 275.714 354.232 275.756 353.974C275.798 353.717 275.916 353.478 276.095 353.288C276.226 353.155 276.384 353.051 276.558 352.984C276.732 352.918 276.919 352.889 277.105 352.901L281.876 353.081L279.414 349.111C279.281 348.895 279.209 348.646 279.207 348.392C279.211 348.211 279.251 348.032 279.325 347.865C279.399 347.699 279.504 347.549 279.636 347.424C279.893 347.168 280.241 347.024 280.604 347.023C280.837 347.027 281.065 347.097 281.26 347.224C281.456 347.351 281.612 347.531 281.71 347.742L284.075 352.016L286.413 347.77C286.524 347.543 286.694 347.351 286.906 347.215C287.118 347.078 287.364 347.002 287.616 346.995C287.791 346.995 287.964 347.031 288.124 347.103C288.284 347.174 288.426 347.279 288.542 347.41C288.671 347.539 288.772 347.693 288.841 347.861C288.91 348.03 288.945 348.21 288.944 348.392C288.939 348.631 288.872 348.864 288.75 349.07L286.247 353.081L291.115 352.901C291.294 352.883 291.475 352.904 291.645 352.961C291.815 353.019 291.971 353.113 292.102 353.236C292.233 353.359 292.337 353.509 292.405 353.676C292.473 353.842 292.505 354.021 292.498 354.201C292.501 354.542 292.378 354.872 292.152 355.128C292.022 355.256 291.866 355.356 291.694 355.421C291.523 355.485 291.339 355.512 291.156 355.501L286.274 355.349L288.695 359.29C288.831 359.511 288.903 359.765 288.902 360.023C288.898 360.205 288.858 360.384 288.784 360.55C288.71 360.716 288.605 360.866 288.473 360.992C288.353 361.121 288.208 361.225 288.046 361.296C287.884 361.367 287.71 361.405 287.533 361.406C287.298 361.402 287.069 361.33 286.875 361.197C286.68 361.064 286.529 360.877 286.44 360.66L284.117 356.511L281.821 360.66C281.717 360.884 281.551 361.074 281.343 361.206C281.135 361.338 280.892 361.408 280.645 361.406Z" fill="#263238"/>
<path d="M303.078 361.406C302.715 361.405 302.368 361.261 302.11 361.005C301.85 360.75 301.7 360.402 301.695 360.037C301.691 359.789 301.758 359.544 301.889 359.332L304.378 355.349L299.538 355.501C299.353 355.509 299.168 355.481 298.995 355.416C298.822 355.352 298.663 355.254 298.528 355.128C298.302 354.874 298.178 354.547 298.178 354.208C298.178 353.869 298.302 353.541 298.528 353.288C298.662 353.159 298.82 353.058 298.993 352.992C299.167 352.925 299.352 352.894 299.538 352.901L304.323 353.081L301.875 349.111C301.741 348.895 301.669 348.646 301.668 348.392C301.672 348.211 301.712 348.032 301.786 347.865C301.859 347.699 301.965 347.549 302.096 347.424C302.354 347.168 302.702 347.024 303.064 347.023C303.3 347.024 303.53 347.093 303.729 347.22C303.927 347.347 304.085 347.528 304.185 347.742L306.536 352.016L308.873 347.77C308.984 347.543 309.155 347.351 309.367 347.215C309.579 347.078 309.824 347.002 310.076 346.995C310.251 346.995 310.425 347.031 310.584 347.103C310.744 347.174 310.887 347.279 311.003 347.41C311.131 347.539 311.233 347.693 311.301 347.861C311.37 348.03 311.405 348.21 311.404 348.392C311.399 348.631 311.332 348.864 311.21 349.07L308.707 353.081L313.575 352.901C313.754 352.883 313.935 352.904 314.106 352.961C314.276 353.019 314.432 353.113 314.563 353.236C314.694 353.359 314.797 353.509 314.865 353.676C314.934 353.842 314.965 354.021 314.958 354.201C314.961 354.542 314.838 354.872 314.613 355.128C314.482 355.256 314.326 355.356 314.155 355.421C313.983 355.485 313.8 355.512 313.617 355.501L308.735 355.349L311.155 359.29C311.292 359.511 311.363 359.765 311.363 360.023C311.364 360.206 311.326 360.387 311.252 360.554C311.179 360.721 311.07 360.87 310.934 360.992C310.813 361.121 310.668 361.225 310.506 361.296C310.345 361.367 310.17 361.405 309.993 361.406C309.758 361.402 309.529 361.33 309.335 361.197C309.141 361.064 308.99 360.877 308.901 360.66L306.577 356.511L304.281 360.66C304.176 360.888 304.006 361.081 303.792 361.214C303.578 361.346 303.33 361.413 303.078 361.406Z" fill="#263238"/>
<path d="M325.511 361.407C325.148 361.405 324.801 361.261 324.543 361.005C324.329 360.788 324.192 360.507 324.155 360.204C324.117 359.901 324.181 359.595 324.335 359.332L326.811 355.349L321.97 355.501C321.786 355.509 321.601 355.481 321.428 355.417C321.254 355.352 321.096 355.254 320.961 355.128C320.735 354.874 320.611 354.547 320.611 354.208C320.611 353.869 320.735 353.541 320.961 353.288C321.094 353.159 321.253 353.058 321.426 352.992C321.6 352.925 321.785 352.894 321.97 352.901L326.756 353.081L324.294 349.111C324.16 348.895 324.088 348.646 324.086 348.392C324.092 348.027 324.241 347.679 324.501 347.424C324.759 347.168 325.107 347.024 325.47 347.023C325.705 347.024 325.936 347.093 326.134 347.22C326.332 347.347 326.49 347.528 326.59 347.742L328.941 352.016L331.278 347.77C331.389 347.543 331.56 347.351 331.772 347.215C331.984 347.078 332.229 347.002 332.482 346.995C332.659 346.994 332.834 347.031 332.996 347.102C333.158 347.174 333.303 347.279 333.422 347.41C333.676 347.673 333.815 348.026 333.809 348.392C333.804 348.631 333.738 348.864 333.616 349.07L331.112 353.081L335.981 352.901C336.16 352.883 336.34 352.904 336.511 352.961C336.681 353.019 336.837 353.113 336.968 353.236C337.099 353.359 337.202 353.509 337.27 353.676C337.339 353.842 337.37 354.021 337.364 354.201C337.367 354.542 337.243 354.872 337.018 355.128C336.888 355.256 336.732 355.356 336.56 355.421C336.388 355.485 336.205 355.512 336.022 355.501L331.14 355.349L333.56 359.29C333.697 359.511 333.769 359.765 333.768 360.023C333.769 360.206 333.732 360.387 333.658 360.554C333.584 360.721 333.475 360.87 333.339 360.992C333.219 361.121 333.073 361.225 332.912 361.296C332.75 361.367 332.575 361.405 332.399 361.407C332.163 361.402 331.935 361.33 331.74 361.197C331.546 361.064 331.395 360.877 331.306 360.66L328.982 356.511L326.687 360.66C326.583 360.884 326.417 361.074 326.209 361.206C326 361.338 325.758 361.408 325.511 361.407Z" fill="#263238"/>
<path d="M347.944 361.407C347.586 361.401 347.244 361.258 346.99 361.005C346.853 360.884 346.745 360.734 346.671 360.568C346.597 360.401 346.559 360.22 346.561 360.037C346.565 359.788 346.637 359.544 346.768 359.332L349.244 355.349L344.403 355.501C344.225 355.514 344.046 355.491 343.878 355.431C343.71 355.372 343.556 355.278 343.425 355.156C343.295 355.033 343.192 354.885 343.122 354.721C343.053 354.556 343.018 354.379 343.02 354.201C343.019 354.032 343.052 353.864 343.116 353.707C343.18 353.551 343.274 353.408 343.394 353.288C343.521 353.154 343.676 353.05 343.848 352.984C344.021 352.917 344.205 352.888 344.389 352.901L349.175 353.081L346.713 349.111C346.579 348.895 346.507 348.646 346.505 348.392C346.511 348.027 346.66 347.679 346.92 347.424C347.178 347.168 347.526 347.024 347.889 347.023C348.124 347.024 348.355 347.093 348.553 347.22C348.751 347.347 348.909 347.528 349.009 347.742L351.36 352.016L353.711 347.77C353.821 347.545 353.989 347.355 354.199 347.218C354.408 347.082 354.651 347.005 354.901 346.995C355.078 346.994 355.253 347.031 355.415 347.102C355.577 347.174 355.722 347.279 355.841 347.41C356.095 347.673 356.234 348.026 356.228 348.392C356.228 348.63 356.166 348.863 356.048 349.07L353.545 353.081L358.4 352.901C358.584 352.888 358.769 352.917 358.941 352.984C359.113 353.05 359.268 353.154 359.395 353.288C359.631 353.533 359.76 353.861 359.755 354.201C359.754 354.544 359.626 354.874 359.395 355.128C359.265 355.256 359.109 355.356 358.937 355.421C358.766 355.485 358.583 355.512 358.4 355.501L353.517 355.349L355.938 359.29C356.074 359.511 356.146 359.765 356.145 360.023C356.14 360.388 355.991 360.736 355.73 360.992C355.478 361.249 355.136 361.398 354.776 361.407C354.541 361.402 354.312 361.33 354.118 361.197C353.924 361.064 353.773 360.877 353.683 360.66L351.36 356.511L349.064 360.66C348.965 360.875 348.807 361.06 348.61 361.191C348.412 361.323 348.181 361.398 347.944 361.407Z" fill="#263238"/>
<g style="mix-blend-mode:multiply">
<path d="M417.718 81.2173H172.893V96.5551H417.718V81.2173Z" fill="#92E3A9"/>
</g>
<path d="M321.929 52.9619H268.682C267.721 52.9619 266.799 52.5802 266.12 51.9006C265.44 51.2211 265.059 50.2994 265.059 49.3384C265.059 48.3774 265.44 47.4557 266.12 46.7762C266.799 46.0966 267.721 45.7148 268.682 45.7148H321.929C322.89 45.7148 323.812 46.0966 324.491 46.7762C325.171 47.4557 325.553 48.3774 325.553 49.3384C325.553 50.2994 325.171 51.2211 324.491 51.9006C323.812 52.5802 322.89 52.9619 321.929 52.9619Z" fill="#92E3A9" stroke="#263238" stroke-width="1.33739" stroke-linecap="round" stroke-linejoin="round"/>
<path d="M309.827 499.171C309.83 496.297 308.98 493.488 307.386 491.097C305.791 488.707 303.523 486.844 300.869 485.743C298.215 484.642 295.294 484.353 292.476 484.913C289.658 485.473 287.069 486.857 285.037 488.888C283.005 490.92 281.622 493.509 281.062 496.327C280.502 499.145 280.791 502.066 281.892 504.72C282.993 507.375 284.856 509.642 287.246 511.237C289.636 512.832 292.446 513.681 295.319 513.679C299.166 513.675 302.854 512.145 305.574 509.425C308.294 506.705 309.824 503.017 309.827 499.171Z" fill="#92E3A9"/>
<path d="M302.677 491.813H287.962V506.528H302.677V491.813Z" fill="#92E3A9" stroke="#263238" stroke-width="1.33739" stroke-linecap="round" stroke-linejoin="round"/>
<path d="M470.605 332.183C470.605 332.183 451.326 283.196 468.489 277.373C486.358 271.302 485.57 303.651 484.878 319.417C483.426 353.108 479.706 359.373 476.926 351.144L470.605 332.183ZM464.81 370.396C470.107 377.311 471.601 370.147 462.044 337.798C457.563 322.585 447.827 291.812 432.89 303.36C418.548 314.425 452.681 354.533 452.681 354.533L464.81 370.396ZM454.576 398.472C459.624 402.953 459.721 397.296 447.73 373.937C442.101 362.997 430.193 340.855 420.443 351.808C411.079 362.375 442.986 388.058 442.986 388.058L454.576 398.472ZM443.512 431.858C448.56 436.353 448.657 430.683 436.666 407.337C431.037 396.397 419.129 374.241 409.378 385.209C400.071 395.803 431.88 421.486 431.88 421.486L443.512 431.858ZM475.46 363.896C467.383 367.049 473.8 370.479 507.532 370.382C523.354 370.382 555.662 369.663 548.774 352.085C542.177 335.198 494.131 356.704 494.131 356.704L475.46 363.896ZM466.263 386.356C457.715 387.836 463.331 392.483 496.413 399.094C511.917 402.206 543.713 407.946 540.462 389.413C537.351 371.544 485.985 383.079 485.985 383.079L466.263 386.356ZM455.973 413.782C448.698 414.833 453.345 418.885 481.158 425.247C494.2 428.235 520.962 433.836 518.638 418.028C516.425 402.815 472.721 411.417 472.721 411.417L455.973 413.782ZM448.159 439.188C441.036 441 446.084 444.541 474.436 447.915C487.713 449.492 514.918 452.23 510.948 436.754C507.117 421.9 464.575 435.053 464.575 435.053L448.159 439.188ZM489.843 336.332C485.694 345.626 494.311 344.215 523.603 318.657C537.323 306.666 564.845 281.578 543.049 269.089C522.123 257.084 499.621 315.006 499.621 315.006L489.843 336.332ZM449.237 472.284C444.853 474.843 449.154 475.839 469.264 471.828C478.696 469.961 497.879 465.812 491.392 457.624C485.113 449.741 459.389 466.337 459.389 466.337L449.237 472.284Z" fill="#92E3A9"/>
<path opacity="0.3" d="M470.605 332.183C470.605 332.183 451.326 283.196 468.489 277.373C486.358 271.302 485.57 303.651 484.878 319.417C483.426 353.108 479.706 359.373 476.926 351.144L470.605 332.183ZM464.81 370.396C470.107 377.311 471.601 370.147 462.044 337.798C457.563 322.585 447.827 291.812 432.89 303.36C418.548 314.425 452.681 354.533 452.681 354.533L464.81 370.396ZM454.576 398.472C459.624 402.953 459.721 397.296 447.73 373.937C442.101 362.997 430.193 340.855 420.443 351.808C411.079 362.375 442.986 388.058 442.986 388.058L454.576 398.472ZM443.512 431.858C448.56 436.353 448.657 430.683 436.666 407.337C431.037 396.397 419.129 374.241 409.378 385.209C400.071 395.803 431.88 421.486 431.88 421.486L443.512 431.858ZM475.46 363.896C467.383 367.049 473.8 370.479 507.532 370.382C523.354 370.382 555.662 369.663 548.774 352.085C542.177 335.198 494.131 356.704 494.131 356.704L475.46 363.896ZM466.263 386.356C457.715 387.836 463.331 392.483 496.413 399.094C511.917 402.206 543.713 407.946 540.462 389.413C537.351 371.544 485.985 383.079 485.985 383.079L466.263 386.356ZM455.973 413.782C448.698 414.833 453.345 418.885 481.158 425.247C494.2 428.235 520.962 433.836 518.638 418.028C516.425 402.815 472.721 411.417 472.721 411.417L455.973 413.782ZM448.159 439.188C441.036 441 446.084 444.541 474.436 447.915C487.713 449.492 514.918 452.23 510.948 436.754C507.117 421.9 464.575 435.053 464.575 435.053L448.159 439.188ZM489.843 336.332C485.694 345.626 494.311 344.215 523.603 318.657C537.323 306.666 564.845 281.578 543.049 269.089C522.123 257.084 499.621 315.006 499.621 315.006L489.843 336.332ZM449.237 472.284C444.853 474.843 449.154 475.839 469.264 471.828C478.696 469.961 497.879 465.812 491.392 457.624C485.113 449.741 459.389 466.337 459.389 466.337L449.237 472.284Z" fill="white"/>
<path d="M479.111 354.989L475.75 299.073L479.111 354.989ZM468.475 373.439L447.232 325.351L468.475 373.439ZM523.299 359.456L472.389 366.759L523.299 359.456ZM457.466 399.357L429.903 363.993L457.466 399.357ZM462.307 388.514L500.285 390.423L462.307 388.514ZM453.317 415.635L482.361 418.512L453.317 415.635ZM446.305 432.868L431.88 411.168L446.305 432.868ZM444.646 440.53L478.793 440.848L444.646 440.53ZM437.731 504.592C437.959 504.574 438.172 504.467 438.322 504.294C438.472 504.12 438.548 503.894 438.533 503.666C436.361 471.054 448.975 417.641 469.208 373.798C482.14 345.778 532.828 290.706 533.367 290.152C533.53 289.989 533.622 289.768 533.622 289.537C533.622 289.306 533.53 289.085 533.367 288.922C533.288 288.841 533.193 288.778 533.089 288.734C532.984 288.691 532.872 288.668 532.759 288.668C532.646 288.668 532.534 288.691 532.429 288.734C532.325 288.778 532.23 288.841 532.15 288.922C531.639 289.475 480.743 344.755 467.701 373.024C447.094 417.931 434.646 470.376 436.859 503.776C436.876 503.996 436.975 504.202 437.137 504.353C437.298 504.504 437.51 504.589 437.731 504.592ZM479.097 355.847C479.326 355.832 479.54 355.729 479.693 355.558C479.845 355.387 479.925 355.163 479.913 354.934L476.608 298.99C476.602 298.876 476.575 298.765 476.526 298.662C476.477 298.559 476.408 298.466 476.323 298.39C476.238 298.314 476.138 298.256 476.031 298.219C475.923 298.182 475.809 298.167 475.695 298.174C475.466 298.188 475.252 298.292 475.1 298.463C474.947 298.634 474.868 298.858 474.879 299.087L478.24 355.003C478.25 355.223 478.345 355.431 478.505 355.583C478.665 355.735 478.877 355.819 479.097 355.819V355.847ZM468.78 374.227C468.987 374.133 469.149 373.962 469.232 373.75C469.315 373.538 469.311 373.303 469.222 373.093L447.965 325.005C447.873 324.796 447.702 324.632 447.49 324.549C447.277 324.466 447.04 324.471 446.831 324.562C446.622 324.654 446.458 324.825 446.375 325.038C446.292 325.25 446.297 325.487 446.388 325.696L467.632 373.785C467.698 373.939 467.808 374.071 467.948 374.164C468.088 374.257 468.252 374.308 468.42 374.31C468.563 374.318 468.706 374.289 468.835 374.227H468.78ZM472.459 367.589L523.34 360.314C523.463 360.311 523.584 360.283 523.695 360.23C523.806 360.178 523.905 360.102 523.985 360.009C524.065 359.915 524.124 359.806 524.159 359.688C524.193 359.57 524.202 359.446 524.186 359.324C524.169 359.203 524.127 359.086 524.062 358.982C523.997 358.877 523.91 358.788 523.808 358.719C523.706 358.651 523.591 358.605 523.47 358.584C523.349 358.563 523.224 358.568 523.105 358.599L472.223 365.874C471.996 365.888 471.784 365.993 471.633 366.164C471.483 366.335 471.407 366.559 471.421 366.786C471.436 367.014 471.54 367.226 471.712 367.377C471.883 367.527 472.107 367.603 472.334 367.589H472.459ZM457.951 400.049C458.131 399.907 458.249 399.699 458.277 399.471C458.306 399.243 458.243 399.013 458.103 398.831L430.525 363.398C430.384 363.215 430.175 363.095 429.946 363.065C429.716 363.035 429.484 363.098 429.301 363.239C429.118 363.38 428.998 363.589 428.968 363.818C428.938 364.048 429.001 364.28 429.142 364.463L456.775 399.952C456.855 400.055 456.958 400.139 457.075 400.196C457.193 400.254 457.322 400.284 457.453 400.284C457.659 400.273 457.855 400.19 458.006 400.049H457.951ZM501.046 390.464C501.053 390.235 500.971 390.013 500.815 389.844C500.66 389.676 500.445 389.576 500.216 389.565L462.307 387.643C462.094 387.657 461.894 387.75 461.744 387.902C461.595 388.055 461.507 388.257 461.497 388.47C461.486 388.683 461.555 388.893 461.689 389.059C461.823 389.225 462.013 389.336 462.224 389.371L500.202 391.294C500.431 391.301 500.654 391.219 500.822 391.063C500.99 390.908 501.09 390.693 501.101 390.464H501.046ZM483.163 418.595C483.177 418.481 483.167 418.366 483.135 418.256C483.103 418.146 483.05 418.043 482.977 417.954C482.905 417.865 482.816 417.792 482.715 417.738C482.614 417.684 482.503 417.651 482.389 417.641L453.345 414.778C453.232 414.766 453.118 414.777 453.01 414.81C452.902 414.843 452.801 414.897 452.713 414.969C452.626 415.041 452.554 415.13 452.501 415.23C452.448 415.33 452.415 415.44 452.405 415.552C452.385 415.779 452.455 416.005 452.6 416.18C452.745 416.356 452.953 416.468 453.179 416.493L482.223 419.37H482.306C482.529 419.385 482.749 419.313 482.92 419.168C483.09 419.023 483.197 418.818 483.219 418.595H483.163ZM446.72 433.587C446.912 433.46 447.046 433.262 447.093 433.037C447.14 432.811 447.095 432.577 446.969 432.384L432.613 410.684C432.482 410.497 432.283 410.368 432.059 410.324C431.835 410.281 431.602 410.325 431.41 410.449C431.218 410.576 431.084 410.774 431.037 410.999C430.991 411.225 431.035 411.459 431.161 411.652L445.517 433.352C445.599 433.471 445.709 433.568 445.836 433.635C445.964 433.703 446.106 433.738 446.25 433.739C446.437 433.749 446.623 433.696 446.776 433.587H446.72ZM479.664 440.848C479.661 440.62 479.57 440.403 479.41 440.241C479.25 440.078 479.034 439.984 478.807 439.977L444.66 439.659C444.432 439.659 444.214 439.749 444.053 439.91C443.892 440.071 443.802 440.289 443.802 440.516C443.798 440.63 443.818 440.744 443.859 440.851C443.901 440.957 443.964 441.054 444.044 441.136C444.124 441.217 444.22 441.282 444.326 441.325C444.432 441.368 444.545 441.389 444.66 441.387L478.807 441.706C478.923 441.711 479.04 441.693 479.15 441.653C479.259 441.612 479.36 441.55 479.445 441.47C479.53 441.39 479.598 441.294 479.645 441.187C479.693 441.08 479.718 440.965 479.72 440.848H479.664ZM433.844 491.91C433.913 491.758 439.736 475.714 457.245 471.883C457.471 471.834 457.667 471.697 457.792 471.502C457.916 471.308 457.958 471.072 457.909 470.846C457.853 470.625 457.714 470.434 457.521 470.313C457.328 470.192 457.095 470.15 456.872 470.196C438.408 474.235 432.281 491.177 432.212 491.343C432.141 491.561 432.157 491.799 432.258 492.005C432.359 492.211 432.536 492.371 432.752 492.449H433.028C433.212 492.465 433.396 492.421 433.553 492.324C433.71 492.227 433.832 492.081 433.9 491.91H433.844ZM437.731 504.592C437.959 504.574 438.172 504.467 438.322 504.294C438.472 504.12 438.548 503.894 438.533 503.666C436.361 471.054 448.975 417.641 469.208 373.798C482.14 345.778 532.828 290.706 533.367 290.152C533.53 289.989 533.622 289.768 533.622 289.537C533.622 289.306 533.53 289.085 533.367 288.922C533.288 288.841 533.193 288.778 533.089 288.734C532.984 288.691 532.872 288.668 532.759 288.668C532.646 288.668 532.534 288.691 532.429 288.734C532.325 288.778 532.23 288.841 532.15 288.922C531.639 289.475 480.743 344.755 467.701 373.024C447.094 417.931 434.646 470.376 436.859 503.776C436.876 503.996 436.975 504.202 437.137 504.353C437.298 504.504 437.51 504.589 437.731 504.592ZM479.097 355.847C479.326 355.832 479.54 355.729 479.693 355.558C479.845 355.387 479.925 355.163 479.913 354.934L476.608 298.99C476.602 298.876 476.575 298.765 476.526 298.662C476.477 298.559 476.408 298.466 476.323 298.39C476.238 298.314 476.138 298.256 476.031 298.219C475.923 298.182 475.809 298.167 475.695 298.174C475.466 298.188 475.252 298.292 475.1 298.463C474.947 298.634 474.868 298.858 474.879 299.087L478.24 355.003C478.25 355.223 478.345 355.431 478.505 355.583C478.665 355.735 478.877 355.819 479.097 355.819V355.847ZM468.78 374.227C468.987 374.133 469.149 373.962 469.232 373.75C469.315 373.538 469.311 373.303 469.222 373.093L447.965 325.005C447.873 324.796 447.702 324.632 447.49 324.549C447.277 324.466 447.04 324.471 446.831 324.562C446.622 324.654 446.458 324.825 446.375 325.038C446.292 325.25 446.297 325.487 446.388 325.696L467.632 373.785C467.698 373.939 467.808 374.071 467.948 374.164C468.088 374.257 468.252 374.308 468.42 374.31C468.563 374.318 468.706 374.289 468.835 374.227H468.78ZM472.459 367.589L523.34 360.314C523.463 360.311 523.584 360.283 523.695 360.23C523.806 360.178 523.905 360.102 523.985 360.009C524.065 359.915 524.124 359.806 524.159 359.688C524.193 359.57 524.202 359.446 524.186 359.324C524.169 359.203 524.127 359.086 524.062 358.982C523.997 358.877 523.91 358.788 523.808 358.719C523.706 358.651 523.591 358.605 523.47 358.584C523.349 358.563 523.224 358.568 523.105 358.599L472.223 365.874C471.996 365.888 471.784 365.993 471.633 366.164C471.483 366.335 471.407 366.559 471.421 366.786C471.436 367.014 471.54 367.226 471.712 367.377C471.883 367.527 472.107 367.603 472.334 367.589H472.459ZM457.951 400.049C458.131 399.907 458.249 399.699 458.277 399.471C458.306 399.243 458.243 399.013 458.103 398.831L430.525 363.398C430.455 363.307 430.368 363.231 430.269 363.174C430.169 363.117 430.06 363.08 429.946 363.065C429.832 363.05 429.717 363.058 429.606 363.088C429.495 363.118 429.392 363.169 429.301 363.239C429.21 363.309 429.134 363.396 429.077 363.495C429.02 363.595 428.983 363.704 428.968 363.818C428.953 363.932 428.961 364.047 428.991 364.158C429.021 364.268 429.072 364.372 429.142 364.463L456.775 399.952C456.855 400.055 456.958 400.139 457.075 400.196C457.193 400.254 457.322 400.284 457.453 400.284C457.659 400.273 457.855 400.19 458.006 400.049H457.951ZM501.046 390.464C501.053 390.235 500.971 390.013 500.815 389.844C500.66 389.676 500.445 389.576 500.216 389.565L462.307 387.643C462.094 387.657 461.894 387.75 461.744 387.902C461.595 388.055 461.507 388.257 461.497 388.47C461.486 388.683 461.555 388.893 461.689 389.059C461.823 389.225 462.013 389.336 462.224 389.371L500.202 391.294C500.431 391.301 500.654 391.219 500.822 391.063C500.99 390.908 501.09 390.693 501.101 390.464H501.046ZM483.163 418.595C483.177 418.481 483.167 418.366 483.135 418.256C483.103 418.146 483.05 418.043 482.977 417.954C482.905 417.865 482.816 417.792 482.715 417.738C482.614 417.684 482.503 417.651 482.389 417.641L453.345 414.778C453.232 414.766 453.118 414.777 453.01 414.81C452.902 414.843 452.801 414.897 452.713 414.969C452.626 415.041 452.554 415.13 452.501 415.23C452.448 415.33 452.415 415.44 452.405 415.552C452.385 415.779 452.455 416.005 452.6 416.18C452.745 416.356 452.953 416.468 453.179 416.493L482.223 419.37H482.306C482.529 419.385 482.749 419.313 482.92 419.168C483.09 419.023 483.197 418.818 483.219 418.595H483.163ZM446.72 433.587C446.912 433.46 447.046 433.262 447.093 433.037C447.14 432.811 447.095 432.577 446.969 432.384L432.613 410.684C432.482 410.497 432.283 410.368 432.059 410.324C431.835 410.281 431.602 410.325 431.41 410.449C431.218 410.576 431.084 410.774 431.037 410.999C430.991 411.225 431.035 411.459 431.161 411.652L445.517 433.352C445.599 433.471 445.709 433.568 445.836 433.635C445.964 433.703 446.106 433.738 446.25 433.739C446.437 433.749 446.623 433.696 446.776 433.587H446.72ZM479.664 440.848C479.661 440.62 479.57 440.403 479.41 440.241C479.25 440.078 479.034 439.984 478.807 439.977L444.66 439.659C444.432 439.659 444.214 439.749 444.053 439.91C443.892 440.071 443.802 440.289 443.802 440.516C443.798 440.63 443.818 440.744 443.859 440.851C443.901 440.957 443.964 441.054 444.044 441.136C444.124 441.217 444.22 441.282 444.326 441.325C444.432 441.368 444.545 441.389 444.66 441.387L478.807 441.706C478.923 441.711 479.04 441.693 479.15 441.653C479.259 441.612 479.36 441.55 479.445 441.47C479.53 441.39 479.598 441.294 479.645 441.187C479.693 441.08 479.718 440.965 479.72 440.848H479.664ZM433.844 491.91C433.913 491.758 439.736 475.714 457.245 471.883C457.471 471.834 457.667 471.697 457.792 471.502C457.916 471.308 457.958 471.072 457.909 470.846C457.853 470.625 457.714 470.434 457.521 470.313C457.328 470.192 457.095 470.15 456.872 470.196C438.408 474.235 432.281 491.177 432.212 491.343C432.141 491.561 432.157 491.799 432.258 492.005C432.359 492.211 432.536 492.371 432.752 492.449H433.028C433.212 492.465 433.396 492.421 433.553 492.324C433.71 492.227 433.832 492.081 433.9 491.91H433.844Z" fill="#92E3A9"/>
<path opacity="0.2" d="M479.111 354.989L475.75 299.073L479.111 354.989ZM468.475 373.439L447.232 325.351L468.475 373.439ZM523.299 359.456L472.389 366.759L523.299 359.456ZM457.466 399.357L429.903 363.993L457.466 399.357ZM462.307 388.514L500.285 390.423L462.307 388.514ZM453.317 415.635L482.361 418.512L453.317 415.635ZM446.305 432.868L431.88 411.168L446.305 432.868ZM444.646 440.53L478.793 440.848L444.646 440.53ZM437.731 504.592C437.959 504.574 438.172 504.467 438.322 504.294C438.472 504.12 438.548 503.894 438.533 503.666C436.361 471.054 448.975 417.641 469.208 373.798C482.14 345.778 532.828 290.706 533.367 290.152C533.53 289.989 533.622 289.768 533.622 289.537C533.622 289.306 533.53 289.085 533.367 288.922C533.288 288.841 533.193 288.778 533.089 288.734C532.984 288.691 532.872 288.668 532.759 288.668C532.646 288.668 532.534 288.691 532.429 288.734C532.325 288.778 532.23 288.841 532.15 288.922C531.639 289.475 480.743 344.755 467.701 373.024C447.094 417.931 434.646 470.376 436.859 503.776C436.876 503.996 436.975 504.202 437.137 504.353C437.298 504.504 437.51 504.589 437.731 504.592ZM479.097 355.847C479.326 355.832 479.54 355.729 479.693 355.558C479.845 355.387 479.925 355.163 479.913 354.934L476.608 298.99C476.602 298.876 476.575 298.765 476.526 298.662C476.477 298.559 476.408 298.466 476.323 298.39C476.238 298.314 476.138 298.256 476.031 298.219C475.923 298.182 475.809 298.167 475.695 298.174C475.466 298.188 475.252 298.292 475.1 298.463C474.947 298.634 474.868 298.858 474.879 299.087L478.24 355.003C478.25 355.223 478.345 355.431 478.505 355.583C478.665 355.735 478.877 355.819 479.097 355.819V355.847ZM468.78 374.227C468.987 374.133 469.149 373.962 469.232 373.75C469.315 373.538 469.311 373.303 469.222 373.093L447.965 325.005C447.873 324.796 447.702 324.632 447.49 324.549C447.277 324.466 447.04 324.471 446.831 324.562C446.622 324.654 446.458 324.825 446.375 325.038C446.292 325.25 446.297 325.487 446.388 325.696L467.632 373.785C467.698 373.939 467.808 374.071 467.948 374.164C468.088 374.257 468.252 374.308 468.42 374.31C468.563 374.318 468.706 374.289 468.835 374.227H468.78ZM472.459 367.589L523.34 360.314C523.463 360.311 523.584 360.283 523.695 360.23C523.806 360.178 523.905 360.102 523.985 360.009C524.065 359.915 524.124 359.806 524.159 359.688C524.193 359.57 524.202 359.446 524.186 359.324C524.169 359.203 524.127 359.086 524.062 358.982C523.997 358.877 523.91 358.788 523.808 358.719C523.706 358.651 523.591 358.605 523.47 358.584C523.349 358.563 523.224 358.568 523.105 358.599L472.223 365.874C471.996 365.888 471.784 365.993 471.633 366.164C471.483 366.335 471.407 366.559 471.421 366.786C471.436 367.014 471.54 367.226 471.712 367.377C471.883 367.527 472.107 367.603 472.334 367.589H472.459ZM457.951 400.049C458.131 399.907 458.249 399.699 458.277 399.471C458.306 399.243 458.243 399.013 458.103 398.831L430.525 363.398C430.384 363.215 430.175 363.095 429.946 363.065C429.716 363.035 429.484 363.098 429.301 363.239C429.118 363.38 428.998 363.589 428.968 363.818C428.938 364.048 429.001 364.28 429.142 364.463L456.775 399.952C456.855 400.055 456.958 400.139 457.075 400.196C457.193 400.254 457.322 400.284 457.453 400.284C457.659 400.273 457.855 400.19 458.006 400.049H457.951ZM501.046 390.464C501.053 390.235 500.971 390.013 500.815 389.844C500.66 389.676 500.445 389.576 500.216 389.565L462.307 387.643C462.094 387.657 461.894 387.75 461.744 387.902C461.595 388.055 461.507 388.257 461.497 388.47C461.486 388.683 461.555 388.893 461.689 389.059C461.823 389.225 462.013 389.336 462.224 389.371L500.202 391.294C500.431 391.301 500.654 391.219 500.822 391.063C500.99 390.908 501.09 390.693 501.101 390.464H501.046ZM483.163 418.595C483.177 418.481 483.167 418.366 483.135 418.256C483.103 418.146 483.05 418.043 482.977 417.954C482.905 417.865 482.816 417.792 482.715 417.738C482.614 417.684 482.503 417.651 482.389 417.641L453.345 414.778C453.232 414.766 453.118 414.777 453.01 414.81C452.902 414.843 452.801 414.897 452.713 414.969C452.626 415.041 452.554 415.13 452.501 415.23C452.448 415.33 452.415 415.44 452.405 415.552C452.385 415.779 452.455 416.005 452.6 416.18C452.745 416.356 452.953 416.468 453.179 416.493L482.223 419.37H482.306C482.529 419.385 482.749 419.313 482.92 419.168C483.09 419.023 483.197 418.818 483.219 418.595H483.163ZM446.72 433.587C446.912 433.46 447.046 433.262 447.093 433.037C447.14 432.811 447.095 432.577 446.969 432.384L432.613 410.684C432.482 410.497 432.283 410.368 432.059 410.324C431.835 410.281 431.602 410.325 431.41 410.449C431.218 410.576 431.084 410.774 431.037 410.999C430.991 411.225 431.035 411.459 431.161 411.652L445.517 433.352C445.599 433.471 445.709 433.568 445.836 433.635C445.964 433.703 446.106 433.738 446.25 433.739C446.437 433.749 446.623 433.696 446.776 433.587H446.72ZM479.664 440.848C479.661 440.62 479.57 440.403 479.41 440.241C479.25 440.078 479.034 439.984 478.807 439.977L444.66 439.659C444.432 439.659 444.214 439.749 444.053 439.91C443.892 440.071 443.802 440.289 443.802 440.516C443.798 440.63 443.818 440.744 443.859 440.851C443.901 440.957 443.964 441.054 444.044 441.136C444.124 441.217 444.22 441.282 444.326 441.325C444.432 441.368 444.545 441.389 444.66 441.387L478.807 441.706C478.923 441.711 479.04 441.693 479.15 441.653C479.259 441.612 479.36 441.55 479.445 441.47C479.53 441.39 479.598 441.294 479.645 441.187C479.693 441.08 479.718 440.965 479.72 440.848H479.664ZM433.844 491.91C433.913 491.758 439.736 475.714 457.245 471.883C457.471 471.834 457.667 471.697 457.792 471.502C457.916 471.308 457.958 471.072 457.909 470.846C457.853 470.625 457.714 470.434 457.521 470.313C457.328 470.192 457.095 470.15 456.872 470.196C438.408 474.235 432.281 491.177 432.212 491.343C432.141 491.561 432.157 491.799 432.258 492.005C432.359 492.211 432.536 492.371 432.752 492.449H433.028C433.212 492.465 433.396 492.421 433.553 492.324C433.71 492.227 433.832 492.081 433.9 491.91H433.844ZM437.731 504.592C437.959 504.574 438.172 504.467 438.322 504.294C438.472 504.12 438.548 503.894 438.533 503.666C436.361 471.054 448.975 417.641 469.208 373.798C482.14 345.778 532.828 290.706 533.367 290.152C533.53 289.989 533.622 289.768 533.622 289.537C533.622 289.306 533.53 289.085 533.367 288.922C533.288 288.841 533.193 288.778 533.089 288.734C532.984 288.691 532.872 288.668 532.759 288.668C532.646 288.668 532.534 288.691 532.429 288.734C532.325 288.778 532.23 288.841 532.15 288.922C531.639 289.475 480.743 344.755 467.701 373.024C447.094 417.931 434.646 470.376 436.859 503.776C436.876 503.996 436.975 504.202 437.137 504.353C437.298 504.504 437.51 504.589 437.731 504.592ZM479.097 355.847C479.326 355.832 479.54 355.729 479.693 355.558C479.845 355.387 479.925 355.163 479.913 354.934L476.608 298.99C476.602 298.876 476.575 298.765 476.526 298.662C476.477 298.559 476.408 298.466 476.323 298.39C476.238 298.314 476.138 298.256 476.031 298.219C475.923 298.182 475.809 298.167 475.695 298.174C475.466 298.188 475.252 298.292 475.1 298.463C474.947 298.634 474.868 298.858 474.879 299.087L478.24 355.003C478.25 355.223 478.345 355.431 478.505 355.583C478.665 355.735 478.877 355.819 479.097 355.819V355.847ZM468.78 374.227C468.987 374.133 469.149 373.962 469.232 373.75C469.315 373.538 469.311 373.303 469.222 373.093L447.965 325.005C447.873 324.796 447.702 324.632 447.49 324.549C447.277 324.466 447.04 324.471 446.831 324.562C446.622 324.654 446.458 324.825 446.375 325.038C446.292 325.25 446.297 325.487 446.388 325.696L467.632 373.785C467.698 373.939 467.808 374.071 467.948 374.164C468.088 374.257 468.252 374.308 468.42 374.31C468.563 374.318 468.706 374.289 468.835 374.227H468.78ZM472.459 367.589L523.34 360.314C523.463 360.311 523.584 360.283 523.695 360.23C523.806 360.178 523.905 360.102 523.985 360.009C524.065 359.915 524.124 359.806 524.159 359.688C524.193 359.57 524.202 359.446 524.186 359.324C524.169 359.203 524.127 359.086 524.062 358.982C523.997 358.877 523.91 358.788 523.808 358.719C523.706 358.651 523.591 358.605 523.47 358.584C523.349 358.563 523.224 358.568 523.105 358.599L472.223 365.874C471.996 365.888 471.784 365.993 471.633 366.164C471.483 366.335 471.407 366.559 471.421 366.786C471.436 367.014 471.54 367.226 471.712 367.377C471.883 367.527 472.107 367.603 472.334 367.589H472.459ZM457.951 400.049C458.131 399.907 458.249 399.699 458.277 399.471C458.306 399.243 458.243 399.013 458.103 398.831L430.525 363.398C430.455 363.307 430.368 363.231 430.269 363.174C430.169 363.117 430.06 363.08 429.946 363.065C429.832 363.05 429.717 363.058 429.606 363.088C429.495 363.118 429.392 363.169 429.301 363.239C429.21 363.309 429.134 363.396 429.077 363.495C429.02 363.595 428.983 363.704 428.968 363.818C428.953 363.932 428.961 364.047 428.991 364.158C429.021 364.268 429.072 364.372 429.142 364.463L456.775 399.952C456.855 400.055 456.958 400.139 457.075 400.196C457.193 400.254 457.322 400.284 457.453 400.284C457.659 400.273 457.855 400.19 458.006 400.049H457.951ZM501.046 390.464C501.053 390.235 500.971 390.013 500.815 389.844C500.66 389.676 500.445 389.576 500.216 389.565L462.307 387.643C462.094 387.657 461.894 387.75 461.744 387.902C461.595 388.055 461.507 388.257 461.497 388.47C461.486 388.683 461.555 388.893 461.689 389.059C461.823 389.225 462.013 389.336 462.224 389.371L500.202 391.294C500.431 391.301 500.654 391.219 500.822 391.063C500.99 390.908 501.09 390.693 501.101 390.464H501.046ZM483.163 418.595C483.177 418.481 483.167 418.366 483.135 418.256C483.103 418.146 483.05 418.043 482.977 417.954C482.905 417.865 482.816 417.792 482.715 417.738C482.614 417.684 482.503 417.651 482.389 417.641L453.345 414.778C453.232 414.766 453.118 414.777 453.01 414.81C452.902 414.843 452.801 414.897 452.713 414.969C452.626 415.041 452.554 415.13 452.501 415.23C452.448 415.33 452.415 415.44 452.405 415.552C452.385 415.779 452.455 416.005 452.6 416.18C452.745 416.356 452.953 416.468 453.179 416.493L482.223 419.37H482.306C482.529 419.385 482.749 419.313 482.92 419.168C483.09 419.023 483.197 418.818 483.219 418.595H483.163ZM446.72 433.587C446.912 433.46 447.046 433.262 447.093 433.037C447.14 432.811 447.095 432.577 446.969 432.384L432.613 410.684C432.482 410.497 432.283 410.368 432.059 410.324C431.835 410.281 431.602 410.325 431.41 410.449C431.218 410.576 431.084 410.774 431.037 410.999C430.991 411.225 431.035 411.459 431.161 411.652L445.517 433.352C445.599 433.471 445.709 433.568 445.836 433.635C445.964 433.703 446.106 433.738 446.25 433.739C446.437 433.749 446.623 433.696 446.776 433.587H446.72ZM479.664 440.848C479.661 440.62 479.57 440.403 479.41 440.241C479.25 440.078 479.034 439.984 478.807 439.977L444.66 439.659C444.432 439.659 444.214 439.749 444.053 439.91C443.892 440.071 443.802 440.289 443.802 440.516C443.798 440.63 443.818 440.744 443.859 440.851C443.901 440.957 443.964 441.054 444.044 441.136C444.124 441.217 444.22 441.282 444.326 441.325C444.432 441.368 444.545 441.389 444.66 441.387L478.807 441.706C478.923 441.711 479.04 441.693 479.15 441.653C479.259 441.612 479.36 441.55 479.445 441.47C479.53 441.39 479.598 441.294 479.645 441.187C479.693 441.08 479.718 440.965 479.72 440.848H479.664ZM433.844 491.91C433.913 491.758 439.736 475.714 457.245 471.883C457.471 471.834 457.667 471.697 457.792 471.502C457.916 471.308 457.958 471.072 457.909 470.846C457.853 470.625 457.714 470.434 457.521 470.313C457.328 470.192 457.095 470.15 456.872 470.196C438.408 474.235 432.281 491.177 432.212 491.343C432.141 491.561 432.157 491.799 432.258 492.005C432.359 492.211 432.536 492.371 432.752 492.449H433.028C433.212 492.465 433.396 492.421 433.553 492.324C433.71 492.227 433.832 492.081 433.9 491.91H433.844Z" fill="black"/>
<path d="M460.316 480.209H421.162V488.314H424.578L431.645 532.529H449.832L456.899 488.314H460.316V480.209Z" fill="#92E3A9"/>
<path opacity="0.3" d="M460.316 480.209H421.162V488.314H424.578L431.645 532.529H449.832L456.899 488.314H460.316V480.209Z" fill="white"/>
<path d="M107.807 235.135L62.264 220.268L58.2117 209.563L48.9592 209.273L32.1692 206.092L34.1884 209.563L55.3212 224.901L60.5352 227.501L108.167 252.382L107.807 235.135Z" fill="white" stroke="#263238" stroke-width="1.00396" stroke-miterlimit="10"/>
<path d="M58.2117 209.563L53.869 206.963L45.1974 210.144L46.6357 211.873L58.2117 209.563Z" fill="white" stroke="#263238" stroke-width="1.00396" stroke-linejoin="round"/>
<path d="M107.807 235.135L62.264 220.268L58.2117 209.563L48.9592 209.273L32.1692 206.092L34.1884 209.563L55.3212 224.901L60.5352 227.501L108.167 252.382L107.807 235.135Z" fill="white"/>
<path opacity="0.5" d="M107.807 235.135L62.264 220.268L58.2117 209.563L48.9592 209.273L32.1692 206.092L34.1884 209.563L55.3212 224.901L60.5352 227.501L108.167 252.382L107.807 235.135Z" fill="#92E3A9" stroke="#263238" stroke-width="1.00396" stroke-miterlimit="10"/>
<path d="M107.807 235.135L62.264 220.268L58.2117 209.563L48.9592 209.273L32.1692 206.092L34.1884 209.563L55.3212 224.901L60.5352 227.501L108.167 252.382L107.807 235.135Z" stroke="#263238" stroke-width="1.00396" stroke-miterlimit="10"/>
<path d="M58.2117 209.563L53.869 206.963L45.1974 210.144L46.6357 211.873L58.2117 209.563Z" fill="white"/>
<path opacity="0.5" d="M58.2117 209.563L53.869 206.963L45.1974 210.144L46.6357 211.873L58.2117 209.563Z" fill="#92E3A9" stroke="#263238" stroke-width="1.00396" stroke-linejoin="round"/>
<path d="M58.2117 209.563L53.869 206.963L45.1974 210.144L46.6357 211.873L58.2117 209.563Z" stroke="#263238" stroke-width="1.00396" stroke-linejoin="round"/>
<path d="M117.475 138.641C117.475 138.641 116.769 144.865 118.526 148.861C120.282 152.858 130.033 166.398 130.033 166.398L111.832 180.989C111.832 180.989 104.281 165.776 102.842 163.314C101.404 160.852 99.6752 150.258 104.364 142.665C109.052 135.073 115.801 133.026 117.475 138.641Z" fill="white"/>
<g style="mix-blend-mode:multiply" opacity="0.5">
<path d="M108.126 158.64L116.023 175.015L111.818 181.003L103.88 166.827L108.126 158.64Z" fill="#92E3A9"/>
</g>
<path d="M117.475 138.641C117.475 138.641 116.769 144.865 118.526 148.861C120.282 152.858 130.033 166.398 130.033 166.398L111.832 180.989C111.832 180.989 104.281 165.776 102.842 163.314C101.404 160.852 99.6752 150.258 104.364 142.665C109.052 135.073 115.801 133.026 117.475 138.641Z" stroke="#263238" stroke-width="1.00396" stroke-miterlimit="10"/>
<path d="M123.118 127.245C121.997 120.33 114.073 106.264 101.501 106.803C93.3409 107.163 89.5237 108.809 85.9831 110.814C83.0971 112.515 80.407 114.527 77.9615 116.817C71.8208 124.188 69.6633 126.207 70.8527 131.85C70.7551 134.101 71.1078 136.348 71.89 138.461C73.7709 143.482 75.0571 146.759 76.6891 149.152C76.1912 151.489 74.8912 157.658 74.822 159.068C74.7528 160.479 78.9711 159.497 81.101 158.958C85.0565 167.809 92.3036 173.95 94.5579 174.655C98.4857 175.886 104.696 169.427 107.987 164.421C111.279 159.414 108.789 153.785 108.803 151.545C108.817 149.304 116.202 144.38 118.941 142.818C121.679 141.255 124.224 134.146 123.118 127.245Z" fill="white"/>
<g style="mix-blend-mode:multiply" opacity="0.5">
<path d="M70.908 131.85C70.8104 134.101 71.1631 136.348 71.9453 138.461C73.8262 143.481 75.1124 146.759 76.7444 149.152C76.2465 151.489 74.9465 157.658 74.8773 159.068C74.8082 160.479 79.0264 159.497 81.1563 158.958C85.1118 167.809 92.3589 173.95 94.6132 174.655C98.5411 175.886 104.751 169.427 108.043 164.421C108.865 163.171 109.399 161.753 109.605 160.272C109.426 159.622 109.301 159.22 109.301 159.22C109.301 159.22 107.448 166.343 103.769 165.416C100.09 164.49 94.4611 157.118 91.3216 154.573C88.1821 152.029 89.4683 148.682 88.846 144.892C88.2236 141.103 78.9296 137.77 78.3072 135.598C77.6849 133.427 79.8562 124.437 79.8562 124.437C79.8562 124.437 83.383 119.735 82.6223 121.671C82.0847 123.35 81.8897 125.12 82.0488 126.875C82.208 128.631 82.7181 130.337 83.5489 131.892C84.1319 133.118 85.0568 134.151 86.2123 134.865C87.3679 135.579 88.705 135.944 90.063 135.916L93.4377 119.195L86.315 113.304L78.0168 116.761C71.8208 124.188 69.7048 126.207 70.908 131.85Z" fill="#92E3A9"/>
</g>
<path d="M123.118 127.245C121.997 120.33 114.073 106.264 101.501 106.803C93.3409 107.163 89.5237 108.809 85.9831 110.814C83.0971 112.515 80.407 114.527 77.9615 116.817C71.8208 124.188 69.6633 126.207 70.8527 131.85C70.7551 134.101 71.1078 136.348 71.89 138.461C73.7709 143.482 75.0571 146.759 76.6891 149.152C76.1912 151.489 74.8912 157.658 74.822 159.068C74.7528 160.479 78.9711 159.497 81.101 158.958C85.0565 167.809 92.3036 173.95 94.5579 174.655C98.4857 175.886 104.696 169.427 107.987 164.421C111.279 159.414 108.789 153.785 108.803 151.545C108.817 149.304 116.202 144.38 118.941 142.818C121.679 141.255 124.224 134.146 123.118 127.245Z" stroke="#263238" stroke-miterlimit="10"/>
<path d="M78.4041 144.975L79.7871 148.931C79.7871 148.931 82.7606 149.913 86.3842 145.957" stroke="#263238" stroke-miterlimit="10" stroke-linecap="round"/>
<path d="M88.6247 163.452C88.6247 163.452 91.9163 163.121 93.244 158.501" stroke="#263238" stroke-miterlimit="10" stroke-linecap="round"/>
<path d="M76.0944 141.67C76.0944 141.67 77.0763 138.696 83.0096 138.696" stroke="#263238" stroke-miterlimit="10" stroke-linecap="round"/>
<path d="M106.507 101.299C102.196 100.679 97.8484 100.346 93.493 100.303C93.493 100.303 80.4648 92.7933 67.9483 100.801C55.4318 108.809 61.4481 122.833 61.4481 126.332C61.4481 129.831 57.4372 129.845 59.9405 134.354C62.4438 138.862 70.908 136.373 70.908 136.373C70.9975 134.672 71.4469 133.01 72.2265 131.496C73.0061 129.982 74.0982 128.651 75.4305 127.59C79.9392 124.091 83.5351 123.331 85.0288 124.34C85.0288 124.34 84.033 131.85 85.5267 134.851C85.5267 134.851 90.5333 137.355 92.0408 137.355C93.5483 137.355 91.0588 139.471 96.0516 141.352C96.9612 141.678 97.9342 141.79 98.8941 141.677C99.854 141.564 100.775 141.23 101.584 140.702C102.317 137.659 103.921 133.081 106.908 134.146C111.293 135.709 115.29 146.497 109.356 150.175C116.493 151.475 125.137 138.848 125.649 127.342C126.16 115.835 113.92 102.599 106.507 101.299Z" fill="#263238"/>
<path d="M85.2501 119.403C85.2501 119.403 88.929 117.425 93.4377 121.657C97.9464 125.889 106.715 131.546 118.332 128.434" stroke="white" stroke-width="0.5" stroke-linecap="round" stroke-linejoin="round"/>
<path d="M84.7384 116.014C84.7384 116.014 87.2693 112.059 91.5014 112.059C95.7335 112.059 105.622 117.992 113.519 117.992" stroke="white" stroke-width="0.5" stroke-linecap="round" stroke-linejoin="round"/>
<path d="M81.8617 123.635C81.8617 123.635 77.0625 117.716 72.5538 122.515C68.0451 127.314 70.908 131.85 70.908 131.85" stroke="white" stroke-width="0.5" stroke-linecap="round" stroke-linejoin="round"/>
<path d="M62.679 127.59C65.4291 125.11 67.1387 121.681 67.4643 117.992C68.0313 111.782 76.5093 106.416 81.8617 111.506" stroke="white" stroke-width="0.5" stroke-linecap="round" stroke-linejoin="round"/>
<path d="M71.4197 105.005C71.4197 105.005 79.8977 96.8179 86.9512 107.26" stroke="white" stroke-width="0.5" stroke-linecap="round" stroke-linejoin="round"/>
<path d="M140.419 507.566C140.419 507.566 145.633 515.67 145.053 520.884L144.485 526.098C144.485 526.098 125.358 531.34 121.306 531.34C117.254 531.34 95.8026 529.307 95.8026 529.307L94.876 525.628C94.8111 525.356 94.8417 525.071 94.9626 524.819C95.0835 524.567 95.2873 524.364 95.5399 524.245L114.667 515.324L120.697 508.727L140.419 507.566Z" fill="white" stroke="#263238" stroke-width="1.00396" stroke-miterlimit="10"/>
<path d="M124.21 527.26C129.397 527.661 139.244 524.494 144.956 522.475L144.555 526.098C144.555 526.098 125.358 531.34 121.306 531.34C117.254 531.34 95.8027 529.307 95.8027 529.307L95.1388 526.679C98.5687 526.693 117.35 526.735 124.21 527.26Z" fill="#92E3A9" stroke="#263238" stroke-width="1.00396" stroke-miterlimit="10"/>
<path d="M114.695 515.324L86.8544 527.44C86.8544 527.44 84.4756 533.401 86.8544 534.59C89.2332 535.78 141.097 534.59 141.097 534.59C141.097 534.59 144.679 525.172 139.023 518.851C133.366 512.531 114.695 515.324 114.695 515.324Z" fill="white" stroke="#263238" stroke-width="1.00396" stroke-miterlimit="10"/>
<path d="M141.097 534.59C141.097 534.59 89.2332 535.78 86.8544 534.59C85.7065 534.009 85.665 532.336 85.9278 530.745H142.01C141.827 532.053 141.521 533.34 141.097 534.59Z" fill="#92E3A9" stroke="#263238" stroke-width="1.00396" stroke-miterlimit="10"/>
<path d="M101.528 304.813C101.528 304.813 94.2537 337.051 91.5014 357.216C88.7492 377.381 87.131 417.779 87.7119 422.412C88.2928 427.045 117.254 504.675 117.254 504.675L120.144 511.59L140.419 507.538C140.419 507.538 131.153 477.996 127.682 461.773C124.21 445.55 116.617 418.899 116.617 414.266C116.617 409.633 134.597 321.146 135.883 315.338C137.169 309.529 143.006 300.608 143.006 300.608L104.184 299.82L101.528 304.813Z" fill="#92E3A9" stroke="#263238" stroke-width="1.00396" stroke-miterlimit="10"/>
<path d="M101.528 304.813C101.528 304.813 97.2687 334.257 99.0251 354.726C100.782 375.195 104.557 418.775 104.557 425.261C104.557 431.748 115.027 470.486 115.622 482.657C116.548 500.235 115.248 508.935 115.248 508.935L114.626 515.311C114.626 515.311 126.838 517.053 129.507 517.814C132.59 518.608 135.772 518.953 138.953 518.837C138.953 518.837 143.393 499.295 143.393 482.643C143.393 465.992 139.7 431.72 137.861 417.834C136.021 403.949 141.816 350.384 145.108 340.384C148.399 330.385 155.591 309.211 150.751 298.395C145.91 287.58 101.528 304.813 101.528 304.813Z" fill="#92E3A9" stroke="#263238" stroke-width="1.00396" stroke-miterlimit="10"/>
<path d="M156.131 292.974L155.688 306.14C155.688 306.14 147.805 307.703 137.183 309.543C128.415 311.064 106.397 309.142 98.9836 308.422C98.3081 308.363 97.6835 308.038 97.2458 307.52C96.8081 307.002 96.5926 306.332 96.6463 305.656L97.3655 293.762L156.131 292.974Z" fill="#263238"/>
<path d="M125.317 161.724C125.317 161.724 112.869 175.181 108.181 183.548C103.492 191.915 101.639 204.736 99.8826 214.832C98.1262 224.928 102.884 248.634 101.542 259.518L97.2963 293.804C97.2963 293.804 96.3835 296.127 99.44 298.672C102.497 301.217 117.42 302.143 130.904 302.821C135.828 303.07 150.529 299.903 152.936 299.751C155.84 299.571 155.937 295.878 156.062 292.974C156.642 279.323 159.104 242.936 160.722 227.086C164.055 194.764 145.813 163.563 125.317 161.724Z" fill="white" stroke="#263238" stroke-width="1.00396" stroke-miterlimit="10"/>
<g style="mix-blend-mode:multiply">
<path d="M159.201 245.467C159.754 238.289 160.307 231.774 160.791 227.086C160.93 225.703 161.013 224.32 161.082 222.937L128.014 228.469L99.606 218.788C99.6091 224.666 99.9415 230.539 100.602 236.38L128.47 244.18L159.201 245.467Z" fill="#92E3A9"/>
</g>
<g style="mix-blend-mode:multiply">
<path d="M124.086 163.079C122.205 165.168 118.471 169.413 114.916 173.922L135.911 195.262L142.826 192.496L124.086 163.079Z" fill="#92E3A9"/>
</g>
<path d="M125.317 161.724C125.317 161.724 112.869 175.181 108.181 183.548C106.791 186.091 105.664 188.77 104.82 191.542L129.853 162.623C128.374 162.175 126.855 161.874 125.317 161.724Z" fill="#263238"/>
<g style="mix-blend-mode:multiply">
<path d="M100.851 209.383L128.014 218.318L160.999 214.528C160.482 206.311 158.656 198.229 155.591 190.588L128.996 201.251L105.221 190.477C103.277 196.656 101.816 202.978 100.851 209.383Z" fill="#92E3A9"/>
</g>
<g style="mix-blend-mode:multiply">
<path d="M147.611 279.323C133.834 281.636 119.698 280.481 106.48 275.963L99.8549 273.694L97.7942 290.291L105.346 292.407C119.701 296.42 134.705 297.576 149.506 295.809L155.605 295.076C155.923 294.404 156.101 293.675 156.131 292.932C156.297 289.24 156.587 283.873 156.96 277.719L147.611 279.323Z" fill="#92E3A9"/>
</g>
<g style="mix-blend-mode:multiply">
<path d="M151.304 256.724C137.526 259.047 123.387 257.887 110.172 253.35L101.736 250.459C101.945 253.473 101.904 256.498 101.611 259.504L100.629 267.485L109.038 269.836C123.388 273.854 138.388 275.014 153.185 273.252L157.334 272.754C157.68 267.222 158.081 261.33 158.509 255.507L151.304 256.724Z" fill="#92E3A9"/>
</g>
<path d="M21.5492 198.239L48.2907 219.739L49.4433 218.306L22.7018 196.805L21.5492 198.239Z" fill="#263238"/>
<path d="M138.193 176.647C138.193 176.647 147.998 183.327 148.22 199.107C148.317 206.022 147.597 212.481 146.007 223.808C144.416 235.135 134.541 272.021 126.852 276.502C119.162 280.983 107.227 272.519 107.227 272.519L49.4986 234.195L35.5438 222.923L28.6286 209.867L30.8 205.718L47.8251 218.774L38.6556 210.296L40.4536 208.014L43.7729 210.324L53.4541 213.947L55.5702 227.777L58.5575 229.824L113.782 250.003C113.782 250.003 113.091 220.281 113.602 214.597C114.114 208.913 114.819 194.626 120.905 184.267" fill="white"/>
<g style="mix-blend-mode:multiply" opacity="0.5">
<path d="M113.395 227.542C113.395 237.805 113.741 250.003 113.741 250.003L58.5713 229.907L55.584 227.86L53.4679 214.03L43.7867 210.407L40.4812 208.055L38.6833 210.337L47.8251 218.774L30.8 205.718L28.7393 209.798L35.6544 222.854L49.6093 234.195L53.1222 236.532L129.397 261.109L113.395 227.542Z" fill="#92E3A9"/>
</g>
<path d="M138.193 176.647C138.193 176.647 147.998 183.327 148.22 199.107C148.317 206.022 147.597 212.481 146.007 223.808C144.416 235.135 134.541 272.021 126.852 276.502C119.162 280.983 107.227 272.519 107.227 272.519L49.4986 234.195L35.5438 222.923L28.6286 209.867L30.8 205.718L47.8251 218.774L38.6556 210.296L40.4536 208.014L43.7729 210.324L53.4541 213.947L55.5702 227.777L58.5575 229.824L113.782 250.003C113.782 250.003 113.091 220.281 113.602 214.597C114.114 208.913 114.819 194.626 120.905 184.267" stroke="#263238" stroke-width="1.00396" stroke-miterlimit="10"/>
<path d="M113.782 250.003L134.86 265.216L140.323 255.535C140.323 255.535 144.098 252.562 144.651 250.321C145.205 248.081 144.499 244.443 145.066 242.203C145.633 239.962 148.455 237.86 148.718 232.438C148.98 227.017 148.718 222.494 148.718 222.494C148.718 222.494 153.282 203.727 152.784 195.567C152.286 187.407 144.416 172.982 138.11 172.664C131.803 172.346 123.602 173.3 117.24 182.926C110.878 192.552 112.178 220.655 111.182 222.411C110.186 224.168 111.569 232.839 111.569 232.839C111.017 233.252 110.558 233.777 110.224 234.38C109.89 234.984 109.689 235.651 109.633 236.339C109.522 238.593 111.956 244.139 111.956 244.139L113.782 250.003Z" fill="white" stroke="#263238" stroke-width="1.00396" stroke-miterlimit="10"/>
<g style="mix-blend-mode:multiply">
<path d="M111.735 215.192C111.779 217.605 111.598 220.018 111.196 222.398C110.311 223.974 111.32 231.097 111.542 232.549C123.397 236.231 135.933 237.177 148.206 235.315C148.47 234.353 148.627 233.365 148.676 232.369C148.953 226.962 148.676 222.425 148.676 222.425C148.676 222.425 149.077 220.752 149.63 218.207C136.92 219.015 124.158 218 111.735 215.192Z" fill="#92E3A9"/>
</g>
<g style="mix-blend-mode:multiply">
<path d="M116.382 184.461C114.404 188.43 113.298 194.391 112.662 200.435C125.217 205.227 138.754 206.874 152.092 205.234C152.624 202.036 152.861 198.795 152.798 195.553C152.558 192.99 151.953 190.475 151 188.084C139.353 188.356 127.72 187.139 116.382 184.461Z" fill="#92E3A9"/>
</g>
<path d="M111.957 244.291L113.741 250.003L134.818 265.216L140.281 255.535C140.281 255.535 144.057 252.562 144.61 250.321C144.709 249.931 144.769 249.533 144.79 249.132C133.682 248.94 122.647 247.313 111.957 244.291Z" fill="#263238"/>
<path d="M127.211 517.634C127.211 517.634 127.682 505.657 129.977 488.148C132.273 470.639 126.755 445.772 125.828 441.623C124.902 437.473 126.299 428.262 125.372 425.026C124.445 421.79 119.964 407.987 122.606 391.972C125.247 375.956 127.391 333.621 127.391 333.621C127.391 333.621 120.739 328.214 118.789 321.174C116.839 314.134 118.332 311.921 118.332 311.921" stroke="#263238" stroke-width="1.00396" stroke-miterlimit="10"/>
<path d="M130.296 312.571L127.737 326.734" stroke="#263238" stroke-width="1.00396" stroke-miterlimit="10"/>
</svg>
